<svg width="23" height="22" viewBox="0 0 23 22" fill="none" xmlns="http://www.w3.org/2000/svg">
<path d="M8.125 20.5V13.1C8.125 12.5399 8.125 12.2599 8.234 12.046C8.32987 11.8578 8.48285 11.7049 8.67101 11.609C8.88493 11.5 9.16495 11.5 9.725 11.5H12.525C13.0851 11.5 13.3651 11.5 13.579 11.609C13.7672 11.7049 13.9201 11.8578 14.016 12.046C14.125 12.2599 14.125 12.5399 14.125 13.1V20.5M1.125 9L10.165 2.22C10.5093 1.96181 10.6814 1.83271 10.8704 1.78294C11.0373 1.73902 11.2127 1.73902 11.3796 1.78295C11.5686 1.83271 11.7407 1.96181 12.085 2.22L21.125 9M3.125 7.5V17.3C3.125 18.4201 3.125 18.9802 3.34299 19.408C3.53474 19.7843 3.8407 20.0903 4.21702 20.282C4.64485 20.5 5.2049 20.5 6.325 20.5H15.925C17.0451 20.5 17.6052 20.5 18.033 20.282C18.4093 20.0903 18.7153 19.7843 18.907 19.408C19.125 18.9802 19.125 18.4201 19.125 17.3V7.5L13.045 2.94C12.3565 2.42361 12.0122 2.16542 11.6341 2.06589C11.3004 1.97804 10.9496 1.97804 10.6159 2.06589C10.2378 2.16542 9.89352 2.42361 9.205 2.94L3.125 7.5Z" stroke="#FF5B4A" stroke-width="2" stroke-linecap="round" stroke-linejoin="round"/>
</svg>
