<svg width="30" height="28" viewBox="0 0 30 28" fill="none" xmlns="http://www.w3.org/2000/svg">
<path d="M15 26L14.8666 25.7999C13.9404 24.4106 13.4773 23.716 12.8654 23.2131C12.3238 22.7679 11.6996 22.4339 11.0288 22.2301C10.271 22 9.4361 22 7.76639 22H5.93329C4.43982 22 3.69308 22 3.12265 21.7094C2.62089 21.4537 2.21294 21.0457 1.95728 20.544C1.66663 19.9735 1.66663 19.2268 1.66663 17.7333V6.26667C1.66663 4.77319 1.66663 4.02646 1.95728 3.45603C2.21294 2.95426 2.62089 2.54631 3.12265 2.29065C3.69308 2 4.43982 2 5.93329 2H6.46663C9.45357 2 10.947 2 12.0879 2.5813C13.0914 3.09262 13.9073 3.90852 14.4187 4.91205C15 6.05291 15 7.54639 15 10.5333M15 26V10.5333M15 26L15.1334 25.7999C16.0596 24.4106 16.5227 23.716 17.1345 23.2131C17.6761 22.7679 18.3003 22.4339 18.9712 22.2301C19.729 22 20.5638 22 22.2335 22H24.0666C25.5601 22 26.3068 22 26.8773 21.7094C27.379 21.4537 27.787 21.0457 28.0426 20.544C28.3333 19.9735 28.3333 19.2268 28.3333 17.7333V6.26667C28.3333 4.77319 28.3333 4.02646 28.0426 3.45603C27.787 2.95426 27.379 2.54631 26.8773 2.29065C26.3068 2 25.5601 2 24.0666 2H23.5333C20.5463 2 19.0529 2 17.912 2.5813C16.9085 3.09262 16.0926 3.90852 15.5813 4.91205C15 6.05291 15 7.54639 15 10.5333" stroke="#FFA200" stroke-width="3" stroke-linecap="round" stroke-linejoin="round"/>
</svg>
