<svg width="28" height="30" viewBox="0 0 28 30" fill="none" xmlns="http://www.w3.org/2000/svg">
<path d="M13.9998 29.3333C12.1554 29.3333 10.4221 28.9833 8.79984 28.2833C7.17761 27.5833 5.7665 26.6333 4.5665 25.4333C3.3665 24.2333 2.4165 22.8222 1.7165 21.2C1.0165 19.5778 0.666504 17.8444 0.666504 16C0.666504 13.4667 1.32761 11.1278 2.64984 8.98333C3.97206 6.83889 5.7665 5.2 8.03317 4.06667C8.05539 4.48889 8.09984 4.91667 8.1665 5.35C8.23317 5.78333 8.34428 6.28889 8.49984 6.86667C6.89984 7.84445 5.63873 9.13889 4.7165 10.75C3.79428 12.3611 3.33317 14.1111 3.33317 16C3.33317 18.9778 4.3665 21.5 6.43317 23.5667C8.49984 25.6333 11.0221 26.6667 13.9998 26.6667C16.9776 26.6667 19.4998 25.6333 21.5665 23.5667C23.6332 21.5 24.6665 18.9778 24.6665 16C24.6665 14.1111 24.2054 12.3556 23.2832 10.7333C22.3609 9.11111 21.0887 7.81111 19.4665 6.83333C19.6221 6.25556 19.7332 5.75 19.7998 5.31667C19.8665 4.88333 19.9221 4.46667 19.9665 4.06667C22.2332 5.2 24.0276 6.83333 25.3498 8.96667C26.6721 11.1 27.3332 13.4444 27.3332 16C27.3332 17.8444 26.9832 19.5778 26.2832 21.2C25.5832 22.8222 24.6332 24.2333 23.4332 25.4333C22.2332 26.6333 20.8221 27.5833 19.1998 28.2833C17.5776 28.9833 15.8443 29.3333 13.9998 29.3333ZM13.9998 24C11.7776 24 9.88873 23.2222 8.33317 21.6667C6.77761 20.1111 5.99984 18.2222 5.99984 16C5.99984 14.7111 6.28317 13.5 6.84984 12.3667C7.4165 11.2333 8.22206 10.2889 9.2665 9.53333C9.37761 9.86667 9.49984 10.25 9.63317 10.6833C9.7665 11.1167 9.94428 11.6556 10.1665 12.3C9.67761 12.8111 9.30539 13.3778 9.04984 14C8.79428 14.6222 8.6665 15.2889 8.6665 16C8.6665 17.4667 9.18873 18.7222 10.2332 19.7667C11.2776 20.8111 12.5332 21.3333 13.9998 21.3333C15.4665 21.3333 16.7221 20.8111 17.7665 19.7667C18.8109 18.7222 19.3332 17.4667 19.3332 16C19.3332 15.2889 19.2054 14.6222 18.9498 14C18.6943 13.3778 18.3221 12.8111 17.8332 12.3C18.0109 11.7667 18.1721 11.2722 18.3165 10.8167C18.4609 10.3611 18.5887 9.93333 18.6998 9.53333C19.7443 10.2889 20.5554 11.2333 21.1332 12.3667C21.7109 13.5 21.9998 14.7111 21.9998 16C21.9998 18.2222 21.2221 20.1111 19.6665 21.6667C18.1109 23.2222 16.2221 24 13.9998 24ZM12.6665 11.3333C11.8443 8.84445 11.3054 7.09445 11.0498 6.08333C10.7943 5.07222 10.6665 4.15556 10.6665 3.33333C10.6665 2.4 10.9887 1.61111 11.6332 0.966667C12.2776 0.322222 13.0665 0 13.9998 0C14.9332 0 15.7221 0.322222 16.3665 0.966667C17.0109 1.61111 17.3332 2.4 17.3332 3.33333C17.3332 4.15556 17.2054 5.07222 16.9498 6.08333C16.6943 7.09445 16.1554 8.84445 15.3332 11.3333H12.6665ZM13.9998 18.6667C13.2665 18.6667 12.6387 18.4056 12.1165 17.8833C11.5943 17.3611 11.3332 16.7333 11.3332 16C11.3332 15.2667 11.5943 14.6389 12.1165 14.1167C12.6387 13.5944 13.2665 13.3333 13.9998 13.3333C14.7332 13.3333 15.3609 13.5944 15.8832 14.1167C16.4054 14.6389 16.6665 15.2667 16.6665 16C16.6665 16.7333 16.4054 17.3611 15.8832 17.8833C15.3609 18.4056 14.7332 18.6667 13.9998 18.6667Z" fill="#FF7C6E"/>
</svg>
