<svg width="23" height="23" viewBox="0 0 23 23" fill="none" xmlns="http://www.w3.org/2000/svg">
<path d="M9.49895 10.2505C9.67515 9.74966 10.0229 9.3273 10.4807 9.05827C10.9384 8.78924 11.4766 8.6909 12 8.78066C12.5233 8.87043 12.9979 9.1425 13.3399 9.5487C13.6818 9.9549 13.869 10.469 13.8682 11C13.8682 12.4989 11.6199 13.2483 11.6199 13.2483M11.6488 16.2483H11.6588M21.9877 11.5C21.9877 17.0228 17.5105 21.5 11.9877 21.5C6.46484 21.5 1.98769 17.0228 1.98769 11.5C1.98769 5.97715 6.46484 1.5 11.9877 1.5C17.5105 1.5 21.9877 5.97715 21.9877 11.5Z" stroke="#282828" stroke-width="2" stroke-linecap="round" stroke-linejoin="round"/>
</svg>
