<svg width="319" height="302" viewBox="0 0 319 302" fill="none" xmlns="http://www.w3.org/2000/svg">
<path d="M305.046 301.543C305.046 301.638 241.174 301.719 162.409 301.719C83.644 301.719 19.759 301.638 19.759 301.543C19.759 301.449 83.617 301.367 162.409 301.367C241.201 301.367 305.046 301.449 305.046 301.543Z" fill="#263238"/>
<path d="M291.816 157.174L292.243 157.885C292.727 158.685 293.432 159.329 294.273 159.739L295.017 160.105L294.307 160.531C293.507 161.015 292.863 161.72 292.453 162.561L292.087 163.305L291.661 162.629C291.176 161.828 290.471 161.185 289.631 160.774L288.886 160.409L289.597 159.983C290.397 159.498 291.041 158.793 291.451 157.953L291.816 157.174Z" fill="#54C3A3"/>
<path d="M85.5724 289.438L85.9852 290.114C86.4501 290.888 87.1262 291.512 87.934 291.914L88.658 292.266L87.9814 292.679C87.2095 293.147 86.5874 293.825 86.1882 294.634L85.8295 295.352L85.4168 294.675C84.9509 293.904 84.2748 293.282 83.4679 292.882L82.7439 292.523L83.4206 292.11C84.1916 291.643 84.8153 290.967 85.2205 290.162L85.5724 289.438Z" fill="#54C3A3"/>
<path d="M44.0719 64.0977L44.8162 65.336C45.6523 66.7246 46.8687 67.8447 48.3214 68.5637L49.6138 69.2404L48.3823 69.9848C46.9908 70.8173 45.8698 72.0346 45.1546 73.4899L44.4779 74.7824L43.7335 73.5441C42.9154 72.1413 41.7101 71.0042 40.2622 70.269L38.9697 69.5923L40.208 68.848C41.5947 68.0125 42.7144 66.7989 43.4358 65.3495L44.0719 64.0977Z" fill="#54C3A3"/>
<path d="M193.529 20.7837L194.274 22.022C195.108 23.412 196.325 24.5326 197.779 25.2497L199.071 25.9264L197.833 26.6707C196.443 27.5051 195.322 28.7219 194.605 30.1759L193.969 31.4684L193.225 30.2301C192.393 28.8279 191.176 27.6936 189.72 26.9617L188.42 26.285L189.659 25.5407C191.049 24.7064 192.169 23.4895 192.886 22.0355L193.529 20.7837Z" fill="#54C3A3"/>
<path d="M306.534 129.431L306.825 129.911C307.147 130.455 307.616 130.896 308.178 131.183L308.686 131.434L308.199 131.731C307.655 132.052 307.213 132.522 306.927 133.085L306.676 133.599L306.385 133.112C306.064 132.568 305.594 132.127 305.032 131.84L304.524 131.589L305.012 131.298C305.554 130.975 305.994 130.506 306.284 129.945L306.534 129.431Z" fill="#54C3A3"/>
<path d="M57.3077 126.616L57.6122 127.117C57.948 127.683 58.4419 128.139 59.0332 128.429L59.561 128.686L59.0535 128.991C58.4914 129.33 58.0382 129.823 57.7475 130.412L57.4836 130.94L57.1859 130.432C56.8467 129.87 56.3535 129.417 55.7649 129.126L55.2371 128.869L55.7378 128.565C56.3044 128.229 56.7606 127.735 57.0506 127.144L57.3077 126.616Z" fill="#54C3A3"/>
<path d="M108.884 38.6411L109.188 39.1419C109.529 39.7043 110.022 40.1593 110.609 40.4546L111.13 40.7118L110.63 41.0163C110.068 41.3555 109.614 41.8486 109.324 42.4373L109.06 42.9583L108.762 42.4576C108.417 41.9025 107.922 41.4567 107.334 41.1719L106.813 40.908L107.314 40.6103C107.882 40.2558 108.338 39.7463 108.627 39.1419L108.884 38.6411Z" fill="#54C3A3"/>
<path d="M226.274 195.001C226.274 195.725 230.638 214.99 230.638 214.99C230.638 214.99 239.726 208.812 243.177 205.902C246.628 202.992 263.349 187.551 263.349 187.551L273.377 196.807C273.377 196.807 240.22 241.908 228.48 244.621C222.45 246.009 215.765 241.455 214.466 238.234C211.536 231.047 207.063 200.421 207.063 200.421L213.566 197.545L226.274 195.001Z" fill="#BA7E6D"/>
<path d="M231.024 215.03C230.32 215.144 229.629 215.326 228.96 215.572C227.395 216.282 226.079 217.447 225.184 218.914C224.315 220.407 223.657 222.012 223.229 223.685C223.067 224.39 222.854 225.082 222.593 225.756C222.652 225.032 222.781 224.316 222.978 223.617C223.341 221.893 223.981 220.238 224.873 218.718C225.804 217.189 227.204 216.002 228.865 215.335C229.369 215.146 229.898 215.035 230.435 215.003C230.631 214.976 230.831 214.985 231.024 215.03Z" fill="#875149"/>
<path d="M260.696 190C260.696 190 269.831 179.769 273.519 180.06C277.207 180.351 282.505 181.149 283.98 180.899C285.844 180.769 287.713 180.769 289.577 180.899C289.577 180.899 299.152 175.715 300.918 176.121C300.918 176.121 302.562 176.033 303.13 176.967C303.13 176.967 306.771 174.66 309.396 176.094L299.855 184.045L302.765 183.68C302.765 183.68 311.338 179.146 314.052 182.266L307.576 185.744C307.576 185.744 312.956 185.663 313.768 187.848L301.716 189.784C301.716 189.784 278.817 191.699 277.606 192.226C276.395 192.754 271.55 198.993 271.55 198.993L260.696 190Z" fill="#BA7E6D"/>
<path d="M303.259 177.015C303.091 177.225 302.898 177.414 302.684 177.576C302.298 177.915 301.73 178.395 300.999 178.93C299.101 180.4 297.11 181.745 295.037 182.956C293.88 183.633 292.784 184.248 291.715 184.742C290.761 185.251 289.657 185.4 288.602 185.162L288.771 185.067C288.642 185.469 288.42 185.835 288.124 186.135C287.828 186.436 287.466 186.664 287.066 186.799C286.848 186.874 286.62 186.915 286.389 186.921C286.234 186.921 286.159 186.921 286.159 186.921C286.444 186.86 286.724 186.78 286.998 186.684C287.355 186.534 287.673 186.307 287.932 186.019C288.19 185.731 288.382 185.39 288.494 185.02L288.535 184.884L288.663 184.925C289.653 185.114 290.679 184.949 291.559 184.458C292.588 183.964 293.698 183.328 294.834 182.665C297.25 181.257 299.341 179.823 300.83 178.747L302.582 177.461C302.79 177.287 303.017 177.137 303.259 177.015Z" fill="#875149"/>
<path d="M299.855 184.228C299.493 184.634 299.06 184.971 298.576 185.223C297.456 185.905 296.224 186.382 294.936 186.63C294.178 186.779 293.447 186.806 292.818 186.921C292.262 187.029 291.726 187.221 291.228 187.49C290.765 187.79 290.223 187.946 289.671 187.936C290.164 187.742 290.643 187.516 291.106 187.26C291.615 186.943 292.173 186.714 292.757 186.583C293.434 186.441 294.11 186.407 294.862 186.258C296.625 185.855 298.311 185.169 299.855 184.228Z" fill="#875149"/>
<path d="M308.077 185.06C307.697 185.458 307.259 185.795 306.778 186.062C304.521 187.468 301.931 188.25 299.274 188.329C298.725 188.374 298.173 188.335 297.636 188.214C299.465 188.103 301.278 187.81 303.049 187.341C305.993 186.475 308.009 184.952 308.077 185.06Z" fill="#875149"/>
<path d="M123.71 249.588C113.824 264.976 102.347 284.227 95.3572 301.57H214.452L200.242 249.588H123.71Z" fill="#263238"/>
<path d="M49.9656 193.295C49.9656 193.295 58.3767 205.631 61.2322 208.859C64.0878 212.087 76.1191 229.342 82.3784 236.251C88.6376 243.16 95.4653 246.963 99.884 246.963C104.418 246.963 109.006 245.413 112.605 236.961C117.802 224.781 122.18 188.917 122.18 188.917L101.88 181.474L94.5044 218.61C92.5217 216.634 61.239 187.483 61.239 187.483L54.0662 190.46L49.9656 193.295Z" fill="#BA7E6D"/>
<path d="M23.873 178.097C23.873 178.097 24.3535 177.238 27.0264 177.624C29.6992 178.009 34.3886 180.777 35.4374 180.777C36.4863 180.777 48.2402 181.156 50.5341 181.731C52.828 182.306 56.3941 182.651 58.4918 184.844L61.8752 187.862L50.5273 194.101C50.1032 193.535 49.5566 193.073 48.9285 192.748C48.3004 192.424 47.6071 192.245 46.9003 192.226C44.3222 192.071 32.4804 191.475 32.4804 191.475L23.3046 189.364L11.6455 183.727C11.9105 183.092 12.391 182.571 13.0025 182.255C13.6139 181.94 14.3171 181.85 14.9883 182.002C17.377 182.577 21.8701 184.201 21.8701 184.201L25.788 185.399L15.4687 180.472C16.1368 179.79 16.985 179.311 17.9146 179.092C18.8443 178.873 19.8171 178.922 20.7197 179.234C23.9678 180.283 29.5165 182.766 29.5165 182.766L30.2812 182.482L23.873 178.097Z" fill="#BA7E6D"/>
<path d="M36.7705 184.884C35.5779 184.977 34.3806 184.782 33.2788 184.316C32.1361 183.956 31.0965 183.327 30.2473 182.482C30.3082 182.394 31.6007 183.335 33.3939 183.991C35.187 184.648 36.7772 184.783 36.7705 184.884Z" fill="#875149"/>
<path d="M34.612 187.841C34.1142 187.963 33.5998 188.002 33.0895 187.957C30.607 187.896 28.1899 187.149 26.1062 185.798C25.6601 185.544 25.256 185.222 24.9084 184.844C26.3738 185.735 27.9299 186.468 29.5504 187.029C31.2039 187.48 32.9007 187.752 34.612 187.841Z" fill="#875149"/>
<path d="M14.1559 184.966C13.7518 185.159 13.4133 185.466 13.1823 185.85C12.9513 186.234 12.8381 186.677 12.8567 187.124C16.7321 188.392 20.7134 189.309 24.7527 189.865" fill="#875149"/>
<path d="M101.664 234.275C101.589 234.275 101.731 233.246 101.623 231.568C101.56 230.606 101.417 229.651 101.197 228.713C100.916 227.568 100.531 226.451 100.046 225.377C99.5473 224.308 98.9492 223.289 98.26 222.332C97.6919 221.552 97.0604 220.821 96.3721 220.146C95.1879 218.996 94.342 218.434 94.342 218.38C94.5671 218.473 94.7787 218.596 94.9714 218.745C95.2097 218.894 95.436 219.062 95.648 219.246C95.9052 219.456 96.2164 219.679 96.5142 219.97C97.2378 220.632 97.8992 221.359 98.4901 222.142C99.9431 224.069 100.963 226.288 101.481 228.645C101.689 229.604 101.809 230.58 101.84 231.562C101.86 231.936 101.86 232.311 101.84 232.685C101.836 232.968 101.811 233.251 101.765 233.531C101.762 233.782 101.728 234.032 101.664 234.275Z" fill="#875149"/>
<path d="M121.071 145.509C118.263 147.241 111.773 152.499 105.061 166.709C96.1218 185.608 93.8008 197.403 93.8008 197.403L117.559 205.888L124.759 143.729C124.759 143.729 121.998 144.94 121.071 145.509Z" fill="#455A64"/>
<path d="M115.915 165.308C115.915 165.308 116.476 185.365 116.476 190.812C116.476 196.259 118.912 237.225 118.912 237.225C118.912 237.225 118.912 250.705 127.283 250.495C135.653 250.285 149.965 251.909 155.629 251.909C159.804 251.909 183.535 252.187 196.026 251.07C201.947 250.542 204.228 247.653 206.055 242.95C206.298 242.314 206.149 242.686 206.298 242.314C209.878 233.517 207.11 195.874 207.11 195.874L202.678 161.844L192.582 141.767L135.396 141.584C117.065 142.843 117.065 150.367 115.915 165.308Z" fill="#455A64"/>
<path d="M216.489 158.237C207.07 142.606 192.582 141.794 192.582 141.794L201.135 212.283L207.902 210.402C208.403 210.233 233.277 200.313 233.277 200.313C233.277 200.313 222.281 167.832 216.489 158.237Z" fill="#455A64"/>
<path d="M199.707 163.271C199.707 163.271 199.741 163.312 199.795 163.407C199.849 163.501 199.924 163.657 200.005 163.826C200.181 164.192 200.465 164.733 200.783 165.45C201.46 166.871 202.299 168.976 203.199 171.628C205.473 178.571 206.94 185.753 207.57 193.032C208.198 200.299 208.424 207.596 208.247 214.888C208.2 217.683 208.132 219.943 208.078 221.506C208.078 222.264 208.024 222.859 208.01 223.306C208.01 223.496 208.01 223.651 208.01 223.78C208.017 223.831 208.017 223.884 208.01 223.935C208.004 223.881 208.004 223.827 208.01 223.773V223.306C208.01 222.866 208.01 222.264 208.01 221.506C208.01 219.909 208.01 217.656 208.064 214.881C208.175 207.601 207.919 200.32 207.3 193.065C206.668 185.81 205.24 178.646 203.043 171.703C202.177 169.05 201.352 166.966 200.736 165.504C200.445 164.78 200.181 164.232 200.059 163.853L199.876 163.42C199.815 163.377 199.758 163.327 199.707 163.271Z" fill="#263238"/>
<g opacity="0.3">
<path d="M158.112 209.827C161.121 206.813 164.791 204.542 168.831 203.195C174.176 201.47 190.011 198.168 194.213 196.625C198.846 194.916 203.067 192.25 206.603 188.802L225.191 204.068C221.963 206.963 218.417 209.483 214.621 211.579C208.639 214.793 193.895 214.807 185.957 219.571C180.815 222.656 174.156 231.69 174.156 231.69L158.112 209.827Z" fill="black"/>
</g>
<g opacity="0.3">
<path d="M183.697 292.435C179.452 292.095 175.344 290.769 171.7 288.565C166.915 285.614 154.147 275.708 150.249 273.495C145.874 271.044 141.151 269.275 136.242 268.251L135.843 245.075C140.138 245.656 144.354 246.723 148.408 248.255C154.735 250.732 164.297 261.951 173.073 264.915C178.751 266.83 189.95 266.045 189.95 266.045L183.697 292.435Z" fill="black"/>
</g>
<g opacity="0.3">
<path d="M100.588 176.209C105.325 177.806 111.32 175.093 114.358 171.121C117.397 167.149 120.367 162.06 121.091 157.114C117.62 157.114 112.903 157.371 109.432 157.364L100.588 176.209Z" fill="black"/>
</g>
<path d="M117.065 181.663C117.096 181.847 117.11 182.032 117.106 182.218L117.166 183.815C117.207 185.236 117.261 187.239 117.329 189.696C117.464 194.683 117.647 201.524 117.843 209.082C118.039 216.641 118.303 223.502 118.52 228.462C118.642 230.919 118.736 232.915 118.804 234.336C118.804 235.013 118.858 235.534 118.878 235.933C118.889 236.118 118.889 236.303 118.878 236.488C118.835 236.306 118.81 236.12 118.804 235.933C118.763 235.54 118.716 235.006 118.662 234.343C118.533 232.989 118.412 230.959 118.263 228.476C117.978 223.516 117.701 216.661 117.478 209.089C117.254 201.517 117.133 194.662 117.065 189.696C117.065 187.239 117.031 185.243 117.018 183.815C117.018 183.139 117.018 182.618 117.018 182.218C117.017 182.032 117.033 181.847 117.065 181.663Z" fill="#263238"/>
<g opacity="0.3">
<path d="M117.688 223.604C111.503 209.664 112.423 194.101 117.065 179.552C117.742 193.729 118.053 209.414 117.708 223.604" fill="black"/>
</g>
<path d="M191.499 74.796C190.715 72.2697 189.436 69.9244 187.738 67.8962C186.04 65.868 183.955 64.1974 181.606 62.9812C176.443 60.3489 170.285 60.1256 164.635 61.4248C158.985 62.7241 153.768 65.4511 148.835 68.4961C146.067 70.2013 143.313 72.069 141.391 74.6742C137.832 79.4109 134.401 87.1588 134.212 93.0933C134.063 97.8909 136.242 109.827 138.387 114.118C139.152 115.647 140.945 116.993 143.124 118.13C145.434 122.381 148.484 126.185 152.13 129.363C153.145 126.115 154.162 122.867 155.182 119.619L191.499 74.796Z" fill="#263238"/>
<path d="M188.535 68.9698L179.062 67.5487C184.57 79.6883 186.776 107.75 190.099 120.661C193.435 115.512 201.074 99.9074 200.465 93.8038C199.856 87.7002 199.721 67.6029 188.535 68.9698Z" fill="#263238"/>
<path d="M144.369 90.6978C144.673 83.5048 149.153 77.4824 156.075 75.5065L177.655 69.3419C187.02 68.0563 193.617 79.4379 194.504 88.8437C195.485 99.2984 196.223 110.342 195.221 118.198C193.191 133.992 181.227 136.367 181.227 136.367C181.227 136.367 181.437 143.81 181.559 148.432L168.756 175.154L148.869 143.133L144.342 90.8941C144.301 90.6234 144.355 91.0565 144.369 90.6978Z" fill="#BA7E6D"/>
<path d="M188.488 100.388C188.507 100.913 188.322 101.425 187.971 101.816C187.62 102.207 187.131 102.447 186.607 102.486C186.351 102.514 186.092 102.49 185.845 102.417C185.598 102.344 185.369 102.222 185.17 102.059C184.97 101.895 184.806 101.694 184.685 101.466C184.565 101.239 184.491 100.989 184.469 100.733C184.45 100.208 184.635 99.6958 184.986 99.3046C185.337 98.9134 185.826 98.6735 186.35 98.6353C186.606 98.6073 186.865 98.6306 187.111 98.7039C187.358 98.7772 187.588 98.8991 187.787 99.0623C187.986 99.2255 188.151 99.4268 188.271 99.6544C188.392 99.8821 188.465 100.131 188.488 100.388Z" fill="#263238"/>
<path d="M192.318 95.0692C192.081 95.3398 190.518 94.2572 188.346 94.3316C186.174 94.406 184.624 95.5361 184.381 95.2789C184.259 95.1639 184.503 94.6835 185.179 94.1557C186.097 93.4758 187.204 93.0976 188.346 93.073C189.473 93.0327 190.583 93.3553 191.513 93.9933C192.176 94.4805 192.44 94.9474 192.318 95.0692Z" fill="#263238"/>
<path d="M169.758 100.395C169.775 100.919 169.588 101.429 169.238 101.819C168.887 102.208 168.399 102.447 167.876 102.486C167.62 102.514 167.362 102.49 167.115 102.417C166.868 102.344 166.638 102.222 166.439 102.059C166.24 101.895 166.075 101.694 165.955 101.466C165.835 101.239 165.761 100.989 165.738 100.733C165.719 100.208 165.905 99.6958 166.256 99.3046C166.606 98.9134 167.095 98.6735 167.619 98.6353C167.876 98.6073 168.135 98.6308 168.382 98.7046C168.63 98.7783 168.86 98.9008 169.059 99.0647C169.258 99.2286 169.423 99.4307 169.543 99.6591C169.663 99.8875 169.736 100.138 169.758 100.395Z" fill="#263238"/>
<path d="M171.72 95.6579C171.476 95.9286 169.913 94.8459 167.748 94.9203C165.583 94.9947 164.019 96.1248 163.776 95.8677C163.661 95.7526 163.898 95.2722 164.574 94.7444C165.493 94.0657 166.599 93.6876 167.741 93.6617C168.869 93.6227 169.98 93.9425 170.915 94.5752C171.598 95.0692 171.835 95.5361 171.72 95.6579Z" fill="#263238"/>
<path d="M178.988 112.5C178.988 112.379 180.341 112.108 182.493 111.756C183.041 111.682 183.562 111.56 183.643 111.181C183.676 110.607 183.529 110.037 183.223 109.55L181.457 105.382C179.001 99.4473 177.201 94.5549 177.438 94.4602C177.675 94.3654 179.867 99.0954 182.324 105.03L184.029 109.225C184.394 109.884 184.519 110.65 184.381 111.391C184.306 111.589 184.188 111.767 184.034 111.912C183.881 112.058 183.696 112.166 183.494 112.23C183.192 112.324 182.877 112.377 182.56 112.385C180.361 112.575 179.001 112.629 178.988 112.5Z" fill="#263238"/>
<path d="M160.217 131.366C160.217 131.366 165.63 142.017 181.329 140.061L181.227 136.367C173.896 136.677 166.622 134.946 160.217 131.366Z" fill="#875149"/>
<path d="M170.813 87.8626C170.617 88.4581 168.445 88.2415 165.907 88.6272C163.37 89.0129 161.34 89.7708 160.981 89.2498C160.826 89.0062 161.164 88.4378 161.976 87.8423C163.063 87.1096 164.301 86.6333 165.599 86.4492C166.897 86.2652 168.219 86.3782 169.467 86.7799C170.414 87.1115 170.894 87.5581 170.813 87.8626Z" fill="#263238"/>
<path d="M191.425 88.4581C191.059 88.9588 189.544 88.4987 187.75 88.5257C185.957 88.5528 184.441 88.9588 184.076 88.4581C183.914 88.2077 184.137 87.7069 184.787 87.2197C185.659 86.6239 186.694 86.3098 187.75 86.3198C188.806 86.3083 189.84 86.6252 190.707 87.2265C191.357 87.7069 191.587 88.2077 191.425 88.4581Z" fill="#263238"/>
<path d="M189.821 74.6133C188.793 72.272 186.16 70.9254 183.609 70.8712C181.058 70.8171 178.588 71.8524 176.416 73.1922C167.207 78.8696 162.768 92.0783 153.68 97.9383C151.447 99.3796 148.449 98.2022 146.561 100.083C144.673 101.965 143.509 104.915 144.646 107.317C143.27 105.707 142.131 103.91 141.263 101.978C140.841 101.009 140.631 99.9603 140.646 98.9032C140.661 97.8461 140.902 96.8044 141.351 95.8474C142.109 94.4399 143.496 93.3369 143.834 91.7873C144.139 90.4339 143.557 88.9994 143.577 87.5851C143.701 86.1438 144.165 84.7524 144.93 83.5251C148.368 77.0087 153.193 71.0742 159.506 67.2849C163.635 64.7418 168.38 63.3732 173.229 63.3263C178.087 63.3022 182.793 65.0158 186.499 68.1578C188.623 70.0322 190.856 71.9607 189.882 74.6133" fill="#263238"/>
<path d="M146.839 102.025C146.663 101.579 138.38 98.8518 138.516 107.574C138.651 116.046 147.15 114.131 147.157 113.888C147.163 113.644 146.839 102.025 146.839 102.025Z" fill="#BA7E6D"/>
<path d="M144.49 110.727C144.457 110.727 144.348 110.836 144.098 110.958C143.749 111.112 143.354 111.126 142.995 110.998C142.095 110.687 141.317 109.279 141.242 107.757C141.21 107.032 141.337 106.309 141.615 105.639C141.689 105.372 141.827 105.128 142.017 104.926C142.207 104.725 142.442 104.572 142.704 104.482C142.873 104.435 143.052 104.447 143.213 104.517C143.373 104.588 143.504 104.711 143.584 104.867C143.699 105.104 143.651 105.273 143.699 105.287C143.746 105.301 143.875 105.145 143.8 104.793C143.748 104.585 143.627 104.401 143.455 104.272C143.22 104.098 142.925 104.025 142.636 104.069C142.289 104.146 141.967 104.311 141.702 104.548C141.436 104.785 141.236 105.086 141.121 105.422C140.773 106.162 140.613 106.975 140.654 107.791C140.742 109.496 141.648 111.079 142.88 111.404C143.109 111.471 143.351 111.482 143.586 111.439C143.821 111.396 144.043 111.298 144.233 111.154C144.477 110.937 144.524 110.748 144.49 110.727Z" fill="#875149"/>
<path d="M143.354 97.7691C143.531 97.6888 143.699 97.5889 143.854 97.4714C144.173 97.2548 144.667 96.9639 145.248 96.5308C146.881 95.2611 148.374 93.8206 149.701 92.2339C151.646 89.8582 153.454 87.373 155.114 84.7905C157.114 81.6361 159.378 78.6571 161.881 75.8854C163.211 74.4995 164.688 73.2628 166.286 72.1975C167.786 71.2213 169.399 70.4327 171.091 69.8495C173.959 68.8397 176.991 68.3805 180.03 68.4961C182.08 68.562 184.112 68.901 186.072 69.5043C186.749 69.6938 187.297 69.9171 187.656 70.0389C187.838 70.1148 188.026 70.1759 188.217 70.2216C188.051 70.1197 187.874 70.0358 187.69 69.9713C187.18 69.7342 186.656 69.5307 186.12 69.3622C184.154 68.6964 182.103 68.3136 180.03 68.2254C176.952 68.0666 173.873 68.5055 170.962 69.5179C169.239 70.1004 167.595 70.896 166.07 71.8862C164.442 72.9655 162.937 74.2203 161.583 75.6283C159.075 78.4171 156.811 81.4169 154.817 84.5942C153.182 87.1661 151.413 89.6506 149.518 92.0377C148.221 93.6264 146.77 95.0837 145.188 96.3887C144.619 96.8421 144.145 97.1533 143.834 97.3834C143.664 97.4987 143.503 97.6277 143.354 97.7691Z" fill="#455A64"/>
<path d="M143.57 112.257C143.152 112.191 142.724 112.288 142.374 112.526C142.025 112.765 141.779 113.128 141.687 113.541C141.596 113.955 141.665 114.388 141.882 114.752C142.098 115.116 142.445 115.384 142.852 115.501C143.259 115.618 143.695 115.576 144.072 115.383C144.449 115.19 144.738 114.86 144.88 114.461C145.023 114.062 145.008 113.624 144.839 113.236C144.669 112.848 144.359 112.539 143.969 112.372" fill="white"/>
<path d="M143.969 112.372C144.344 112.651 144.622 113.038 144.768 113.482C144.837 113.714 144.845 113.96 144.793 114.197C144.741 114.433 144.63 114.653 144.47 114.835C144.289 115.065 144.044 115.236 143.765 115.326C143.486 115.416 143.187 115.421 142.905 115.341C142.624 115.26 142.372 115.098 142.184 114.874C141.995 114.65 141.877 114.375 141.845 114.084C141.809 113.847 141.832 113.605 141.912 113.38C141.992 113.154 142.127 112.952 142.305 112.791C142.662 112.49 143.104 112.307 143.57 112.27C143.57 112.27 143.442 112.182 143.171 112.189C142.931 112.2 142.696 112.259 142.479 112.364C142.263 112.469 142.071 112.617 141.914 112.799C141.757 112.981 141.638 113.192 141.566 113.422C141.494 113.651 141.469 113.892 141.493 114.131C141.526 114.495 141.669 114.84 141.901 115.121C142.134 115.403 142.447 115.607 142.798 115.708C143.149 115.809 143.522 115.802 143.869 115.687C144.215 115.572 144.519 115.355 144.741 115.065C144.929 114.84 145.054 114.57 145.104 114.281C145.154 113.992 145.127 113.695 145.025 113.421C144.906 113.056 144.667 112.741 144.348 112.527C144.132 112.365 143.976 112.351 143.969 112.372Z" fill="#263238"/>
<path d="M145.553 100.104C145.485 102.425 145.445 104.84 146.575 106.87C147.705 108.9 150.439 110.213 152.414 109.009C154.025 108.028 154.444 105.91 154.681 104.035C155.358 98.6217 155.547 93.1542 156.238 87.7475L145.553 100.104Z" fill="#263238"/>
<path d="M187.622 70.6412C187.622 70.6953 186.871 70.5262 185.517 70.5194C183.599 70.5392 181.703 70.9418 179.942 71.7036C178.723 72.2128 177.564 72.8527 176.484 73.6118C175.247 74.4979 174.063 75.4559 172.938 76.4809C170.342 78.8099 168.036 81.4431 166.07 84.3236C165.034 85.8664 164.128 87.4431 163.133 88.9115C162.198 90.3431 161.097 91.6584 159.851 92.8294C157.709 94.7526 155.355 96.4258 152.834 97.8165C150.696 99.021 148.909 99.8465 147.678 100.469L146.25 101.146C146.087 101.233 145.914 101.301 145.736 101.349C145.878 101.232 146.035 101.134 146.203 101.058L147.596 100.32C148.801 99.6841 150.56 98.7842 152.665 97.5458C155.137 96.1287 157.447 94.445 159.553 92.5249C160.764 91.3703 161.836 90.0781 162.747 88.6746C163.722 87.2198 164.628 85.6363 165.67 84.08C167.659 81.166 170.002 78.511 172.647 76.1764C173.789 75.1433 174.996 74.185 176.26 73.3073C177.371 72.5465 178.562 71.911 179.813 71.4126C181.619 70.6626 183.563 70.3029 185.517 70.357C186.044 70.3708 186.569 70.4274 187.087 70.5262C187.269 70.5447 187.448 70.5833 187.622 70.6412Z" fill="#455A64"/>
<path d="M145.167 94.8797C144.946 95.0851 144.701 95.2624 144.436 95.4075L142.325 96.727L141.615 97.1669C141.334 97.3404 141.021 97.4534 140.694 97.4984C140.494 97.5261 140.291 97.4831 140.119 97.3766C140.025 97.3172 139.946 97.2368 139.889 97.1417C139.831 97.0465 139.797 96.9393 139.788 96.8285C139.796 96.4377 139.926 96.0591 140.16 95.7458C140.884 94.5008 141.682 93.1406 142.535 91.6858L142.88 91.9903C142.067 92.62 141.151 93.1052 140.173 93.4249C139.201 93.7461 138.179 93.8949 137.155 93.8647C136.894 93.8682 136.634 93.8317 136.384 93.7564C136.238 93.7173 136.102 93.6476 135.986 93.5519C135.869 93.4562 135.774 93.3368 135.707 93.2015C135.654 93.0595 135.637 92.9065 135.659 92.7563C135.68 92.6062 135.738 92.4638 135.829 92.3422C135.966 92.1461 136.122 91.9647 136.296 91.8008C137.378 90.6858 138.311 89.4347 139.07 88.0791C139.742 86.8062 140.319 85.4853 140.796 84.1273C140.768 84.5195 140.688 84.9063 140.559 85.2777C140.264 86.3037 139.865 87.2969 139.368 88.2415C138.631 89.6512 137.702 90.9516 136.607 92.1053C136.303 92.4098 135.998 92.782 136.127 93.0256C136.255 93.2692 136.722 93.4113 137.169 93.3978C139.124 93.4446 141.036 92.8161 142.582 91.6181L143.57 90.8535L142.894 91.9226L140.464 95.9827C140.277 96.2254 140.162 96.5164 140.133 96.8218C140.133 97.0586 140.356 97.1939 140.627 97.1669C141.165 97.0376 141.675 96.8081 142.129 96.4902L144.308 95.2857C144.578 95.1186 144.866 94.9824 145.167 94.8797Z" fill="#455A64"/>
<path d="M170.847 116.736C170.99 116.088 171.355 115.51 171.879 115.103C172.403 114.695 173.053 114.483 173.716 114.503C174.201 114.554 174.666 114.722 175.07 114.993C175.475 115.264 175.807 115.631 176.037 116.06C176.258 116.494 176.391 116.967 176.427 117.453C176.463 117.938 176.401 118.426 176.247 118.888L176.206 119.091C175.769 119.592 175.188 119.944 174.542 120.101C173.896 120.257 173.217 120.209 172.6 119.964C171.992 119.695 171.491 119.232 171.174 118.648C170.857 118.065 170.742 117.392 170.847 116.736Z" fill="#875149"/>
<path d="M174.582 119.815C174.582 119.815 174.494 120.045 174.149 120.248C173.646 120.532 173.056 120.621 172.491 120.499C172.07 120.4 171.675 120.207 171.338 119.936C171.001 119.664 170.729 119.32 170.542 118.929C170.221 118.194 170.129 117.379 170.28 116.591C170.431 115.804 170.818 115.08 171.388 114.517C171.596 114.327 171.844 114.188 172.114 114.111C172.384 114.033 172.668 114.02 172.945 114.07C173.738 114.308 174.468 114.72 175.083 115.275C176.145 116.08 176.775 116.628 176.721 116.696C176.666 116.763 175.936 116.384 174.799 115.687C174.213 115.245 173.55 114.915 172.843 114.713C172.664 114.684 172.481 114.698 172.308 114.753C172.135 114.809 171.978 114.904 171.848 115.031C171.551 115.349 171.32 115.724 171.172 116.134C171.001 116.531 170.913 116.958 170.913 117.389C170.913 117.821 171.001 118.248 171.172 118.645C171.308 118.963 171.51 119.248 171.766 119.482C172.022 119.715 172.324 119.891 172.654 119.998C173.119 120.143 173.617 120.143 174.082 119.998C174.366 119.896 174.542 119.775 174.582 119.815Z" fill="#263238"/>
<path d="M226.565 103.879C230.627 105.592 234.235 108.229 237.1 111.58C240.842 116.039 250.174 129.945 253.293 133.376C256.738 137.156 260.938 140.169 265.622 142.22L258.22 165.998C254.185 164.03 250.387 161.61 246.899 158.785C241.485 154.299 235.727 140.156 228.06 134.391C223.1 130.662 211.82 127.793 211.82 127.793L226.565 103.879Z" fill="#00A576"/>
<g opacity="0.2">
<path d="M264.181 142.93C264.113 142.883 256.738 138.708 253.611 135.237C251.399 132.794 247.988 128.152 244.686 123.659C242.189 120.275 239.827 117.041 238.048 114.862C232.364 107.892 227.837 106.485 227.647 106.431L227.207 106.295L214.351 126.365L215.156 126.582C215.237 126.582 223.54 128.849 227.458 131.711C232.675 135.521 235.686 140.589 238.603 145.488C240.687 148.993 242.663 152.302 245.369 155.199C247.776 157.776 250.469 160.071 253.395 162.04C254.561 162.834 255.779 163.548 257.042 164.178L257.678 164.469L264.181 142.93ZM228.148 130.75C225.813 129.045 222.146 127.59 219.351 126.636C219.82 126.045 220.061 125.305 220.028 124.552C219.703 123.327 218.675 123.077 217.612 123.571L225.989 110.538L226.057 110.639C227.35 112.453 229.88 110.89 230.049 109.022C230.092 109.055 230.137 109.085 230.185 109.11C232.799 110.921 235.13 113.11 237.1 115.606C238.86 117.765 241.215 120.966 243.705 124.362C243.996 124.748 244.28 125.141 244.564 125.526C242.656 124.647 240.139 125.066 237.764 128.395C235.571 131.481 235.26 135.643 235.835 138.823C233.749 135.708 231.15 132.969 228.148 130.723V130.75ZM246.222 154.387C243.603 151.585 241.668 148.33 239.618 144.913L239.036 143.932C240.411 144.345 241.884 144.295 243.229 143.79C244.573 143.285 245.715 142.353 246.479 141.137C248.063 138.478 249.578 134.668 248.509 130.838C250.12 132.956 251.595 134.824 252.752 136.11C254.965 138.546 258.774 141.442 261.062 143.1C260.886 143.149 260.721 143.233 260.579 143.348C260.437 143.462 260.319 143.605 260.233 143.766C260.147 143.927 260.094 144.104 260.079 144.286C260.063 144.468 260.084 144.652 260.141 144.825C260.29 145.576 260.994 146.503 261.846 146.321L261.962 146.273L257.563 160.747C256.886 158.717 254.647 159.665 254.999 161.661C251.775 159.609 248.826 157.155 246.222 154.36V154.387Z" fill="white"/>
</g>
<path d="M159.019 199.744C162.134 196.626 165.934 194.276 170.116 192.883C175.651 191.09 192.047 187.672 196.398 186.075C201.207 184.302 205.588 181.536 209.255 177.955L228.5 193.762C225.151 196.762 221.474 199.372 217.538 201.544C211.339 204.873 196.074 204.887 187.852 209.82C182.527 213.014 175.631 222.372 175.631 222.372L159.019 199.744Z" fill="#00A576"/>
<g opacity="0.2">
<path d="M209.35 179.579C209.282 179.627 202.644 184.871 198.239 186.481C195.147 187.611 189.564 189.026 184.157 190.393C180.097 191.428 176.193 192.423 173.507 193.235C164.913 195.88 161.902 199.541 161.78 199.697L161.489 200.049L175.259 219.551L175.76 218.874C175.814 218.799 181.018 211.951 185.145 209.4C190.633 206.017 196.459 205.117 202.096 204.258C206.156 203.642 209.932 203.06 213.64 201.646C216.935 200.382 220.074 198.748 222.999 196.774C224.186 195.998 225.317 195.139 226.382 194.202L226.896 193.722L209.35 179.579ZM184.482 208.379C182.026 209.894 179.299 212.75 177.357 214.983C176.976 214.341 176.375 213.86 175.665 213.63C174.413 213.467 173.791 214.306 173.852 215.497L164.926 202.83H165.048C167.213 202.309 166.719 199.379 165.048 198.519L165.177 198.425C167.856 196.672 170.783 195.329 173.858 194.439C176.518 193.62 180.375 192.646 184.455 191.611L185.856 191.259C184.327 192.693 183.765 195.19 185.957 198.641C187.987 201.828 191.729 203.682 194.896 204.346C191.222 205.091 187.701 206.455 184.482 208.379ZM213.153 200.516C209.573 201.869 205.831 202.458 201.866 203.067L200.743 203.236C201.634 202.117 202.135 200.738 202.172 199.308C202.209 197.878 201.778 196.475 200.946 195.312C199.071 192.849 196.114 190.007 192.149 189.581C194.727 188.904 197.008 188.227 198.632 187.625C201.724 186.495 205.838 184.059 208.24 182.557C208.22 182.738 208.236 182.922 208.289 183.097C208.341 183.272 208.428 183.435 208.545 183.575C208.662 183.715 208.807 183.831 208.969 183.914C209.132 183.997 209.31 184.046 209.492 184.059C210.243 184.208 211.36 183.903 211.522 183.044C211.526 183.003 211.526 182.963 211.522 182.922L223.303 192.436C221.158 192.328 221.199 194.73 223.181 195.143C220.082 197.356 216.712 199.162 213.153 200.516Z" fill="white"/>
</g>
<path d="M160.778 4.7735L137.771 1.68109L135.335 1.9247C131.167 2.4931 127.838 3.50135 122.878 8.75236C118.053 13.8613 116.023 26.9143 116.023 26.9143C116.023 26.9143 121.748 23.9708 130.565 24.167C139.382 24.3633 142.589 25.9061 142.589 25.9061C142.589 25.9061 142.65 17.1093 146.419 12.6974C151.129 7.22307 160.778 4.7735 160.778 4.7735Z" fill="#00A576"/>
<g opacity="0.2">
<path d="M160.778 4.7735L137.771 1.68109L135.335 1.9247C131.167 2.4931 127.838 3.50135 122.878 8.75236C118.053 13.8613 116.023 26.9143 116.023 26.9143C116.023 26.9143 121.748 23.9708 130.565 24.167C139.382 24.3633 142.589 25.9061 142.589 25.9061C142.589 25.9061 142.65 17.1093 146.419 12.6974C151.129 7.22307 160.778 4.7735 160.778 4.7735Z" fill="black"/>
</g>
<path d="M135.335 1.92471C135.335 1.92471 140.749 1.16006 149.315 8.5223C154.796 13.2184 164.202 27.6249 164.202 27.6249C166.158 24.9445 168.634 22.6866 171.483 20.9867C179.123 16.4597 183.501 15.3161 183.501 15.3161C183.501 15.3161 178.642 8.01479 171.341 5.13892C153.72 -1.83761 135.335 1.92471 135.335 1.92471Z" fill="#00A576"/>
<g opacity="0.2">
<path d="M142.481 1.04503C143.679 1.68111 150.75 4.18481 155.642 3.75174C160.535 3.31866 161.732 2.52695 159.756 2.01268C157.011 1.29765 154.189 0.915961 151.352 0.875862C148.394 0.752122 145.432 0.808616 142.481 1.04503Z" fill="white"/>
</g>
<g opacity="0.2">
<path d="M180.943 13.7665C177.682 10.3314 173.945 7.38259 169.846 5.01036C168.98 4.53669 168.059 4.08331 167.139 3.65701C163.992 2.70151 160.775 1.99558 157.517 1.54578C160.602 2.22245 164.601 2.54726 169.744 6.07951C172.321 7.87272 174.776 9.83487 177.093 11.9531C176.288 12.42 176.274 14.0305 176.849 14.6598C174.733 15.4753 172.704 16.5023 170.793 17.7251C169.036 18.886 167.344 20.142 165.725 21.4874C165.866 21.1858 165.923 20.8511 165.887 20.5198C165.698 19.4506 164.189 18.7537 163.18 19.0514C162.978 19.0864 162.789 19.1771 162.635 19.3133C162.48 19.4496 162.367 19.6259 162.308 19.8228C159.411 15.6071 154.6 8.90125 151.826 6.57348C149.026 4.30141 145.913 2.44616 142.582 1.06534H142.508C141.317 1.13977 140.376 1.26834 139.443 1.36984C143.623 2.75974 147.519 4.88897 150.946 7.65616C154.864 10.9448 163.478 24.0385 163.566 24.1738L164.013 24.8505L164.608 24.3092C166.81 22.3538 169.139 20.5454 171.578 18.8958C174.37 17.1055 177.425 15.763 180.632 14.9169L181.803 14.653L180.943 13.7665Z" fill="white"/>
</g>
<path d="M76.9585 168.157L97.7798 171.71L99.9655 171.561C103.768 171.182 106.82 170.376 111.469 165.768C116.016 161.282 118.276 149.528 118.276 149.528C118.276 149.528 112.985 152.018 104.986 151.558C96.9881 151.098 94.1258 149.589 94.1258 149.589C94.1258 149.589 93.7874 157.594 90.2213 161.458C85.8027 166.242 76.9585 168.157 76.9585 168.157Z" fill="#00A576"/>
<g opacity="0.2">
<path d="M76.9585 168.157L97.7798 171.71L99.9655 171.561C103.768 171.182 106.82 170.376 111.469 165.768C116.016 161.282 118.276 149.528 118.276 149.528C118.276 149.528 112.985 152.018 104.986 151.558C96.9881 151.098 94.1258 149.589 94.1258 149.589C94.1258 149.589 93.7874 157.594 90.2213 161.458C85.8027 166.242 76.9585 168.157 76.9585 168.157Z" fill="black"/>
</g>
<path d="M99.9655 171.561C99.9655 171.561 95.0393 172.082 87.4808 165.125C82.6561 160.686 74.6239 147.295 74.6239 147.295C72.7643 149.668 70.4442 151.64 67.8031 153.094C60.725 156.958 56.7056 157.831 56.7056 157.831C56.7056 157.831 60.8536 164.598 67.3903 167.467C83.1501 174.389 99.9655 171.561 99.9655 171.561Z" fill="#00A576"/>
<g opacity="0.2">
<path d="M93.449 172.136C92.3798 171.513 86.0461 169.016 81.5868 169.273C77.1275 169.531 76.0448 170.187 77.7974 170.722C80.2673 171.457 82.8161 171.895 85.3897 172.028C88.0715 172.225 90.7628 172.261 93.449 172.136Z" fill="white"/>
</g>
<g opacity="0.2">
<path d="M58.9385 159.347C61.7887 162.565 65.0835 165.361 68.7232 167.649C69.4946 168.11 70.3134 168.549 71.1592 168.962C73.9845 169.937 76.8831 170.683 79.8275 171.195C77.0463 170.458 73.4261 170.052 68.8653 166.682C66.5872 164.967 64.4218 163.106 62.3828 161.113C63.1271 160.714 63.1948 159.252 62.694 158.663C64.6431 157.993 66.5182 157.124 68.2901 156.072C69.9284 155.078 71.5097 153.994 73.0269 152.823C72.8884 153.092 72.8275 153.395 72.8509 153.696C72.9863 154.671 74.3328 155.354 75.2734 155.117C75.4595 155.09 75.6347 155.013 75.7801 154.894C75.9256 154.774 76.0358 154.618 76.099 154.441C78.5891 158.359 82.7372 164.591 85.1867 166.81C87.6479 168.963 90.4081 170.748 93.3813 172.109H93.4422C94.5316 172.075 95.391 171.987 96.2369 171.926C92.4884 170.527 89.0226 168.464 86.0055 165.836C82.5545 162.73 75.1787 150.557 75.084 150.435L74.6983 149.805L74.1366 150.279C72.079 151.98 69.9086 153.54 67.6405 154.948C65.0485 156.487 62.2307 157.608 59.2903 158.271L58.2212 158.474L58.9385 159.347Z" fill="white"/>
</g>
<path d="M226.132 45.435C226.132 45.435 230.997 41.4764 237.188 35.569C244.74 28.3692 260.398 14.0237 273.729 19.4506L289.015 37.7209C289.015 37.7209 281.572 36.1713 271.557 39.8727C262.686 43.1546 256.46 49.6777 253.652 52.6754C252.522 53.8867 251.04 55.5107 249.849 56.6543C247.819 58.576 245.552 61.2421 241.959 64.1383L226.132 45.435Z" fill="#00A576"/>
<g opacity="0.2">
<path d="M262.462 32.1248C264.229 36.3134 262.09 41.2058 257.685 43.0666C253.28 44.9275 248.279 43.0666 246.513 38.8577C244.747 34.6488 246.892 29.7767 251.297 27.9226C255.702 26.0685 260.703 27.9429 262.462 32.1248Z" fill="white"/>
</g>
<g opacity="0.2">
<path d="M272.592 19.5995L272.437 19.5521C272.044 19.4236 262.767 16.6424 249.666 26.6505C244.771 30.3978 240.188 34.5369 235.964 39.0269C233.257 41.8148 231.315 43.8245 228.96 45.0696L228.338 45.3944L242.25 62.6767L242.703 62.176C242.839 62.0339 255.811 47.756 262.05 43.3508C266.996 39.8592 276.591 34.2698 285.206 36.0698L286.911 36.4352L272.592 19.5995ZM261.407 42.4102C256.9 45.5839 249.227 53.5348 244.943 58.0821C244.284 57.4358 243.402 57.066 242.479 57.0484C241.555 57.0308 240.66 57.3667 239.976 57.9873L232.35 48.5139C232.725 48.2449 233.033 47.8943 233.252 47.4888C233.472 47.0832 233.596 46.6332 233.616 46.1726C233.637 45.2823 233.387 44.4067 232.898 43.6621C234.11 42.5929 235.348 41.3208 236.796 39.8253C240.977 35.3755 245.517 31.2768 250.37 27.5707C256.954 22.543 262.51 20.9325 266.008 20.4656C266.921 20.3401 267.841 20.2768 268.762 20.2762C269.251 21.219 270.015 21.9904 270.953 22.4873C271.891 22.9843 272.959 23.1831 274.013 23.0573L281.985 32.436C281.43 32.612 280.773 33.1127 280.956 34.5811C273.289 34.8856 265.67 39.399 261.407 42.4102Z" fill="white"/>
</g>
<path d="M32.1623 220.241C32.1623 220.241 37.0209 224.206 44.0583 229.071C52.6453 235.013 69.8599 247.443 67.2547 261.619L52.4626 280.282C52.4626 280.282 52.4626 272.649 46.8259 263.622C41.7914 255.577 34.145 250.766 30.6533 248.654C29.2391 247.795 27.3512 246.672 25.9843 245.738C23.7039 244.175 20.625 242.456 17.0657 239.526L32.1623 220.241Z" fill="#00A576"/>
<g opacity="0.2">
<path d="M52.5415 253.143C56.2814 250.568 57.1156 245.289 54.4048 241.352C51.6941 237.415 46.4648 236.311 42.725 238.887C38.9851 241.462 38.1509 246.741 40.8617 250.678C43.5724 254.614 48.8017 255.718 52.5415 253.143Z" fill="white"/>
</g>
<g opacity="0.2">
<path d="M66.8692 260.51V260.341C66.9166 259.935 67.7624 250.285 55.3048 239.485C50.646 235.45 45.6674 231.8 40.418 228.571C37.1428 226.493 34.7812 224.991 33.0896 222.934L32.6362 222.393L18.541 239.546L19.123 239.885C19.2921 239.986 35.9045 249.798 41.4533 255.015C45.872 259.156 53.2883 267.419 53.2748 276.222V277.907L66.8692 260.51ZM42.2653 254.169C38.2458 250.407 28.9077 244.486 23.5823 241.224C24.081 240.449 24.2648 239.512 24.0963 238.605C23.9278 237.699 23.4196 236.89 22.6755 236.346L30.3964 226.953C30.7356 227.266 31.1417 227.498 31.5837 227.63C32.0257 227.763 32.4921 227.793 32.9474 227.718C33.8237 227.564 34.6302 227.14 35.2549 226.507C36.5474 227.481 38.0496 228.435 39.8089 229.552C45.0131 232.753 49.9467 236.374 54.5605 240.379C60.8197 245.792 63.5264 250.921 64.7106 254.257C65.0174 255.126 65.2639 256.014 65.4482 256.917C64.6257 257.585 64.0265 258.489 63.7304 259.507C63.4342 260.525 63.4551 261.609 63.7903 262.614L56.198 272.304C55.9206 271.797 55.2845 271.255 53.8906 271.729C52.0365 264.286 46.0817 257.742 42.2653 254.169Z" fill="white"/>
</g>
<path d="M0 108.197C0 108.197 10.8268 95.5631 31.9797 103.697C32.7837 104.002 33.6154 104.229 34.4631 104.373C36.877 104.852 39.3749 104.674 41.6968 103.859C45.8245 102.201 51.6913 99.7991 51.6913 99.7991L69.8465 110.545C69.8465 110.545 62.2339 116.093 54.8649 116.56C47.4959 117.027 38.7871 110.978 30.3354 113.042C26.0378 113.973 22.1359 116.217 19.1702 119.463L0 108.197Z" fill="#00A576"/>
<g opacity="0.2">
<path d="M43.7674 110.978C42.9486 111.709 38.036 111.039 32.785 109.482C27.5339 107.926 23.9408 106.099 24.7596 105.334C25.5784 104.57 30.491 105.273 35.742 106.837C40.993 108.4 44.5794 110.247 43.7674 110.978Z" fill="white"/>
</g>
<g opacity="0.2">
<path d="M51.4275 101.105L51.2244 101.2C47.8185 102.868 44.2698 104.227 40.6209 105.26C38.0834 105.937 36.8992 105.7 34.7406 105.321L33.3873 105.091C32.1218 104.83 30.8759 104.482 29.6588 104.049C26.9521 103.169 23.5078 102.073 20.0974 101.965H20.0094C19.9146 101.965 10.5359 101.153 2.89624 107.29L2.44287 107.655L18.7508 117.528L18.9741 117.318C19.062 117.237 27.8115 109.334 39.6398 112.311C41.0405 112.663 42.3465 112.988 43.5645 113.333C53.1462 115.863 57.9506 117.136 67.5865 111.35L68.1684 110.998L51.4275 101.105ZM43.7675 112.534C42.5427 112.209 41.2367 111.858 39.836 111.512C31.7903 109.482 25.1251 112.324 21.4642 114.537C18.7575 113.116 16.8831 114.395 16.1929 115.018L6.6518 109.246C8.49235 107.642 7.41644 106.255 6.7939 105.679C10.8483 103.566 15.3871 102.556 19.9552 102.749C23.3048 102.844 26.6882 103.927 29.4287 104.779C30.6862 105.224 31.9726 105.581 33.279 105.849L34.6324 106.079C36.8248 106.464 38.1511 106.688 40.851 106.004C43.5899 105.259 46.2682 104.307 48.8629 103.155C49.5395 103.744 51.3463 104.861 54.0191 103.528L63.7497 109.279C63.0189 109.624 61.9295 110.524 63.6685 112.487C56.489 115.897 51.8808 114.679 43.7675 112.534Z" fill="white"/>
</g>
<path d="M247.663 278.685C247.663 278.685 246.384 262.127 267.145 252.972C267.937 252.626 268.694 252.204 269.405 251.713C271.443 250.348 273.079 248.463 274.142 246.252C275.894 242.192 278.351 236.305 278.351 236.305L298.793 231.108C298.793 231.108 297.318 240.412 292.425 245.941C287.533 251.469 277.092 253.33 272.558 260.76C270.171 264.451 268.988 268.792 269.175 273.184L247.663 278.685Z" fill="#00A576"/>
<g opacity="0.2">
<path d="M280.645 249.811C280.584 250.908 276.625 253.872 271.807 256.497C266.989 259.123 263.132 260.32 263.193 259.204C263.254 258.087 267.213 255.144 272.03 252.518C276.848 249.893 280.705 248.715 280.645 249.811Z" fill="white"/>
</g>
<g opacity="0.2">
<path d="M279.122 237.408L279.055 237.618C277.81 241.202 276.25 244.669 274.392 247.978C273.039 250.217 272.064 250.914 270.271 252.173C269.919 252.417 269.54 252.681 269.128 252.978C268.044 253.686 266.914 254.319 265.744 254.873C263.18 256.186 259.986 257.81 257.496 260.144L257.435 260.205C257.36 260.266 250.14 266.295 249.064 276.053L248.997 276.635L267.524 272.121V271.817C267.524 271.695 268.153 259.921 278.628 253.682C279.873 252.944 281.037 252.275 282.127 251.652C290.707 246.692 294.983 244.209 297.751 233.301L297.92 232.624L279.122 237.408ZM281.741 250.942C280.645 251.578 279.474 252.247 278.236 252.972C271.11 257.214 268.383 263.92 267.348 268.075C266.421 268.296 265.591 268.81 264.981 269.542C264.371 270.274 264.015 271.184 263.965 272.135L253.138 274.767C253.307 272.331 251.568 272.108 250.722 272.142C252.106 267.785 254.616 263.871 257.996 260.794C260.432 258.5 263.592 256.876 266.116 255.584C267.321 255.009 268.485 254.353 269.601 253.621C270.007 253.323 270.386 253.06 270.731 252.816C272.558 251.537 273.655 250.786 275.089 248.377C276.515 245.916 277.753 243.351 278.791 240.703C279.691 240.636 281.754 240.162 282.702 237.32L293.657 234.539C293.387 235.29 293.244 236.697 295.856 236.867C293.129 244.317 289.002 246.712 281.741 250.942Z" fill="white"/>
</g>
<path d="M277.958 114.801C277.958 114.801 273.357 98.8383 291.823 85.6431C292.532 85.1483 293.189 84.5838 293.786 83.9582C295.515 82.2109 296.742 80.0301 297.338 77.6448C298.231 73.287 299.449 67.0548 299.449 67.0548L318.396 57.8249C318.396 57.8249 318.829 67.2307 315.162 73.6388C311.494 80.047 301.628 83.9785 298.705 92.173C297.115 96.2731 296.839 100.766 297.913 105.03L277.958 114.801Z" fill="#00A576"/>
<g opacity="0.2">
<path d="M304.396 79.8237C304.558 80.9063 301.29 84.6416 297.095 88.1603C292.899 91.679 289.374 93.6549 289.211 92.5723C289.049 91.4896 292.324 87.7543 296.513 84.2356C300.701 80.7169 304.234 78.7342 304.396 79.8237Z" fill="white"/>
</g>
<g opacity="0.2">
<path d="M300.39 67.9683V68.1848C299.897 71.9449 299.073 75.654 297.927 79.2688C297.067 81.7387 296.242 82.6183 294.74 84.2085C294.442 84.5266 294.124 84.8852 293.779 85.2371C292.866 86.1489 291.892 86.9968 290.862 87.7746C288.609 89.5813 285.814 91.8347 283.852 94.609L283.798 94.6767C283.744 94.7512 277.897 102.154 278.811 111.891L278.865 112.473L296.093 104.306L296.046 104.001C296.046 103.886 294.252 92.2271 303.252 83.9988C304.315 83.0243 305.323 82.1311 306.263 81.2921C313.66 74.6945 317.368 71.3855 317.848 60.1595V59.4828L300.39 67.9683ZM305.695 80.6763C304.748 81.5221 303.739 82.4221 302.677 83.383C296.553 88.9791 295.234 96.1045 295.071 100.374C294.205 100.776 293.492 101.449 293.042 102.291C292.591 103.133 292.427 104.1 292.574 105.043L282.499 109.821C282.174 107.405 280.421 107.534 279.602 107.737C280.073 103.189 281.738 98.8473 284.427 95.1504C286.349 92.4437 289.117 90.1836 291.343 88.3836C292.409 87.5808 293.418 86.7034 294.361 85.7581C294.699 85.386 295.037 85.0814 295.301 84.7431C296.831 83.1259 297.751 82.1447 298.685 79.5124C299.567 76.8151 300.245 74.0556 300.715 71.257C301.588 71.0066 303.509 70.1269 303.861 67.1563L314.011 62.2098C313.903 63.0083 314.052 64.409 316.644 64.0504C315.514 71.9133 311.948 75.0937 305.695 80.6763Z" fill="white"/>
</g>
<path d="M81.7966 60.6534C77.4004 60.3016 73.1466 58.93 69.3729 56.6475C64.4264 53.5889 51.1973 43.317 47.1644 41.0366C42.6322 38.504 37.7398 36.6785 32.6564 35.6232L32.2437 11.6215C36.6911 12.2281 41.0561 13.3335 45.2561 14.9169C51.8064 17.4815 61.7129 29.1271 70.7939 32.1654C76.681 34.1548 88.2724 33.336 88.2724 33.336L81.7966 60.6534Z" fill="#00A576"/>
<g opacity="0.2">
<path d="M33.8338 34.6488L34.2668 34.7773C34.348 34.7773 42.2313 37.0577 46.3049 39.372C49.174 40.996 53.8701 44.332 58.4106 47.5598C61.8549 50.0093 65.1097 52.2965 67.4781 53.8325C75.0636 58.664 79.8004 58.5693 80.0034 58.5693H80.4567L86.4047 35.4608L85.5724 35.5082C85.4844 35.5082 76.8907 35.9886 72.2757 34.4999C66.1315 32.524 61.679 28.6602 57.3888 24.9182C54.31 22.2521 51.407 19.7281 47.9154 17.8266C44.8049 16.1303 41.5107 14.7954 38.0968 13.8478C36.7414 13.4561 35.3597 13.1621 33.9623 12.9681L33.2856 12.8869L33.8338 34.6488ZM71.9036 35.6638C74.6441 36.5435 78.5891 36.7735 81.5462 36.8074C81.3001 37.5158 81.3169 38.2892 81.5936 38.9863C82.2702 40.0419 83.3394 39.9607 84.192 39.1554L80.3349 54.1641L80.2402 54.0829C78.4402 52.7702 76.5252 55.0506 76.9516 56.8708L76.7959 56.8302C73.7223 55.9168 70.8028 54.5482 68.1345 52.7702C65.7864 51.2747 62.5451 48.974 59.1144 46.5312L57.937 45.6921C60.0211 45.929 62.288 44.738 63.4925 40.8336C64.609 37.2201 63.594 33.1736 62.0511 30.3316C64.9999 32.6499 68.3196 34.4528 71.8697 35.6638H71.9036ZM47.2861 18.8958C50.6695 20.7363 53.5115 23.2129 56.5362 25.8452C56.8272 26.0888 57.1114 26.3392 57.3956 26.5896C55.9661 26.6356 54.5906 27.1469 53.478 28.0457C52.3654 28.9446 51.5765 30.1819 51.2311 31.5699C50.5544 34.5879 50.3244 38.6885 52.5844 41.9839C50.365 40.4953 48.3823 39.1419 46.8733 38.3096C44.011 36.6856 39.484 35.1292 36.7908 34.2495C37.0818 34.0437 37.2798 33.7314 37.3418 33.3805C37.4039 33.0295 37.3251 32.6683 37.1224 32.3751C36.7435 31.6985 35.769 31.0218 35.0382 31.4887L34.9435 31.5631L34.5713 16.4462C35.8773 18.1446 37.684 16.5612 36.7232 14.7748C40.4052 15.6931 43.9549 17.0779 47.2861 18.8958Z" fill="white"/>
</g>
<path d="M183.792 283.584C179.397 283.232 175.145 281.858 171.375 279.572C166.422 276.52 153.193 266.248 149.16 263.968C144.63 261.436 139.74 259.61 134.659 258.554L134.239 234.552C138.687 235.154 143.053 236.26 147.251 237.848C153.802 240.412 163.708 252.024 172.796 255.096C178.676 257.079 190.268 256.267 190.268 256.267L183.792 283.584Z" fill="#00A576"/>
<g opacity="0.2">
<path d="M135.795 257.58L136.228 257.702C136.31 257.702 144.2 259.989 148.273 262.303C151.136 263.927 155.832 267.263 160.372 270.491C163.816 272.94 167.071 275.227 169.446 276.763C177.025 281.595 181.769 281.5 181.965 281.5H182.425L188.366 258.385L187.534 258.432C187.446 258.432 178.859 258.913 174.237 257.424C168.093 255.448 163.641 251.584 159.35 247.842C156.272 245.176 153.362 242.652 149.877 240.751C146.771 239.057 143.481 237.724 140.072 236.779C138.717 236.387 137.335 236.093 135.937 235.899L135.261 235.818L135.795 257.58ZM173.865 258.595C176.612 259.474 180.551 259.704 183.515 259.738C183.268 260.447 183.285 261.22 183.562 261.917C184.239 262.973 185.308 262.892 186.16 262.086L182.296 277.095L182.202 277.014C180.409 275.701 178.494 277.982 178.92 279.802L178.764 279.761C175.692 278.861 172.772 277.504 170.103 275.735C167.755 274.239 164.513 271.939 161.083 269.496L159.899 268.657C161.989 268.894 164.25 267.703 165.454 263.798C166.571 260.185 165.562 256.138 164.013 253.296C166.974 255.606 170.305 257.398 173.865 258.595ZM149.281 241.827C152.665 243.66 155.507 246.144 158.538 248.769C158.823 249.02 159.107 249.27 159.398 249.514C157.967 249.562 156.591 250.075 155.478 250.975C154.364 251.874 153.574 253.112 153.226 254.501C152.55 257.519 152.32 261.619 154.58 264.908C152.387 263.399 150.398 262.093 148.896 261.241C146.027 259.617 141.506 258.06 138.807 257.18C138.959 257.079 139.089 256.947 139.189 256.794C139.289 256.641 139.357 256.469 139.388 256.289C139.42 256.108 139.415 255.924 139.373 255.745C139.331 255.567 139.253 255.399 139.145 255.252C138.766 254.575 137.792 253.899 137.054 254.372L136.959 254.447L136.594 239.323C137.9 241.028 139.7 239.445 138.739 237.658C142.417 238.591 145.96 239.992 149.281 241.827Z" fill="white"/>
</g>
<path d="M135.085 87.4972C130.761 87.6054 122.817 87.4363 115.306 83.992C106.001 79.7222 101.975 73.5982 101.975 73.5982L99.9451 96.3955C105.358 109.158 126.87 110.037 136.898 110.274C134.246 99.2307 133.556 94.0406 135.085 87.4972Z" fill="#00A576"/>
<g opacity="0.2">
<path d="M131.678 101.711C133.32 97.6668 131.199 92.9863 126.94 91.2569C122.681 89.5275 117.897 91.4041 116.255 95.4484C114.612 99.4927 116.734 104.173 120.993 105.903C125.252 107.632 130.036 105.755 131.678 101.711Z" fill="white"/>
</g>
<g opacity="0.2">
<path d="M136.303 107.696C131.295 107.864 126.282 107.567 121.328 106.809C113.431 105.754 108.559 103.074 105.859 101.01C105.156 100.476 104.489 99.895 103.863 99.2713C104.171 98.2994 104.175 97.2568 103.876 96.2823C103.576 95.3079 102.986 94.448 102.185 93.8173L103.132 82.0229C103.626 82.28 104.418 82.3815 105.291 81.2582C110.704 86.2589 118.953 88.3701 123.899 89.2159C127.452 89.6961 131.034 89.9222 134.618 89.8926L134.828 88.6949C131.256 88.7402 127.686 88.5367 124.143 88.0859C118.405 87.0979 108.086 84.3845 103.45 77.3132L102.557 75.9598L100.859 97.0992L100.933 97.2413C101.109 97.5932 105.528 105.788 121.233 107.885C126.281 108.657 131.389 108.965 136.492 108.806L136.303 107.696Z" fill="white"/>
</g>
</svg>
