<svg width="26" height="28" viewBox="0 0 26 28" fill="none" xmlns="http://www.w3.org/2000/svg">
<path d="M13 18C8.77319 18 5.01436 20.0408 2.62129 23.208C2.10624 23.8896 1.84871 24.2304 1.85713 24.691C1.86364 25.0469 2.08711 25.4959 2.36712 25.7156C2.72955 26 3.23179 26 4.23627 26H21.7637C22.7681 26 23.2704 26 23.6328 25.7156C23.9128 25.4959 24.1363 25.0469 24.1428 24.691C24.1512 24.2304 23.8937 23.8896 23.3786 23.208C20.9856 20.0408 17.2267 18 13 18Z" stroke="#FFA200" stroke-width="3" stroke-linecap="round" stroke-linejoin="round"/>
<path d="M13 14C16.3137 14 19 11.3137 19 8C19 4.68629 16.3137 2 13 2C9.68626 2 6.99996 4.68629 6.99996 8C6.99996 11.3137 9.68626 14 13 14Z" stroke="#FFA200" stroke-width="3" stroke-linecap="round" stroke-linejoin="round"/>
</svg>
