<svg width="19" height="23" viewBox="0 0 19 23" fill="none" xmlns="http://www.w3.org/2000/svg">
<path d="M13.375 3.5C14.305 3.5 14.77 3.5 15.1515 3.60222C16.1867 3.87962 16.9954 4.68827 17.2728 5.72354C17.375 6.10504 17.375 6.57003 17.375 7.5V16.7C17.375 18.3802 17.375 19.2202 17.048 19.862C16.7604 20.4265 16.3015 20.8854 15.737 21.173C15.0952 21.5 14.2552 21.5 12.575 21.5H6.175C4.49484 21.5 3.65476 21.5 3.01303 21.173C2.44854 20.8854 1.9896 20.4265 1.70198 19.862C1.375 19.2202 1.375 18.3802 1.375 16.7V7.5C1.375 6.57003 1.375 6.10504 1.47722 5.72354C1.75462 4.68827 2.56327 3.87962 3.59854 3.60222C3.98004 3.5 4.44503 3.5 5.375 3.5M6.375 14.5L8.375 16.5L12.875 12M6.975 5.5H11.775C12.3351 5.5 12.6151 5.5 12.829 5.39101C13.0172 5.29513 13.1701 5.14215 13.266 4.95399C13.375 4.74008 13.375 4.46005 13.375 3.9V3.1C13.375 2.53995 13.375 2.25992 13.266 2.04601C13.1701 1.85785 13.0172 1.70487 12.829 1.60899C12.6151 1.5 12.3351 1.5 11.775 1.5H6.975C6.41495 1.5 6.13492 1.5 5.92101 1.60899C5.73285 1.70487 5.57987 1.85785 5.48399 2.04601C5.375 2.25992 5.375 2.53995 5.375 3.1V3.9C5.375 4.46005 5.375 4.74008 5.48399 4.95399C5.57987 5.14215 5.73285 5.29513 5.92101 5.39101C6.13492 5.5 6.41495 5.5 6.975 5.5Z" stroke="#667085" stroke-width="2" stroke-linecap="round" stroke-linejoin="round"/>
</svg>
