<svg width="32" height="32" viewBox="0 0 32 32" fill="none" xmlns="http://www.w3.org/2000/svg">
<path d="M2.66667 10.2691C2.66667 8.27958 4.27951 6.66675 6.26904 6.66675C7.30276 6.66675 8.22049 6.00528 8.54738 5.02461L8.66667 4.66675C8.72293 4.49799 8.75105 4.4136 8.78115 4.33875C9.1654 3.38291 10.0659 2.7339 11.0942 2.67163C11.1747 2.66675 11.2636 2.66675 11.4415 2.66675H20.5585C20.7364 2.66675 20.8253 2.66675 20.9059 2.67163C21.9342 2.7339 22.8346 3.38291 23.2189 4.33875C23.249 4.4136 23.2771 4.49799 23.3333 4.66675L23.4526 5.02461C23.7795 6.00528 24.6973 6.66675 25.731 6.66675C27.7205 6.66675 29.3333 8.27958 29.3333 10.2691V21.6001C29.3333 23.8403 29.3333 24.9604 28.8974 25.816C28.5139 26.5687 27.9019 27.1806 27.1493 27.5641C26.2937 28.0001 25.1735 28.0001 22.9333 28.0001H9.06667C6.82646 28.0001 5.70636 28.0001 4.85071 27.5641C4.09806 27.1806 3.48614 26.5687 3.10265 25.816C2.66667 24.9604 2.66667 23.8403 2.66667 21.6001V10.2691Z" stroke="#FFA200" stroke-width="3" stroke-linecap="round" stroke-linejoin="round"/>
<path d="M16 22.0001C19.3137 22.0001 22 19.3138 22 16.0001C22 12.6864 19.3137 10.0001 16 10.0001C12.6863 10.0001 10 12.6864 10 16.0001C10 19.3138 12.6863 22.0001 16 22.0001Z" stroke="#FFA200"  stroke-width="3" stroke-linecap="round" stroke-linejoin="round"/>
</svg>
