<svg width="87" height="78" viewBox="0 0 87 78" fill="none" xmlns="http://www.w3.org/2000/svg">
<path d="M35.8969 61.7378H33.2787V77.3272H35.8969V61.7378Z" fill="#A95373"/>
<path d="M86.8316 24.2136H71.1144V26.8066H86.8316V24.2136Z" fill="#A95373"/>
<path d="M39.6445 61.4165L42.3694 76.767L44.9481 76.3166L42.2193 60.9622L39.6445 61.4165Z" fill="#A95373"/>
<path d="M85.8102 15.2373L70.3318 17.9443L70.7864 20.5018L86.2649 17.7947L85.8102 15.2373Z" fill="#A95373"/>
<path d="M45.8484 59.9948L51.227 74.6481L53.6833 73.7629L48.3086 59.1135L45.8484 59.9948Z" fill="#A95373"/>
<path d="M69.3571 14.3389L81.8164 9.84613C80.9989 9.20376 80.1617 8.58096 79.3087 7.9895L68.4607 11.9064L69.3571 14.3428V14.3389Z" fill="#A95373"/>
<path d="M53.979 56.236L51.715 57.5325L59.5755 71.0367L61.8396 69.7402L53.979 56.236Z" fill="#A95373"/>
<path d="M2.29829 42.5017L0.450139 43.5593C0.339565 44.5934 0.260584 45.6392 0.213196 46.6928L3.60543 44.75L2.29434 42.5056L2.29829 42.5017Z" fill="#A95373"/>
<path d="M66.8732 8.5222L73.6971 4.617C72.7612 4.13522 71.8095 3.68085 70.838 3.25391L65.566 6.27387L66.8732 8.5222Z" fill="#A95373"/>
<path d="M57.0597 54.0959L67.1692 66.0425L69.1714 64.37L59.0658 52.4312L57.0597 54.0959Z" fill="#A95373"/>
<path d="M5.76166 47.8091L0.157959 52.4702V55.8584L7.4479 49.7911L5.76166 47.8091Z" fill="#A95373"/>
<path d="M63.4099 3.21868L65.6964 1.31896C64.6934 1.00561 63.6705 0.723585 62.6438 0.4729L61.7316 1.23279L63.4139 3.21868H63.4099Z" fill="#A95373"/>
<path d="M61.7236 49.7911L73.7682 59.8145L75.4505 57.8247L63.4099 47.8091L61.7236 49.7911Z" fill="#A95373"/>
<path d="M0 64.3699L0.157962 64.4992V64.1819L0 64.3699Z" fill="#A95373"/>
<path d="M12.1117 54.0958L10.1056 52.4351L0.157959 64.182V64.4993L2.01006 66.0425L12.1117 54.0958Z" fill="#A95373"/>
<path d="M65.566 44.7461L79.1824 52.5487L80.4855 50.2964L66.8732 42.5056L65.566 44.7461Z" fill="#A95373"/>
<path d="M15.1881 56.2422L7.32947 69.7361L9.60017 71.0365L17.4588 57.5309L15.1881 56.2422Z" fill="#A95373"/>
<path d="M68.4607 39.1175L83.2341 44.4563L84.1305 42.0121L69.3571 36.6851L68.4607 39.1175Z" fill="#A95373"/>
<path d="M15.4842 73.759L17.9523 74.6481L23.3231 59.9948L20.8667 59.1174L15.4842 73.759Z" fill="#A95373"/>
<path d="M70.3286 33.0775L85.8128 35.788L86.2669 33.2264L70.7866 30.5315L70.3286 33.0775Z" fill="#A95373"/>
<path d="M24.2235 76.3166L26.8062 76.767L29.531 61.4126L26.9563 60.97L24.2235 76.3166Z" fill="#A95373"/>
</svg>
