<svg width="25" height="25" viewBox="0 0 25 25" fill="none" xmlns="http://www.w3.org/2000/svg">
<path d="M16.375 4.5C17.305 4.5 17.77 4.5 18.1515 4.60222C19.1867 4.87962 19.9954 5.68827 20.2728 6.72354C20.375 7.10504 20.375 7.57003 20.375 8.5V17.7C20.375 19.3802 20.375 20.2202 20.048 20.862C19.7604 21.4265 19.3015 21.8854 18.737 22.173C18.0952 22.5 17.2552 22.5 15.575 22.5H9.175C7.49484 22.5 6.65476 22.5 6.01303 22.173C5.44854 21.8854 4.9896 21.4265 4.70198 20.862C4.375 20.2202 4.375 19.3802 4.375 17.7V8.5C4.375 7.57003 4.375 7.10504 4.47722 6.72354C4.75462 5.68827 5.56327 4.87962 6.59854 4.60222C6.98004 4.5 7.44503 4.5 8.375 4.5M9.375 15.5L11.375 17.5L15.875 13M9.975 6.5H14.775C15.3351 6.5 15.6151 6.5 15.829 6.39101C16.0172 6.29513 16.1701 6.14215 16.266 5.95399C16.375 5.74008 16.375 5.46005 16.375 4.9V4.1C16.375 3.53995 16.375 3.25992 16.266 3.04601C16.1701 2.85785 16.0172 2.70487 15.829 2.60899C15.6151 2.5 15.3351 2.5 14.775 2.5H9.975C9.41495 2.5 9.13492 2.5 8.92101 2.60899C8.73285 2.70487 8.57987 2.85785 8.48399 3.04601C8.375 3.25992 8.375 3.53995 8.375 4.1V4.9C8.375 5.46005 8.375 5.74008 8.48399 5.95399C8.57987 6.14215 8.73285 6.29513 8.92101 6.39101C9.13492 6.5 9.41495 6.5 9.975 6.5Z" stroke="#667085" style="stroke:#667085;stroke:color(display-p3 0.4000 0.4392 0.5216);stroke-opacity:1;" stroke-width="2" stroke-linecap="round" stroke-linejoin="round"/>
</svg>
