<svg width="32" height="32" viewBox="0 0 32 32" fill="none" xmlns="http://www.w3.org/2000/svg">
<mask id="mask0_380_741" maskUnits="userSpaceOnUse" x="0" y="0" width="32" height="32">
<rect width="32" height="32" fill="#FE604F"/>
</mask>
<g mask="url(#mask0_380_741)">
<path d="M15.9998 29.3333C14.1553 29.3333 12.422 28.9833 10.7998 28.2833C9.17757 27.5833 7.76646 26.6333 6.56646 25.4333C5.36646 24.2333 4.41646 22.8222 3.71646 21.2C3.01646 19.5778 2.66646 17.8444 2.66646 16C2.66646 13.4667 3.32757 11.1278 4.64979 8.98333C5.97201 6.83889 7.76646 5.2 10.0331 4.06667C10.0553 4.48889 10.0998 4.91667 10.1665 5.35C10.2331 5.78333 10.3442 6.28889 10.4998 6.86667C8.89979 7.84445 7.63868 9.13889 6.71646 10.75C5.79424 12.3611 5.33312 14.1111 5.33312 16C5.33312 18.9778 6.36646 21.5 8.43313 23.5667C10.4998 25.6333 13.022 26.6667 15.9998 26.6667C18.9776 26.6667 21.4998 25.6333 23.5665 23.5667C25.6331 21.5 26.6665 18.9778 26.6665 16C26.6665 14.1111 26.2053 12.3556 25.2831 10.7333C24.3609 9.11111 23.0887 7.81111 21.4665 6.83333C21.622 6.25556 21.7331 5.75 21.7998 5.31667C21.8665 4.88333 21.922 4.46667 21.9665 4.06667C24.2331 5.2 26.0276 6.83333 27.3498 8.96667C28.672 11.1 29.3331 13.4444 29.3331 16C29.3331 17.8444 28.9831 19.5778 28.2831 21.2C27.5831 22.8222 26.6331 24.2333 25.4331 25.4333C24.2331 26.6333 22.822 27.5833 21.1998 28.2833C19.5776 28.9833 17.8442 29.3333 15.9998 29.3333ZM15.9998 24C13.7776 24 11.8887 23.2222 10.3331 21.6667C8.77757 20.1111 7.99979 18.2222 7.99979 16C7.99979 14.7111 8.28312 13.5 8.84979 12.3667C9.41646 11.2333 10.222 10.2889 11.2665 9.53333C11.3776 9.86667 11.4998 10.25 11.6331 10.6833C11.7665 11.1167 11.9442 11.6556 12.1665 12.3C11.6776 12.8111 11.3053 13.3778 11.0498 14C10.7942 14.6222 10.6665 15.2889 10.6665 16C10.6665 17.4667 11.1887 18.7222 12.2331 19.7667C13.2776 20.8111 14.5331 21.3333 15.9998 21.3333C17.4665 21.3333 18.722 20.8111 19.7665 19.7667C20.8109 18.7222 21.3331 17.4667 21.3331 16C21.3331 15.2889 21.2053 14.6222 20.9498 14C20.6942 13.3778 20.322 12.8111 19.8331 12.3C20.0109 11.7667 20.172 11.2722 20.3165 10.8167C20.4609 10.3611 20.5887 9.93333 20.6998 9.53333C21.7442 10.2889 22.5553 11.2333 23.1331 12.3667C23.7109 13.5 23.9998 14.7111 23.9998 16C23.9998 18.2222 23.222 20.1111 21.6665 21.6667C20.1109 23.2222 18.222 24 15.9998 24ZM14.6665 11.3333C13.8442 8.84445 13.3053 7.09445 13.0498 6.08333C12.7942 5.07222 12.6665 4.15556 12.6665 3.33333C12.6665 2.4 12.9887 1.61111 13.6331 0.966667C14.2776 0.322222 15.0665 0 15.9998 0C16.9331 0 17.722 0.322222 18.3665 0.966667C19.0109 1.61111 19.3331 2.4 19.3331 3.33333C19.3331 4.15556 19.2053 5.07222 18.9498 6.08333C18.6942 7.09445 18.1553 8.84445 17.3331 11.3333H14.6665ZM15.9998 18.6667C15.2665 18.6667 14.6387 18.4056 14.1165 17.8833C13.5942 17.3611 13.3331 16.7333 13.3331 16C13.3331 15.2667 13.5942 14.6389 14.1165 14.1167C14.6387 13.5944 15.2665 13.3333 15.9998 13.3333C16.7331 13.3333 17.3609 13.5944 17.8831 14.1167C18.4053 14.6389 18.6665 15.2667 18.6665 16C18.6665 16.7333 18.4053 17.3611 17.8831 17.8833C17.3609 18.4056 16.7331 18.6667 15.9998 18.6667Z" fill="#FF7C6E"/>
</g>
</svg>
