<svg width="361" height="360" viewBox="0 0 361 360" fill="none" xmlns="http://www.w3.org/2000/svg">
<rect width="361" height="360" rx="4" fill="#B0E3D5" style="fill:#B0E3D5;fill:color(display-p3 0.6902 0.8902 0.8353);fill-opacity:1;"/>
<path d="M334.046 331.543C334.046 331.638 270.174 331.719 191.409 331.719C112.644 331.719 48.759 331.638 48.759 331.543C48.759 331.449 112.617 331.367 191.409 331.367C270.201 331.367 334.046 331.449 334.046 331.543Z" fill="#263238" style="fill:#263238;fill:color(display-p3 0.1490 0.1961 0.2196);fill-opacity:1;"/>
<path d="M320.817 187.175L321.243 187.885C321.728 188.685 322.432 189.329 323.273 189.739L324.017 190.105L323.307 190.531C322.507 191.016 321.863 191.72 321.453 192.561L321.087 193.305L320.661 192.629C320.176 191.828 319.472 191.185 318.631 190.774L317.887 190.409L318.597 189.983C319.397 189.498 320.041 188.793 320.451 187.953L320.817 187.175Z" fill="#54C3A3" style="fill:#54C3A3;fill:color(display-p3 0.3294 0.7647 0.6392);fill-opacity:1;"/>
<path d="M114.572 319.438L114.985 320.114C115.45 320.888 116.126 321.512 116.934 321.914L117.658 322.266L116.981 322.679C116.21 323.147 115.587 323.825 115.188 324.635L114.83 325.352L114.417 324.675C113.951 323.904 113.275 323.282 112.468 322.882L111.744 322.523L112.421 322.111C113.192 321.643 113.815 320.967 114.221 320.162L114.572 319.438Z" fill="#54C3A3" style="fill:#54C3A3;fill:color(display-p3 0.3294 0.7647 0.6392);fill-opacity:1;"/>
<path d="M73.0719 94.0977L73.8163 95.336C74.6524 96.7247 75.8688 97.8447 77.3215 98.5638L78.6139 99.2405L77.3824 99.9848C75.9908 100.817 74.8698 102.035 74.1546 103.49L73.4779 104.782L72.7336 103.544C71.9154 102.141 70.7102 101.004 69.2622 100.269L67.9698 99.5923L69.2081 98.848C70.5948 98.0125 71.7145 96.7989 72.4359 95.3496L73.0719 94.0977Z" fill="#54C3A3" style="fill:#54C3A3;fill:color(display-p3 0.3294 0.7647 0.6392);fill-opacity:1;"/>
<path d="M222.529 50.7837L223.274 52.022C224.108 53.4121 225.325 54.5326 226.779 55.2498L228.071 55.9264L226.833 56.6708C225.443 57.5051 224.322 58.722 223.605 60.176L222.969 61.4684L222.225 60.2301C221.393 58.8279 220.177 57.6937 218.72 56.9617L217.421 56.2851L218.659 55.5407C220.049 54.7064 221.169 53.4895 221.887 52.0355L222.529 50.7837Z" fill="#54C3A3" style="fill:#54C3A3;fill:color(display-p3 0.3294 0.7647 0.6392);fill-opacity:1;"/>
<path d="M335.534 159.431L335.825 159.911C336.147 160.455 336.616 160.896 337.179 161.183L337.686 161.434L337.199 161.732C336.655 162.053 336.213 162.522 335.927 163.085L335.676 163.599L335.385 163.112C335.064 162.568 334.594 162.127 334.032 161.84L333.525 161.589L334.012 161.298C334.554 160.975 334.994 160.506 335.284 159.945L335.534 159.431Z" fill="#54C3A3" style="fill:#54C3A3;fill:color(display-p3 0.3294 0.7647 0.6392);fill-opacity:1;"/>
<path d="M86.3077 156.616L86.6122 157.117C86.948 157.683 87.4419 158.139 88.0332 158.429L88.561 158.686L88.0535 158.991C87.4914 159.33 87.0382 159.823 86.7475 160.412L86.4836 160.94L86.1859 160.432C85.8467 159.87 85.3535 159.417 84.7649 159.126L84.2371 158.869L84.7378 158.565C85.3044 158.229 85.7606 157.735 86.0506 157.144L86.3077 156.616Z" fill="#54C3A3" style="fill:#54C3A3;fill:color(display-p3 0.3294 0.7647 0.6392);fill-opacity:1;"/>
<path d="M137.884 68.6412L138.188 69.1419C138.529 69.7044 139.022 70.1594 139.61 70.4547L140.131 70.7118L139.63 71.0163C139.068 71.3555 138.615 71.8487 138.324 72.4373L138.06 72.9584L137.762 72.4576C137.418 71.9026 136.922 71.4567 136.334 71.1719L135.813 70.908L136.314 70.6103C136.883 70.2558 137.338 69.7464 137.627 69.1419L137.884 68.6412Z" fill="#54C3A3" style="fill:#54C3A3;fill:color(display-p3 0.3294 0.7647 0.6392);fill-opacity:1;"/>
<path d="M255.274 225.001C255.274 225.725 259.638 244.99 259.638 244.99C259.638 244.99 268.726 238.812 272.177 235.902C275.628 232.992 292.349 217.551 292.349 217.551L302.377 226.807C302.377 226.807 269.22 271.908 257.48 274.621C251.45 276.009 244.765 271.455 243.466 268.234C240.536 261.047 236.063 230.421 236.063 230.421L242.566 227.545L255.274 225.001Z" fill="#BA7E6D" style="fill:#BA7E6D;fill:color(display-p3 0.7294 0.4941 0.4275);fill-opacity:1;"/>
<path d="M260.024 245.03C259.32 245.144 258.629 245.326 257.96 245.572C256.395 246.282 255.079 247.447 254.184 248.914C253.315 250.407 252.657 252.012 252.229 253.685C252.067 254.39 251.854 255.082 251.593 255.756C251.652 255.032 251.781 254.316 251.978 253.617C252.341 251.893 252.981 250.238 253.873 248.718C254.804 247.189 256.204 246.002 257.865 245.335C258.369 245.146 258.898 245.035 259.435 245.003C259.631 244.976 259.831 244.985 260.024 245.03Z" fill="#875149" style="fill:#875149;fill:color(display-p3 0.5294 0.3176 0.2863);fill-opacity:1;"/>
<path d="M289.696 220C289.696 220 298.831 209.769 302.519 210.06C306.207 210.351 311.505 211.149 312.981 210.899C314.844 210.769 316.714 210.769 318.577 210.899C318.577 210.899 328.152 205.715 329.918 206.121C329.918 206.121 331.562 206.033 332.131 206.967C332.131 206.967 335.771 204.66 338.397 206.094L328.855 214.045L331.765 213.68C331.765 213.68 340.339 209.146 343.052 212.266L336.576 215.744C336.576 215.744 341.956 215.663 342.768 217.848L330.716 219.784C330.716 219.784 307.818 221.699 306.606 222.226C305.395 222.754 300.55 228.993 300.55 228.993L289.696 220Z" fill="#BA7E6D" style="fill:#BA7E6D;fill:color(display-p3 0.7294 0.4941 0.4275);fill-opacity:1;"/>
<path d="M332.259 207.015C332.091 207.225 331.898 207.414 331.684 207.576C331.298 207.915 330.73 208.395 329.999 208.93C328.102 210.4 326.11 211.745 324.038 212.956C322.88 213.633 321.784 214.248 320.715 214.742C319.761 215.251 318.657 215.4 317.602 215.162L317.772 215.067C317.642 215.469 317.42 215.835 317.124 216.135C316.828 216.436 316.466 216.664 316.066 216.799C315.848 216.874 315.62 216.915 315.39 216.921C315.234 216.921 315.16 216.921 315.16 216.921C315.444 216.86 315.724 216.78 315.999 216.684C316.355 216.534 316.674 216.307 316.932 216.019C317.191 215.731 317.382 215.39 317.494 215.02L317.535 214.884L317.663 214.925C318.654 215.114 319.679 214.949 320.559 214.458C321.588 213.964 322.698 213.328 323.835 212.665C326.25 211.257 328.341 209.823 329.83 208.747L331.582 207.461C331.79 207.287 332.017 207.137 332.259 207.015Z" fill="#875149" style="fill:#875149;fill:color(display-p3 0.5294 0.3176 0.2863);fill-opacity:1;"/>
<path d="M328.855 214.228C328.493 214.634 328.06 214.971 327.577 215.223C326.457 215.905 325.224 216.382 323.936 216.63C323.178 216.779 322.447 216.806 321.818 216.921C321.262 217.029 320.726 217.221 320.228 217.49C319.765 217.79 319.223 217.946 318.672 217.936C319.164 217.742 319.643 217.516 320.106 217.26C320.615 216.943 321.173 216.714 321.757 216.583C322.434 216.441 323.111 216.407 323.862 216.258C325.625 215.855 327.311 215.169 328.855 214.228Z" fill="#875149" style="fill:#875149;fill:color(display-p3 0.5294 0.3176 0.2863);fill-opacity:1;"/>
<path d="M337.077 215.06C336.697 215.458 336.259 215.795 335.778 216.062C333.521 217.468 330.931 218.25 328.274 218.329C327.725 218.374 327.173 218.335 326.636 218.214C328.465 218.103 330.278 217.81 332.049 217.341C334.993 216.475 337.009 214.952 337.077 215.06Z" fill="#875149" style="fill:#875149;fill:color(display-p3 0.5294 0.3176 0.2863);fill-opacity:1;"/>
<path d="M152.71 279.588C142.824 294.976 131.347 314.227 124.357 331.57H243.452L229.242 279.588H152.71Z" fill="#263238" style="fill:#263238;fill:color(display-p3 0.1490 0.1961 0.2196);fill-opacity:1;"/>
<path d="M78.9658 223.295C78.9658 223.295 87.3768 235.631 90.2324 238.859C93.088 242.087 105.119 259.342 111.379 266.251C117.638 273.16 124.465 276.963 128.884 276.963C133.418 276.963 138.006 275.413 141.606 266.961C146.803 254.781 151.181 218.917 151.181 218.917L130.88 211.474L123.505 248.61C121.522 246.634 90.2392 217.483 90.2392 217.483L83.0664 220.46L78.9658 223.295Z" fill="#BA7E6D" style="fill:#BA7E6D;fill:color(display-p3 0.7294 0.4941 0.4275);fill-opacity:1;"/>
<path d="M52.8731 208.097C52.8731 208.097 53.3535 207.238 56.0264 207.624C58.6993 208.009 63.3887 210.777 64.4375 210.777C65.4864 210.777 77.2402 211.156 79.5341 211.731C81.8281 212.306 85.3942 212.651 87.4919 214.844L90.8752 217.862L79.5274 224.101C79.1032 223.535 78.5567 223.073 77.9286 222.748C77.3005 222.424 76.6071 222.245 75.9004 222.226C73.3223 222.071 61.4804 221.475 61.4804 221.475L52.3047 219.364L40.6456 213.727C40.9105 213.092 41.3911 212.571 42.0025 212.255C42.614 211.94 43.3172 211.85 43.9884 212.002C46.377 212.577 50.8701 214.201 50.8701 214.201L54.7881 215.399L44.4688 210.472C45.1368 209.79 45.9851 209.311 46.9147 209.092C47.8443 208.873 48.8171 208.922 49.7198 209.234C52.9678 210.283 58.5166 212.766 58.5166 212.766L59.2812 212.482L52.8731 208.097Z" fill="#BA7E6D" style="fill:#BA7E6D;fill:color(display-p3 0.7294 0.4941 0.4275);fill-opacity:1;"/>
<path d="M65.7705 214.884C64.5779 214.977 63.3806 214.782 62.2789 214.316C61.1362 213.956 60.0965 213.327 59.2474 212.482C59.3083 212.394 60.6007 213.335 62.3939 213.991C64.1871 214.648 65.7773 214.783 65.7705 214.884Z" fill="#875149" style="fill:#875149;fill:color(display-p3 0.5294 0.3176 0.2863);fill-opacity:1;"/>
<path d="M63.612 217.841C63.1142 217.963 62.5998 218.002 62.0895 217.957C59.607 217.896 57.1899 217.149 55.1062 215.798C54.6601 215.544 54.256 215.222 53.9084 214.844C55.3738 215.735 56.9299 216.468 58.5504 217.029C60.2039 217.48 61.9007 217.752 63.612 217.841Z" fill="#875149" style="fill:#875149;fill:color(display-p3 0.5294 0.3176 0.2863);fill-opacity:1;"/>
<path d="M43.156 214.966C42.7519 215.159 42.4134 215.466 42.1824 215.85C41.9515 216.234 41.8382 216.677 41.8568 217.124C45.7322 218.392 49.7135 219.309 53.7528 219.865" fill="#875149" style="fill:#875149;fill:color(display-p3 0.5294 0.3176 0.2863);fill-opacity:1;"/>
<path d="M130.664 264.275C130.589 264.275 130.731 263.246 130.623 261.568C130.56 260.606 130.417 259.651 130.197 258.713C129.916 257.568 129.531 256.451 129.047 255.377C128.547 254.308 127.949 253.289 127.26 252.332C126.692 251.552 126.061 250.821 125.372 250.146C124.188 248.996 123.342 248.434 123.342 248.38C123.567 248.473 123.779 248.596 123.971 248.745C124.21 248.894 124.436 249.062 124.648 249.246C124.905 249.456 125.217 249.679 125.514 249.97C126.238 250.632 126.899 251.359 127.49 252.142C128.943 254.069 129.963 256.288 130.481 258.645C130.689 259.604 130.809 260.58 130.84 261.562C130.86 261.936 130.86 262.311 130.84 262.685C130.836 262.968 130.811 263.251 130.765 263.531C130.762 263.782 130.728 264.032 130.664 264.275Z" fill="#875149" style="fill:#875149;fill:color(display-p3 0.5294 0.3176 0.2863);fill-opacity:1;"/>
<path d="M150.071 175.509C147.263 177.241 140.773 182.499 134.061 196.709C125.122 215.608 122.801 227.403 122.801 227.403L146.559 235.888L153.759 173.729C153.759 173.729 150.998 174.94 150.071 175.509Z" fill="#455A64" style="fill:#455A64;fill:color(display-p3 0.2706 0.3529 0.3922);fill-opacity:1;"/>
<path d="M144.915 195.308C144.915 195.308 145.476 215.365 145.476 220.812C145.476 226.259 147.912 267.225 147.912 267.225C147.912 267.225 147.912 280.705 156.283 280.495C164.653 280.285 178.965 281.909 184.629 281.909C188.804 281.909 212.535 282.187 225.026 281.07C230.947 280.542 233.228 277.653 235.055 272.95C235.298 272.314 235.149 272.686 235.298 272.314C238.878 263.517 236.11 225.874 236.11 225.874L231.678 191.844L221.582 171.767L164.396 171.584C146.065 172.843 146.065 180.367 144.915 195.308Z" fill="#455A64" style="fill:#455A64;fill:color(display-p3 0.2706 0.3529 0.3922);fill-opacity:1;"/>
<path d="M245.489 188.237C236.07 172.606 221.582 171.794 221.582 171.794L230.135 242.283L236.902 240.402C237.403 240.233 262.277 230.313 262.277 230.313C262.277 230.313 251.281 197.832 245.489 188.237Z" fill="#455A64" style="fill:#455A64;fill:color(display-p3 0.2706 0.3529 0.3922);fill-opacity:1;"/>
<path d="M228.707 193.271C228.707 193.271 228.741 193.312 228.795 193.407C228.85 193.501 228.924 193.657 229.005 193.826C229.181 194.192 229.465 194.733 229.783 195.45C230.46 196.871 231.299 198.976 232.199 201.628C234.473 208.571 235.94 215.753 236.57 223.032C237.198 230.299 237.424 237.596 237.247 244.888C237.2 247.683 237.132 249.943 237.078 251.506C237.078 252.264 237.024 252.859 237.01 253.306C237.01 253.496 237.01 253.651 237.01 253.78C237.017 253.831 237.017 253.884 237.01 253.935C237.004 253.881 237.004 253.827 237.01 253.773V253.306C237.01 252.866 237.01 252.264 237.01 251.506C237.01 249.909 237.01 247.656 237.064 244.881C237.175 237.601 236.92 230.32 236.3 223.065C235.668 215.81 234.241 208.646 232.043 201.703C231.177 199.05 230.352 196.966 229.736 195.504C229.445 194.78 229.181 194.232 229.059 193.853L228.877 193.42C228.815 193.377 228.759 193.327 228.707 193.271Z" fill="#263238" style="fill:#263238;fill:color(display-p3 0.1490 0.1961 0.2196);fill-opacity:1;"/>
<g opacity="0.3">
<path d="M187.112 239.827C190.121 236.813 193.791 234.542 197.831 233.195C203.176 231.47 219.011 228.168 223.213 226.625C227.846 224.916 232.067 222.25 235.603 218.802L254.191 234.068C250.963 236.963 247.417 239.483 243.621 241.579C237.64 244.793 222.895 244.807 214.957 249.571C209.815 252.656 203.156 261.69 203.156 261.69L187.112 239.827Z" fill="black" style="fill:black;fill-opacity:1;"/>
</g>
<g opacity="0.3">
<path d="M212.697 322.435C208.452 322.095 204.344 320.769 200.7 318.565C195.916 315.614 183.147 305.708 179.249 303.495C174.874 301.044 170.151 299.275 165.242 298.251L164.843 275.075C169.138 275.656 173.354 276.723 177.409 278.255C183.736 280.732 193.297 291.951 202.073 294.915C207.751 296.83 218.95 296.045 218.95 296.045L212.697 322.435Z" fill="black" style="fill:black;fill-opacity:1;"/>
</g>
<g opacity="0.3">
<path d="M129.588 206.209C134.325 207.806 140.32 205.093 143.358 201.121C146.397 197.149 149.367 192.06 150.091 187.114C146.62 187.114 141.903 187.371 138.432 187.364L129.588 206.209Z" fill="black" style="fill:black;fill-opacity:1;"/>
</g>
<path d="M146.065 211.663C146.096 211.847 146.11 212.032 146.106 212.218L146.166 213.815C146.207 215.236 146.261 217.239 146.329 219.696C146.464 224.683 146.647 231.524 146.843 239.082C147.039 246.641 147.303 253.502 147.52 258.462C147.642 260.919 147.736 262.915 147.804 264.336C147.804 265.013 147.858 265.534 147.878 265.933C147.889 266.118 147.889 266.303 147.878 266.488C147.835 266.306 147.81 266.12 147.804 265.933C147.763 265.54 147.716 265.006 147.662 264.343C147.533 262.989 147.412 260.959 147.263 258.476C146.978 253.516 146.701 246.661 146.478 239.089C146.254 231.517 146.133 224.662 146.065 219.696C146.065 217.239 146.031 215.243 146.018 213.815C146.018 213.139 146.018 212.618 146.018 212.218C146.017 212.032 146.033 211.847 146.065 211.663Z" fill="#263238" style="fill:#263238;fill:color(display-p3 0.1490 0.1961 0.2196);fill-opacity:1;"/>
<g opacity="0.3">
<path d="M146.687 253.604C140.503 239.664 141.423 224.101 146.065 209.552C146.742 223.729 147.053 239.414 146.708 253.604" fill="black" style="fill:black;fill-opacity:1;"/>
</g>
<path d="M220.499 104.796C219.715 102.27 218.436 99.9244 216.738 97.8962C215.04 95.868 212.955 94.1974 210.606 92.9812C205.443 90.3489 199.285 90.1256 193.635 91.4248C187.985 92.7241 182.768 95.4511 177.835 98.4961C175.067 100.201 172.313 102.069 170.391 104.674C166.832 109.411 163.401 117.159 163.212 123.093C163.063 127.891 165.242 139.827 167.387 144.118C168.152 145.647 169.945 146.993 172.124 148.13C174.434 152.381 177.484 156.185 181.13 159.363C182.145 156.115 183.163 152.867 184.182 149.619L220.499 104.796Z" fill="#263238" style="fill:#263238;fill:color(display-p3 0.1490 0.1961 0.2196);fill-opacity:1;"/>
<path d="M217.535 98.9698L208.062 97.5488C213.57 109.688 215.776 137.75 219.099 150.661C222.435 145.512 230.074 129.907 229.465 123.804C228.856 117.7 228.721 97.6029 217.535 98.9698Z" fill="#263238" style="fill:#263238;fill:color(display-p3 0.1490 0.1961 0.2196);fill-opacity:1;"/>
<path d="M173.369 120.698C173.673 113.505 178.153 107.482 185.075 105.506L206.655 99.3419C216.02 98.0563 222.617 109.438 223.504 118.844C224.485 129.298 225.223 140.342 224.221 148.198C222.191 163.992 210.227 166.367 210.227 166.367C210.227 166.367 210.437 173.81 210.559 178.432L197.756 205.154L177.869 173.133L173.342 120.894C173.301 120.623 173.355 121.056 173.369 120.698Z" fill="#BA7E6D" style="fill:#BA7E6D;fill:color(display-p3 0.7294 0.4941 0.4275);fill-opacity:1;"/>
<path d="M217.488 130.388C217.507 130.913 217.322 131.425 216.971 131.816C216.62 132.207 216.131 132.447 215.607 132.486C215.351 132.514 215.092 132.49 214.845 132.417C214.598 132.344 214.369 132.222 214.17 132.059C213.97 131.895 213.806 131.694 213.685 131.466C213.565 131.239 213.491 130.989 213.469 130.733C213.45 130.208 213.635 129.696 213.986 129.305C214.337 128.913 214.826 128.673 215.35 128.635C215.606 128.607 215.865 128.631 216.111 128.704C216.358 128.777 216.588 128.899 216.787 129.062C216.986 129.226 217.151 129.427 217.271 129.654C217.392 129.882 217.465 130.131 217.488 130.388Z" fill="#263238" style="fill:#263238;fill:color(display-p3 0.1490 0.1961 0.2196);fill-opacity:1;"/>
<path d="M221.318 125.069C221.081 125.34 219.518 124.257 217.346 124.332C215.174 124.406 213.624 125.536 213.381 125.279C213.259 125.164 213.502 124.683 214.179 124.156C215.097 123.476 216.204 123.098 217.346 123.073C218.473 123.033 219.583 123.355 220.513 123.993C221.176 124.48 221.44 124.947 221.318 125.069Z" fill="#263238" style="fill:#263238;fill:color(display-p3 0.1490 0.1961 0.2196);fill-opacity:1;"/>
<path d="M198.758 130.395C198.775 130.919 198.589 131.429 198.238 131.819C197.887 132.208 197.399 132.447 196.877 132.486C196.621 132.514 196.362 132.49 196.115 132.417C195.868 132.344 195.638 132.222 195.439 132.059C195.24 131.895 195.075 131.694 194.955 131.466C194.835 131.239 194.761 130.989 194.738 130.733C194.719 130.208 194.905 129.696 195.256 129.305C195.606 128.913 196.095 128.673 196.619 128.635C196.876 128.607 197.135 128.631 197.383 128.705C197.63 128.778 197.86 128.901 198.059 129.065C198.258 129.229 198.423 129.431 198.543 129.659C198.663 129.887 198.736 130.138 198.758 130.395Z" fill="#263238" style="fill:#263238;fill:color(display-p3 0.1490 0.1961 0.2196);fill-opacity:1;"/>
<path d="M200.72 125.658C200.476 125.929 198.913 124.846 196.748 124.92C194.583 124.995 193.019 126.125 192.776 125.868C192.661 125.753 192.898 125.272 193.574 124.744C194.493 124.066 195.599 123.688 196.741 123.662C197.869 123.623 198.98 123.943 199.915 124.575C200.598 125.069 200.835 125.536 200.72 125.658Z" fill="#263238" style="fill:#263238;fill:color(display-p3 0.1490 0.1961 0.2196);fill-opacity:1;"/>
<path d="M207.988 142.5C207.988 142.379 209.341 142.108 211.493 141.756C212.041 141.682 212.562 141.56 212.643 141.181C212.676 140.607 212.529 140.037 212.224 139.55L210.457 135.382C208.001 129.447 206.201 124.555 206.438 124.46C206.675 124.365 208.867 129.095 211.324 135.03L213.029 139.225C213.394 139.884 213.519 140.65 213.381 141.391C213.306 141.589 213.188 141.767 213.034 141.912C212.881 142.058 212.696 142.166 212.494 142.23C212.192 142.324 211.877 142.377 211.56 142.385C209.361 142.575 208.001 142.629 207.988 142.5Z" fill="#263238" style="fill:#263238;fill:color(display-p3 0.1490 0.1961 0.2196);fill-opacity:1;"/>
<path d="M189.217 161.366C189.217 161.366 194.63 172.017 210.329 170.061L210.227 166.367C202.896 166.677 195.622 164.946 189.217 161.366Z" fill="#875149" style="fill:#875149;fill:color(display-p3 0.5294 0.3176 0.2863);fill-opacity:1;"/>
<path d="M199.813 117.863C199.617 118.458 197.445 118.242 194.907 118.627C192.37 119.013 190.34 119.771 189.981 119.25C189.826 119.006 190.164 118.438 190.976 117.842C192.063 117.11 193.301 116.633 194.599 116.449C195.897 116.265 197.219 116.378 198.467 116.78C199.414 117.111 199.894 117.558 199.813 117.863Z" fill="#263238" style="fill:#263238;fill:color(display-p3 0.1490 0.1961 0.2196);fill-opacity:1;"/>
<path d="M220.425 118.458C220.059 118.959 218.544 118.499 216.751 118.526C214.957 118.553 213.442 118.959 213.076 118.458C212.914 118.208 213.137 117.707 213.787 117.22C214.659 116.624 215.694 116.31 216.751 116.32C217.806 116.308 218.84 116.625 219.708 117.226C220.357 117.707 220.587 118.208 220.425 118.458Z" fill="#263238" style="fill:#263238;fill:color(display-p3 0.1490 0.1961 0.2196);fill-opacity:1;"/>
<path d="M218.821 104.613C217.793 102.272 215.16 100.925 212.609 100.871C210.058 100.817 207.588 101.852 205.416 103.192C196.207 108.87 191.768 122.078 182.68 127.938C180.447 129.38 177.449 128.202 175.561 130.083C173.673 131.965 172.509 134.915 173.646 137.317C172.27 135.707 171.131 133.91 170.263 131.978C169.841 131.009 169.631 129.96 169.646 128.903C169.661 127.846 169.902 126.804 170.351 125.847C171.109 124.44 172.496 123.337 172.834 121.787C173.139 120.434 172.557 118.999 172.577 117.585C172.701 116.144 173.165 114.752 173.93 113.525C177.368 107.009 182.193 101.074 188.506 97.2849C192.635 94.7418 197.38 93.3732 202.229 93.3263C207.087 93.3022 211.793 95.0158 215.499 98.1578C217.623 100.032 219.856 101.961 218.882 104.613" fill="#263238" style="fill:#263238;fill:color(display-p3 0.1490 0.1961 0.2196);fill-opacity:1;"/>
<path d="M175.839 132.025C175.663 131.579 167.38 128.852 167.516 137.574C167.651 146.046 176.15 144.131 176.157 143.888C176.163 143.644 175.839 132.025 175.839 132.025Z" fill="#BA7E6D" style="fill:#BA7E6D;fill:color(display-p3 0.7294 0.4941 0.4275);fill-opacity:1;"/>
<path d="M173.491 140.727C173.457 140.727 173.348 140.836 173.098 140.958C172.749 141.112 172.354 141.126 171.995 140.998C171.095 140.687 170.317 139.279 170.243 137.757C170.21 137.032 170.337 136.309 170.615 135.639C170.689 135.372 170.827 135.128 171.017 134.926C171.207 134.725 171.443 134.572 171.704 134.482C171.873 134.435 172.053 134.447 172.213 134.517C172.373 134.588 172.504 134.711 172.584 134.867C172.699 135.104 172.652 135.273 172.699 135.287C172.746 135.301 172.875 135.145 172.8 134.793C172.749 134.585 172.627 134.401 172.455 134.272C172.22 134.098 171.926 134.025 171.636 134.069C171.289 134.146 170.967 134.311 170.702 134.548C170.436 134.785 170.236 135.086 170.121 135.422C169.773 136.162 169.613 136.975 169.654 137.791C169.742 139.496 170.649 141.079 171.88 141.404C172.11 141.471 172.351 141.482 172.586 141.439C172.821 141.396 173.043 141.298 173.233 141.154C173.477 140.937 173.524 140.748 173.491 140.727Z" fill="#875149" style="fill:#875149;fill:color(display-p3 0.5294 0.3176 0.2863);fill-opacity:1;"/>
<path d="M172.354 127.769C172.531 127.689 172.699 127.589 172.855 127.471C173.173 127.255 173.667 126.964 174.249 126.531C175.881 125.261 177.374 123.821 178.701 122.234C180.646 119.858 182.454 117.373 184.114 114.79C186.114 111.636 188.378 108.657 190.881 105.885C192.211 104.499 193.688 103.263 195.286 102.198C196.786 101.221 198.399 100.433 200.091 99.8495C202.959 98.8397 205.991 98.3805 209.03 98.4961C211.08 98.562 213.112 98.901 215.072 99.5043C215.749 99.6938 216.297 99.9171 216.656 100.039C216.838 100.115 217.026 100.176 217.217 100.222C217.051 100.12 216.874 100.036 216.69 99.9713C216.18 99.7342 215.656 99.5307 215.12 99.3623C213.154 98.6964 211.103 98.3136 209.03 98.2254C205.952 98.0666 202.873 98.5055 199.962 99.5179C198.239 100.1 196.596 100.896 195.07 101.886C193.442 102.965 191.937 104.22 190.583 105.628C188.075 108.417 185.811 111.417 183.817 114.594C182.182 117.166 180.413 119.651 178.518 122.038C177.221 123.626 175.77 125.084 174.188 126.389C173.619 126.842 173.146 127.153 172.834 127.383C172.664 127.499 172.503 127.628 172.354 127.769Z" fill="#455A64" style="fill:#455A64;fill:color(display-p3 0.2706 0.3529 0.3922);fill-opacity:1;"/>
<path d="M172.57 142.257C172.152 142.191 171.724 142.288 171.375 142.526C171.025 142.765 170.779 143.128 170.687 143.541C170.596 143.955 170.665 144.388 170.882 144.752C171.098 145.116 171.445 145.384 171.852 145.501C172.259 145.618 172.695 145.576 173.072 145.383C173.449 145.19 173.738 144.86 173.88 144.461C174.023 144.062 174.008 143.624 173.839 143.236C173.669 142.848 173.359 142.539 172.97 142.372" fill="white" style="fill:white;fill-opacity:1;"/>
<path d="M172.97 142.372C173.344 142.651 173.622 143.038 173.768 143.482C173.837 143.714 173.846 143.96 173.793 144.197C173.741 144.433 173.63 144.653 173.47 144.835C173.289 145.065 173.044 145.236 172.765 145.326C172.486 145.416 172.187 145.421 171.905 145.341C171.624 145.26 171.373 145.098 171.184 144.874C170.995 144.65 170.877 144.375 170.845 144.084C170.809 143.847 170.832 143.605 170.912 143.38C170.992 143.154 171.127 142.952 171.305 142.791C171.662 142.489 172.104 142.307 172.57 142.27C172.57 142.27 172.442 142.182 172.171 142.189C171.931 142.2 171.696 142.259 171.48 142.364C171.263 142.469 171.071 142.617 170.914 142.799C170.757 142.98 170.638 143.192 170.566 143.422C170.494 143.651 170.469 143.892 170.493 144.131C170.526 144.495 170.669 144.84 170.902 145.121C171.134 145.403 171.447 145.607 171.798 145.708C172.149 145.809 172.522 145.802 172.869 145.687C173.216 145.572 173.52 145.355 173.741 145.065C173.929 144.84 174.054 144.57 174.104 144.281C174.154 143.992 174.127 143.695 174.025 143.421C173.906 143.056 173.668 142.741 173.349 142.527C173.132 142.365 172.976 142.351 172.97 142.372Z" fill="#263238" style="fill:#263238;fill:color(display-p3 0.1490 0.1961 0.2196);fill-opacity:1;"/>
<path d="M174.553 130.104C174.485 132.425 174.445 134.84 175.575 136.87C176.705 138.9 179.439 140.213 181.415 139.009C183.025 138.028 183.445 135.91 183.681 134.035C184.358 128.622 184.548 123.154 185.238 117.748L174.553 130.104Z" fill="#263238" style="fill:#263238;fill:color(display-p3 0.1490 0.1961 0.2196);fill-opacity:1;"/>
<path d="M216.622 100.641C216.622 100.695 215.871 100.526 214.518 100.519C212.599 100.539 210.703 100.942 208.942 101.704C207.724 102.213 206.564 102.853 205.484 103.612C204.247 104.498 203.063 105.456 201.938 106.481C199.342 108.81 197.036 111.443 195.07 114.324C194.035 115.866 193.128 117.443 192.133 118.911C191.199 120.343 190.097 121.658 188.851 122.829C186.709 124.753 184.355 126.426 181.834 127.816C179.696 129.021 177.909 129.847 176.678 130.469L175.25 131.146C175.087 131.233 174.914 131.301 174.736 131.349C174.878 131.232 175.035 131.134 175.203 131.058L176.597 130.32C177.801 129.684 179.56 128.784 181.665 127.546C184.137 126.129 186.447 124.445 188.553 122.525C189.764 121.37 190.836 120.078 191.747 118.675C192.722 117.22 193.629 115.636 194.671 114.08C196.659 111.166 199.002 108.511 201.647 106.176C202.789 105.143 203.996 104.185 205.261 103.307C206.371 102.546 207.563 101.911 208.813 101.413C210.619 100.663 212.563 100.303 214.518 100.357C215.045 100.371 215.57 100.427 216.087 100.526C216.269 100.545 216.449 100.583 216.622 100.641Z" fill="#455A64" style="fill:#455A64;fill:color(display-p3 0.2706 0.3529 0.3922);fill-opacity:1;"/>
<path d="M174.167 124.88C173.946 125.085 173.701 125.262 173.436 125.408L171.325 126.727L170.615 127.167C170.334 127.34 170.021 127.453 169.694 127.498C169.494 127.526 169.291 127.483 169.119 127.377C169.025 127.317 168.946 127.237 168.889 127.142C168.831 127.047 168.797 126.939 168.788 126.829C168.796 126.438 168.926 126.059 169.16 125.746C169.884 124.501 170.682 123.141 171.535 121.686L171.88 121.99C171.067 122.62 170.151 123.105 169.173 123.425C168.201 123.746 167.179 123.895 166.155 123.865C165.894 123.868 165.634 123.832 165.384 123.756C165.238 123.717 165.103 123.648 164.986 123.552C164.869 123.456 164.774 123.337 164.707 123.202C164.654 123.06 164.637 122.906 164.659 122.756C164.68 122.606 164.739 122.464 164.829 122.342C164.966 122.146 165.122 121.965 165.296 121.801C166.378 120.686 167.311 119.435 168.07 118.079C168.742 116.806 169.319 115.485 169.796 114.127C169.768 114.52 169.688 114.906 169.559 115.278C169.265 116.304 168.865 117.297 168.368 118.242C167.631 119.651 166.702 120.952 165.607 122.105C165.303 122.41 164.998 122.782 165.127 123.026C165.255 123.269 165.722 123.411 166.169 123.398C168.124 123.445 170.036 122.816 171.582 121.618L172.57 120.853L171.894 121.923L169.464 125.983C169.277 126.225 169.162 126.516 169.133 126.822C169.133 127.059 169.356 127.194 169.627 127.167C170.166 127.038 170.675 126.808 171.129 126.49L173.308 125.286C173.578 125.119 173.867 124.982 174.167 124.88Z" fill="#455A64" style="fill:#455A64;fill:color(display-p3 0.2706 0.3529 0.3922);fill-opacity:1;"/>
<path d="M199.847 146.736C199.99 146.088 200.355 145.51 200.879 145.103C201.403 144.695 202.053 144.483 202.716 144.503C203.201 144.554 203.666 144.722 204.07 144.993C204.475 145.264 204.807 145.631 205.037 146.06C205.258 146.494 205.391 146.967 205.427 147.453C205.463 147.938 205.402 148.426 205.247 148.888L205.206 149.091C204.769 149.592 204.188 149.944 203.542 150.101C202.896 150.257 202.217 150.209 201.6 149.964C200.993 149.695 200.491 149.232 200.174 148.648C199.857 148.065 199.742 147.392 199.847 146.736Z" fill="#875149" style="fill:#875149;fill:color(display-p3 0.5294 0.3176 0.2863);fill-opacity:1;"/>
<path d="M203.582 149.815C203.582 149.815 203.494 150.045 203.149 150.248C202.646 150.532 202.056 150.621 201.491 150.499C201.07 150.4 200.676 150.207 200.338 149.936C200.001 149.664 199.729 149.32 199.543 148.929C199.221 148.194 199.13 147.379 199.281 146.591C199.432 145.804 199.818 145.08 200.388 144.517C200.596 144.327 200.844 144.188 201.114 144.111C201.384 144.033 201.669 144.02 201.945 144.07C202.738 144.308 203.468 144.72 204.083 145.275C205.145 146.08 205.775 146.628 205.721 146.696C205.667 146.763 204.936 146.384 203.799 145.687C203.213 145.245 202.55 144.915 201.843 144.713C201.664 144.684 201.481 144.698 201.308 144.754C201.135 144.809 200.978 144.904 200.849 145.031C200.551 145.349 200.321 145.724 200.172 146.134C200.001 146.531 199.913 146.958 199.913 147.389C199.913 147.821 200.001 148.248 200.172 148.645C200.308 148.963 200.511 149.248 200.766 149.482C201.022 149.715 201.324 149.891 201.654 149.998C202.119 150.143 202.617 150.143 203.082 149.998C203.366 149.896 203.542 149.775 203.582 149.815Z" fill="#263238" style="fill:#263238;fill:color(display-p3 0.1490 0.1961 0.2196);fill-opacity:1;"/>
<path d="M255.565 133.88C259.628 135.592 263.235 138.229 266.101 141.58C269.843 146.039 279.174 159.945 282.293 163.376C285.738 167.156 289.938 170.169 294.622 172.22L287.22 195.998C283.185 194.03 279.387 191.61 275.899 188.785C270.485 184.299 264.727 170.156 257.06 164.391C252.1 160.662 240.82 157.793 240.82 157.793L255.565 133.88Z" fill="#00A576" style="fill:#00A576;fill:color(display-p3 0.0000 0.6471 0.4627);fill-opacity:1;"/>
<g opacity="0.2">
<path d="M293.181 172.93C293.113 172.883 285.738 168.708 282.611 165.237C280.399 162.794 276.988 158.152 273.686 153.659C271.189 150.275 268.828 147.041 267.048 144.862C261.364 137.892 256.837 136.485 256.647 136.431L256.208 136.295L243.351 156.365L244.156 156.582C244.237 156.582 252.54 158.849 256.458 161.711C261.675 165.521 264.686 170.589 267.603 175.488C269.687 178.994 271.663 182.302 274.37 185.199C276.777 187.776 279.469 190.071 282.395 192.04C283.561 192.834 284.78 193.549 286.042 194.178L286.678 194.469L293.181 172.93ZM257.148 160.75C254.814 159.045 251.146 157.59 248.351 156.636C248.82 156.046 249.061 155.305 249.028 154.552C248.703 153.327 247.675 153.077 246.612 153.571L254.99 140.538L255.057 140.64C256.35 142.453 258.88 140.89 259.05 139.022C259.092 139.055 259.137 139.085 259.185 139.11C261.799 140.921 264.13 143.11 266.101 145.606C267.86 147.765 270.215 150.966 272.705 154.362C272.996 154.748 273.28 155.141 273.564 155.526C271.656 154.647 269.139 155.066 266.764 158.395C264.571 161.481 264.26 165.643 264.835 168.823C262.749 165.708 260.15 162.969 257.148 160.723V160.75ZM275.222 184.387C272.603 181.585 270.668 178.33 268.618 174.913L268.036 173.932C269.411 174.345 270.884 174.295 272.229 173.79C273.573 173.285 274.715 172.353 275.479 171.137C277.063 168.478 278.578 164.668 277.509 160.838C279.12 162.956 280.595 164.824 281.752 166.11C283.965 168.546 287.774 171.442 290.062 173.1C289.886 173.149 289.722 173.233 289.579 173.348C289.437 173.462 289.319 173.605 289.233 173.766C289.147 173.927 289.095 174.104 289.079 174.286C289.063 174.468 289.084 174.652 289.141 174.825C289.29 175.576 289.994 176.503 290.847 176.321L290.962 176.273L286.563 190.747C285.887 188.717 283.647 189.665 283.999 191.661C280.776 189.609 277.826 187.155 275.222 184.36V184.387Z" fill="white" style="fill:white;fill-opacity:1;"/>
</g>
<path d="M188.019 229.744C191.134 226.626 194.934 224.276 199.116 222.883C204.652 221.09 221.047 217.672 225.398 216.075C230.207 214.302 234.588 211.536 238.255 207.955L257.5 223.762C254.151 226.762 250.474 229.372 246.538 231.544C240.339 234.873 225.074 234.887 216.852 239.82C211.527 243.014 204.631 252.372 204.631 252.372L188.019 229.744Z" fill="#00A576" style="fill:#00A576;fill:color(display-p3 0.0000 0.6471 0.4627);fill-opacity:1;"/>
<g opacity="0.2">
<path d="M238.35 209.579C238.282 209.627 231.644 214.871 227.239 216.481C224.147 217.611 218.564 219.026 213.157 220.393C209.097 221.428 205.193 222.423 202.507 223.235C193.913 225.88 190.902 229.541 190.78 229.697L190.489 230.049L204.259 249.551L204.76 248.874C204.814 248.799 210.018 241.951 214.145 239.4C219.633 236.017 225.459 235.117 231.096 234.258C235.156 233.642 238.932 233.06 242.64 231.646C245.935 230.382 249.074 228.748 251.999 226.774C253.186 225.998 254.317 225.139 255.382 224.202L255.896 223.722L238.35 209.579ZM213.482 238.379C211.026 239.894 208.299 242.75 206.357 244.983C205.976 244.341 205.375 243.86 204.665 243.63C203.413 243.467 202.791 244.306 202.852 245.497L193.926 232.83H194.048C196.213 232.309 195.719 229.379 194.048 228.519L194.177 228.425C196.856 226.672 199.783 225.329 202.858 224.439C205.518 223.62 209.375 222.646 213.455 221.611L214.856 221.259C213.327 222.693 212.765 225.19 214.957 228.641C216.987 231.828 220.729 233.682 223.896 234.346C220.222 235.091 216.701 236.455 213.482 238.379ZM242.153 230.516C238.573 231.869 234.831 232.458 230.866 233.067L229.743 233.236C230.634 232.117 231.135 230.738 231.172 229.308C231.209 227.878 230.778 226.475 229.946 225.312C228.071 222.849 225.114 220.007 221.149 219.581C223.727 218.904 226.008 218.227 227.632 217.625C230.724 216.495 234.838 214.059 237.24 212.557C237.22 212.738 237.236 212.922 237.289 213.097C237.341 213.272 237.428 213.435 237.545 213.575C237.662 213.715 237.807 213.831 237.969 213.914C238.132 213.997 238.31 214.046 238.492 214.059C239.243 214.208 240.36 213.903 240.522 213.044C240.526 213.003 240.526 212.963 240.522 212.922L252.303 222.436C250.158 222.328 250.199 224.73 252.181 225.143C249.082 227.356 245.712 229.162 242.153 230.516Z" fill="white" style="fill:white;fill-opacity:1;"/>
</g>
<path d="M189.778 34.7735L166.771 31.6811L164.335 31.9247C160.167 32.4931 156.838 33.5014 151.878 38.7524C147.053 43.8613 145.023 56.9144 145.023 56.9144C145.023 56.9144 150.748 53.9708 159.565 54.1671C168.382 54.3633 171.589 55.9061 171.589 55.9061C171.589 55.9061 171.65 47.1093 175.419 42.6974C180.129 37.2231 189.778 34.7735 189.778 34.7735Z" fill="#00A576" style="fill:#00A576;fill:color(display-p3 0.0000 0.6471 0.4627);fill-opacity:1;"/>
<g opacity="0.2">
<path d="M189.778 34.7735L166.771 31.6811L164.335 31.9247C160.167 32.4931 156.838 33.5014 151.878 38.7524C147.053 43.8613 145.023 56.9144 145.023 56.9144C145.023 56.9144 150.748 53.9708 159.565 54.1671C168.382 54.3633 171.589 55.9061 171.589 55.9061C171.589 55.9061 171.65 47.1093 175.419 42.6974C180.129 37.2231 189.778 34.7735 189.778 34.7735Z" fill="black" style="fill:black;fill-opacity:1;"/>
</g>
<path d="M164.335 31.9247C164.335 31.9247 169.749 31.1601 178.315 38.5223C183.796 43.2184 193.202 57.6249 193.202 57.6249C195.158 54.9445 197.634 52.6866 200.483 50.9867C208.123 46.4597 212.501 45.3161 212.501 45.3161C212.501 45.3161 207.642 38.0148 200.341 35.1389C182.72 28.1624 164.335 31.9247 164.335 31.9247Z" fill="#00A576" style="fill:#00A576;fill:color(display-p3 0.0000 0.6471 0.4627);fill-opacity:1;"/>
<g opacity="0.2">
<path d="M171.481 31.045C172.679 31.6811 179.75 34.1848 184.642 33.7518C189.535 33.3187 190.732 32.527 188.756 32.0127C186.011 31.2977 183.189 30.916 180.352 30.8759C177.394 30.7521 174.432 30.8086 171.481 31.045Z" fill="white" style="fill:white;fill-opacity:1;"/>
</g>
<g opacity="0.2">
<path d="M209.943 43.7665C206.682 40.3314 202.945 37.3826 198.846 35.0104C197.98 34.5367 197.059 34.0833 196.139 33.657C192.992 32.7015 189.775 31.9956 186.517 31.5458C189.602 32.2225 193.601 32.5473 198.744 36.0795C201.321 37.8727 203.776 39.8349 206.093 41.9531C205.288 42.42 205.274 44.0305 205.849 44.6598C203.733 45.4753 201.704 46.5023 199.793 47.7251C198.036 48.886 196.344 50.142 194.725 51.4874C194.866 51.1858 194.923 50.8511 194.887 50.5198C194.698 49.4506 193.189 48.7537 192.18 49.0514C191.978 49.0864 191.789 49.1771 191.635 49.3133C191.48 49.4496 191.367 49.6259 191.308 49.8228C188.411 45.6071 183.6 38.9012 180.826 36.5735C178.026 34.3014 174.913 32.4462 171.582 31.0653H171.508C170.317 31.1398 169.376 31.2683 168.443 31.3698C172.623 32.7597 176.519 34.889 179.946 37.6562C183.864 40.9448 192.478 54.0385 192.566 54.1738L193.013 54.8505L193.608 54.3092C195.81 52.3538 198.139 50.5454 200.578 48.8958C203.37 47.1055 206.425 45.763 209.632 44.9169L210.803 44.653L209.943 43.7665Z" fill="white" style="fill:white;fill-opacity:1;"/>
</g>
<path d="M105.958 198.157L126.78 201.71L128.965 201.561C132.768 201.182 135.82 200.376 140.469 195.768C145.016 191.282 147.276 179.528 147.276 179.528C147.276 179.528 141.985 182.018 133.986 181.558C125.988 181.098 123.126 179.589 123.126 179.589C123.126 179.589 122.787 187.594 119.221 191.458C114.803 196.242 105.958 198.157 105.958 198.157Z" fill="#00A576" style="fill:#00A576;fill:color(display-p3 0.0000 0.6471 0.4627);fill-opacity:1;"/>
<g opacity="0.2">
<path d="M105.958 198.157L126.78 201.71L128.965 201.561C132.768 201.182 135.82 200.376 140.469 195.768C145.016 191.282 147.276 179.528 147.276 179.528C147.276 179.528 141.985 182.018 133.986 181.558C125.988 181.098 123.126 179.589 123.126 179.589C123.126 179.589 122.787 187.594 119.221 191.458C114.803 196.242 105.958 198.157 105.958 198.157Z" fill="black" style="fill:black;fill-opacity:1;"/>
</g>
<path d="M128.965 201.561C128.965 201.561 124.039 202.082 116.481 195.125C111.656 190.686 103.624 177.295 103.624 177.295C101.764 179.668 99.4441 181.64 96.8029 183.094C89.7249 186.958 85.7054 187.831 85.7054 187.831C85.7054 187.831 89.8535 194.598 96.3902 197.467C112.15 204.389 128.965 201.561 128.965 201.561Z" fill="#00A576" style="fill:#00A576;fill:color(display-p3 0.0000 0.6471 0.4627);fill-opacity:1;"/>
<g opacity="0.2">
<path d="M122.449 202.136C121.38 201.513 115.046 199.016 110.587 199.273C106.128 199.531 105.045 200.187 106.797 200.722C109.267 201.457 111.816 201.895 114.39 202.028C117.072 202.225 119.763 202.261 122.449 202.136Z" fill="white" style="fill:white;fill-opacity:1;"/>
</g>
<g opacity="0.2">
<path d="M87.9385 189.347C90.7887 192.565 94.0835 195.361 97.7232 197.649C98.4946 198.11 99.3134 198.549 100.159 198.962C102.984 199.937 105.883 200.683 108.827 201.195C106.046 200.458 102.426 200.052 97.8653 196.682C95.5872 194.967 93.4218 193.106 91.3828 191.113C92.1271 190.714 92.1948 189.252 91.694 188.663C93.6431 187.993 95.5182 187.124 97.2901 186.072C98.9284 185.078 100.51 183.994 102.027 182.823C101.888 183.093 101.827 183.395 101.851 183.696C101.986 184.671 103.333 185.354 104.273 185.117C104.46 185.09 104.635 185.013 104.78 184.894C104.926 184.774 105.036 184.618 105.099 184.441C107.589 188.359 111.737 194.591 114.187 196.81C116.648 198.963 119.408 200.748 122.381 202.109H122.442C123.532 202.075 124.391 201.987 125.237 201.926C121.488 200.527 118.023 198.464 115.006 195.836C111.554 192.73 104.179 180.557 104.084 180.435L103.698 179.806L103.137 180.279C101.079 181.98 98.9086 183.54 96.6405 184.948C94.0485 186.487 91.2307 187.608 88.2903 188.271L87.2212 188.474L87.9385 189.347Z" fill="white" style="fill:white;fill-opacity:1;"/>
</g>
<path d="M255.132 75.435C255.132 75.435 259.997 71.4764 266.188 65.5691C273.74 58.3692 289.398 44.0237 302.729 49.4506L318.015 67.7209C318.015 67.7209 310.572 66.1713 300.557 69.8727C291.686 73.1546 285.46 79.6778 282.652 82.6754C281.522 83.8867 280.04 85.5107 278.849 86.6543C276.819 88.576 274.552 91.2422 270.959 94.1383L255.132 75.435Z" fill="#00A576" style="fill:#00A576;fill:color(display-p3 0.0000 0.6471 0.4627);fill-opacity:1;"/>
<g opacity="0.2">
<path d="M291.462 62.1248C293.228 66.3134 291.09 71.2058 286.685 73.0666C282.28 74.9275 277.279 73.0666 275.513 68.8577C273.747 64.6488 275.892 59.7767 280.297 57.9226C284.702 56.0685 289.703 57.9429 291.462 62.1248Z" fill="white" style="fill:white;fill-opacity:1;"/>
</g>
<g opacity="0.2">
<path d="M301.592 49.5995L301.437 49.5521C301.044 49.4236 291.767 46.6424 278.666 56.6505C273.771 60.3979 269.188 64.537 264.964 69.0269C262.257 71.8148 260.315 73.8245 257.96 75.0696L257.338 75.3944L271.25 92.6767L271.703 92.176C271.839 92.0339 284.811 77.756 291.05 73.3508C295.996 69.8592 305.591 64.2698 314.206 66.0698L315.911 66.4352L301.592 49.5995ZM290.407 72.4103C285.9 75.5839 278.227 83.5348 273.943 88.0821C273.284 87.4358 272.402 87.066 271.479 87.0484C270.555 87.0308 269.66 87.3667 268.976 87.9873L261.35 78.5139C261.725 78.2449 262.033 77.8944 262.252 77.4888C262.472 77.0832 262.596 76.6332 262.616 76.1726C262.637 75.2823 262.387 74.4067 261.898 73.6621C263.11 72.593 264.348 71.3208 265.796 69.8254C269.977 65.3755 274.517 61.2768 279.37 57.5708C285.954 52.5431 291.51 50.9326 295.008 50.4657C295.921 50.3401 296.841 50.2768 297.762 50.2762C298.251 51.219 299.015 51.9904 299.953 52.4874C300.891 52.9843 301.959 53.1831 303.013 53.0573L310.985 62.4361C310.43 62.612 309.773 63.1127 309.956 64.5811C302.289 64.8856 294.67 69.3991 290.407 72.4103Z" fill="white" style="fill:white;fill-opacity:1;"/>
</g>
<path d="M61.1624 250.241C61.1624 250.241 66.021 254.206 73.0584 259.071C81.6454 265.013 98.8601 277.443 96.2549 291.619L81.4627 310.282C81.4627 310.282 81.4627 302.649 75.826 293.622C70.7915 285.577 63.1451 280.766 59.6535 278.654C58.2392 277.795 56.3513 276.672 54.9844 275.738C52.704 274.175 49.6251 272.456 46.0658 269.526L61.1624 250.241Z" fill="#00A576" style="fill:#00A576;fill:color(display-p3 0.0000 0.6471 0.4627);fill-opacity:1;"/>
<g opacity="0.2">
<path d="M81.5416 283.143C85.2814 280.568 86.1157 275.289 83.4049 271.352C80.6941 267.415 75.4649 266.311 71.725 268.887C67.9852 271.462 67.151 276.741 69.8617 280.678C72.5725 284.614 77.8017 285.718 81.5416 283.143Z" fill="white" style="fill:white;fill-opacity:1;"/>
</g>
<g opacity="0.2">
<path d="M95.8692 290.51V290.341C95.9165 289.935 96.7624 280.285 84.3048 269.485C79.646 265.45 74.6673 261.8 69.4179 258.571C66.1428 256.493 63.7812 254.991 62.0895 252.934L61.6361 252.393L47.541 269.546L48.1229 269.885C48.2921 269.986 64.9045 279.798 70.4532 285.015C74.8719 289.156 82.2883 297.419 82.2747 306.222V307.907L95.8692 290.51ZM71.2652 284.169C67.2458 280.407 57.9076 274.486 52.5822 271.224C53.0809 270.449 53.2648 269.512 53.0962 268.605C52.9277 267.699 52.4196 266.89 51.6754 266.346L59.3963 256.953C59.7356 257.266 60.1416 257.498 60.5836 257.63C61.0256 257.763 61.492 257.793 61.9474 257.718C62.8237 257.564 63.6302 257.14 64.2549 256.507C65.5473 257.481 67.0495 258.435 68.8089 259.552C74.013 262.753 78.9467 266.374 83.5604 270.379C89.8197 275.792 92.5264 280.921 93.7106 284.257C94.0174 285.126 94.2638 286.014 94.4481 286.917C93.6257 287.585 93.0265 288.489 92.7303 289.507C92.4341 290.525 92.4551 291.609 92.7903 292.614L85.198 302.304C84.9205 301.797 84.2845 301.255 82.8905 301.729C81.0364 294.286 75.0817 287.742 71.2652 284.169Z" fill="white" style="fill:white;fill-opacity:1;"/>
</g>
<path d="M29 138.197C29 138.197 39.8268 125.563 60.9797 133.697C61.7837 134.002 62.6154 134.229 63.4631 134.373C65.8769 134.852 68.3749 134.674 70.6968 133.859C74.8245 132.201 80.6913 129.799 80.6913 129.799L98.8465 140.545C98.8465 140.545 91.2339 146.094 83.8649 146.56C76.4959 147.027 67.7871 140.978 59.3354 143.042C55.0378 143.973 51.1359 146.217 48.1702 149.463L29 138.197Z" fill="#00A576" style="fill:#00A576;fill:color(display-p3 0.0000 0.6471 0.4627);fill-opacity:1;"/>
<g opacity="0.2">
<path d="M72.7674 140.978C71.9486 141.709 67.036 141.039 61.785 139.482C56.5339 137.926 52.9408 136.099 53.7596 135.334C54.5784 134.57 59.491 135.273 64.742 136.837C69.993 138.4 73.5794 140.247 72.7674 140.978Z" fill="white" style="fill:white;fill-opacity:1;"/>
</g>
<g opacity="0.2">
<path d="M80.4274 131.105L80.2244 131.2C76.8185 132.868 73.2697 134.227 69.6209 135.26C67.0833 135.937 65.8992 135.7 63.7406 135.321L62.3872 135.091C61.1217 134.83 59.8759 134.482 58.6587 134.049C55.952 133.169 52.5077 132.073 49.0973 131.965H49.0093C48.9146 131.965 39.5359 131.153 31.8962 137.29L31.4428 137.655L47.7507 147.528L47.974 147.318C48.062 147.237 56.8114 139.334 68.6397 142.311C70.0404 142.663 71.3464 142.988 72.5644 143.333C82.1461 145.863 86.9505 147.136 96.5864 141.35L97.1684 140.998L80.4274 131.105ZM72.7674 142.534C71.5426 142.209 70.2367 141.858 68.8359 141.512C60.7903 139.482 54.125 142.324 50.4642 144.537C47.7575 143.116 45.8831 144.395 45.1929 145.018L35.6517 139.246C37.4923 137.642 36.4164 136.255 35.7938 135.679C39.8483 133.566 44.3871 132.556 48.9552 132.749C52.3047 132.844 55.6881 133.927 58.4287 134.779C59.6861 135.224 60.9726 135.581 62.2789 135.849L63.6323 136.079C65.8247 136.464 67.151 136.688 69.8509 136.004C72.5898 135.259 75.2681 134.307 77.8628 133.155C78.5395 133.744 80.3462 134.861 83.0191 133.528L92.7497 139.279C92.0189 139.624 90.9294 140.524 92.6685 142.487C85.4889 145.897 80.8808 144.679 72.7674 142.534Z" fill="white" style="fill:white;fill-opacity:1;"/>
</g>
<path d="M276.663 308.685C276.663 308.685 275.385 292.127 296.145 282.972C296.937 282.626 297.694 282.204 298.405 281.713C300.443 280.348 302.079 278.463 303.142 276.252C304.894 272.192 307.351 266.305 307.351 266.305L327.793 261.108C327.793 261.108 326.318 270.412 321.426 275.941C316.533 281.469 306.092 283.33 301.558 290.76C299.171 294.451 297.988 298.792 298.175 303.184L276.663 308.685Z" fill="#00A576" style="fill:#00A576;fill:color(display-p3 0.0000 0.6471 0.4627);fill-opacity:1;"/>
<g opacity="0.2">
<path d="M309.645 279.811C309.584 280.908 305.625 283.872 300.807 286.497C295.989 289.123 292.132 290.32 292.193 289.204C292.254 288.087 296.213 285.144 301.031 282.518C305.849 279.893 309.706 278.715 309.645 279.811Z" fill="white" style="fill:white;fill-opacity:1;"/>
</g>
<g opacity="0.2">
<path d="M308.122 267.408L308.054 267.618C306.81 271.202 305.25 274.669 303.392 277.978C302.039 280.217 301.064 280.914 299.271 282.173C298.919 282.417 298.54 282.681 298.128 282.978C297.044 283.686 295.914 284.319 294.744 284.873C292.18 286.186 288.986 287.81 286.496 290.144L286.435 290.205C286.36 290.266 279.14 296.295 278.064 306.053L277.996 306.635L296.524 302.121V301.817C296.524 301.695 297.153 289.921 307.628 283.682C308.873 282.944 310.037 282.275 311.127 281.652C319.707 276.692 323.983 274.209 326.751 263.301L326.92 262.624L308.122 267.408ZM310.741 280.942C309.645 281.578 308.474 282.248 307.236 282.972C300.11 287.214 297.383 293.92 296.348 298.075C295.421 298.296 294.591 298.811 293.981 299.542C293.371 300.274 293.015 301.184 292.965 302.135L282.138 304.767C282.307 302.331 280.568 302.108 279.722 302.142C281.106 297.785 283.616 293.871 286.996 290.794C289.432 288.5 292.592 286.876 295.116 285.584C296.321 285.009 297.485 284.353 298.601 283.621C299.007 283.323 299.386 283.06 299.731 282.816C301.558 281.537 302.655 280.786 304.089 278.377C305.515 275.916 306.753 273.351 307.791 270.703C308.69 270.636 310.754 270.162 311.702 267.32L322.657 264.539C322.386 265.29 322.244 266.698 324.856 266.867C322.129 274.317 318.002 276.712 310.741 280.942Z" fill="white" style="fill:white;fill-opacity:1;"/>
</g>
<path d="M306.958 144.801C306.958 144.801 302.357 128.838 320.823 115.643C321.532 115.148 322.189 114.584 322.786 113.958C324.515 112.211 325.742 110.03 326.338 107.645C327.231 103.287 328.449 97.0548 328.449 97.0548L347.396 87.8249C347.396 87.8249 347.829 97.2307 344.162 103.639C340.494 110.047 330.628 113.978 327.705 122.173C326.115 126.273 325.839 130.766 326.913 135.03L306.958 144.801Z" fill="#00A576" style="fill:#00A576;fill:color(display-p3 0.0000 0.6471 0.4627);fill-opacity:1;"/>
<g opacity="0.2">
<path d="M333.396 109.824C333.558 110.906 330.29 114.642 326.095 118.16C321.899 121.679 318.374 123.655 318.211 122.572C318.049 121.49 321.324 117.754 325.513 114.236C329.701 110.717 333.234 108.734 333.396 109.824Z" fill="white" style="fill:white;fill-opacity:1;"/>
</g>
<g opacity="0.2">
<path d="M329.39 97.9683V98.1848C328.898 101.945 328.073 105.654 326.927 109.269C326.068 111.739 325.242 112.618 323.74 114.209C323.442 114.527 323.124 114.885 322.779 115.237C321.866 116.149 320.892 116.997 319.862 117.775C317.609 119.581 314.814 121.835 312.852 124.609L312.798 124.677C312.744 124.751 306.897 132.154 307.811 141.891L307.865 142.473L325.093 134.306L325.046 134.001C325.046 133.886 323.253 122.227 332.252 113.999C333.315 113.024 334.323 112.131 335.264 111.292C342.66 104.694 346.368 101.386 346.848 90.1595V89.4828L329.39 97.9683ZM334.695 110.676C333.748 111.522 332.74 112.422 331.677 113.383C325.553 118.979 324.234 126.105 324.071 130.374C323.205 130.776 322.492 131.449 322.042 132.291C321.591 133.133 321.427 134.1 321.574 135.043L311.499 139.821C311.174 137.405 309.421 137.534 308.603 137.737C309.074 133.189 310.738 128.847 313.427 125.15C315.349 122.444 318.117 120.184 320.343 118.384C321.41 117.581 322.418 116.703 323.361 115.758C323.699 115.386 324.038 115.081 324.301 114.743C325.831 113.126 326.751 112.145 327.685 109.512C328.567 106.815 329.245 104.056 329.715 101.257C330.588 101.007 332.51 100.127 332.861 97.1563L343.012 92.2098C342.903 93.0083 343.052 94.409 345.644 94.0504C344.514 101.913 340.948 105.094 334.695 110.676Z" fill="white" style="fill:white;fill-opacity:1;"/>
</g>
<path d="M110.797 90.6534C106.4 90.3016 102.147 88.93 98.3728 86.6475C93.4263 83.5889 80.1973 73.317 76.1643 71.0366C71.6321 68.504 66.7397 66.6785 61.6564 65.6232L61.2436 41.6215C65.691 42.2281 70.056 43.3335 74.2561 44.9169C80.8063 47.4815 90.7128 59.1271 99.7938 62.1654C105.681 64.1548 117.272 63.336 117.272 63.336L110.797 90.6534Z" fill="#00A576" style="fill:#00A576;fill:color(display-p3 0.0000 0.6471 0.4627);fill-opacity:1;"/>
<g opacity="0.2">
<path d="M62.8338 64.6488L63.2669 64.7773C63.3481 64.7773 71.2314 67.0577 75.305 69.372C78.1741 70.996 82.8702 74.332 87.4107 77.5598C90.855 80.0093 94.1098 82.2965 96.4782 83.8325C104.064 88.664 108.8 88.5693 109.003 88.5693H109.457L115.405 65.4608L114.572 65.5082C114.485 65.5082 105.891 65.9886 101.276 64.4999C95.1316 62.524 90.679 58.6602 86.3889 54.9182C83.31 52.2521 80.4071 49.7281 76.9154 47.8266C73.805 46.1303 70.5107 44.7954 67.0969 43.8478C65.7415 43.4561 64.3598 43.1621 62.9624 42.9681L62.2857 42.8869L62.8338 64.6488ZM100.904 65.6638C103.644 66.5435 107.589 66.7735 110.546 66.8074C110.3 67.5158 110.317 68.2892 110.594 68.9863C111.27 70.0419 112.339 69.9607 113.192 69.1554L109.335 84.1641L109.24 84.0829C107.44 82.7702 105.525 85.0506 105.952 86.8708L105.796 86.8302C102.722 85.9168 99.8029 84.5482 97.1345 82.7702C94.7865 81.2747 91.5452 78.974 88.1144 76.5312L86.937 75.6921C89.0212 75.929 91.288 74.738 92.4925 70.8336C93.609 67.2201 92.594 63.1736 91.0512 60.3316C94 62.65 97.3196 64.4528 100.87 65.6638H100.904ZM76.2861 48.8958C79.6695 50.7363 82.5116 53.2129 85.5363 55.8452C85.8273 56.0888 86.1115 56.3392 86.3957 56.5896C84.9661 56.6356 83.5906 57.1469 82.478 58.0457C81.3655 58.9446 80.5766 60.1819 80.2312 61.5699C79.5545 64.5879 79.3244 68.6885 81.5845 71.9839C79.365 70.4953 77.3823 69.1419 75.8734 68.3096C73.011 66.6856 68.4841 65.1292 65.7909 64.2495C66.0818 64.0437 66.2798 63.7314 66.3419 63.3805C66.404 63.0295 66.3251 62.6683 66.1225 62.3751C65.7435 61.6985 64.7691 61.0218 64.0383 61.4887L63.9436 61.5631L63.5714 46.4462C64.8774 48.1446 66.6841 46.5612 65.7232 44.7748C69.4053 45.6931 72.955 47.0779 76.2861 48.8958Z" fill="white" style="fill:white;fill-opacity:1;"/>
</g>
<path d="M212.792 313.584C208.397 313.232 204.145 311.858 200.375 309.572C195.422 306.52 182.193 296.248 178.16 293.968C173.63 291.436 168.74 289.61 163.659 288.554L163.239 264.552C167.687 265.154 172.053 266.26 176.251 267.848C182.802 270.412 192.708 282.024 201.796 285.096C207.676 287.079 219.268 286.267 219.268 286.267L212.792 313.584Z" fill="#00A576" style="fill:#00A576;fill:color(display-p3 0.0000 0.6471 0.4627);fill-opacity:1;"/>
<g opacity="0.2">
<path d="M164.795 287.58L165.228 287.702C165.31 287.702 173.2 289.989 177.273 292.303C180.136 293.927 184.832 297.263 189.372 300.491C192.817 302.94 196.071 305.227 198.446 306.764C206.025 311.595 210.769 311.5 210.965 311.5H211.425L217.366 288.385L216.534 288.432C216.446 288.432 207.859 288.913 203.237 287.424C197.093 285.448 192.641 281.584 188.35 277.842C185.272 275.176 182.362 272.652 178.877 270.751C175.771 269.057 172.481 267.724 169.072 266.779C167.717 266.387 166.335 266.093 164.937 265.899L164.261 265.818L164.795 287.58ZM202.865 288.595C205.612 289.474 209.551 289.704 212.515 289.738C212.269 290.447 212.285 291.22 212.562 291.917C213.239 292.973 214.308 292.892 215.16 292.086L211.297 307.095L211.202 307.014C209.409 305.701 207.494 307.982 207.92 309.802L207.764 309.761C204.692 308.861 201.772 307.504 199.103 305.735C196.755 304.24 193.514 301.939 190.083 299.496L188.899 298.657C190.99 298.894 193.25 297.703 194.454 293.798C195.571 290.185 194.562 286.138 193.013 283.296C195.974 285.606 199.305 287.398 202.865 288.595ZM178.282 271.827C181.665 273.661 184.507 276.144 187.538 278.769C187.823 279.02 188.107 279.27 188.398 279.514C186.967 279.562 185.591 280.075 184.478 280.975C183.364 281.874 182.574 283.112 182.227 284.501C181.55 287.519 181.32 291.62 183.58 294.908C181.387 293.399 179.398 292.093 177.896 291.241C175.027 289.617 170.507 288.06 167.807 287.18C167.959 287.079 168.089 286.947 168.189 286.794C168.289 286.641 168.357 286.469 168.388 286.289C168.42 286.108 168.415 285.924 168.373 285.745C168.331 285.567 168.253 285.399 168.145 285.252C167.766 284.575 166.792 283.899 166.054 284.372L165.959 284.447L165.594 269.323C166.9 271.028 168.7 269.445 167.739 267.658C171.417 268.591 174.96 269.992 178.282 271.827Z" fill="white" style="fill:white;fill-opacity:1;"/>
</g>
<path d="M164.085 117.497C159.761 117.605 151.817 117.436 144.306 113.992C135.001 109.722 130.975 103.598 130.975 103.598L128.945 126.395C134.358 139.158 155.87 140.037 165.898 140.274C163.246 129.231 162.556 124.041 164.085 117.497Z" fill="#00A576" style="fill:#00A576;fill:color(display-p3 0.0000 0.6471 0.4627);fill-opacity:1;"/>
<g opacity="0.2">
<path d="M160.678 131.711C162.32 127.667 160.199 122.986 155.94 121.257C151.681 119.527 146.897 121.404 145.255 125.448C143.612 129.493 145.734 134.173 149.993 135.903C154.252 137.632 159.036 135.755 160.678 131.711Z" fill="white" style="fill:white;fill-opacity:1;"/>
</g>
<g opacity="0.2">
<path d="M165.303 137.696C160.295 137.864 155.282 137.567 150.328 136.81C142.431 135.754 137.559 133.074 134.859 131.01C134.156 130.476 133.489 129.895 132.863 129.271C133.171 128.299 133.175 127.257 132.875 126.282C132.576 125.308 131.986 124.448 131.185 123.817L132.132 112.023C132.626 112.28 133.418 112.382 134.291 111.258C139.704 116.259 147.953 118.37 152.899 119.216C156.452 119.696 160.034 119.922 163.618 119.893L163.828 118.695C160.256 118.74 156.686 118.537 153.143 118.086C147.405 117.098 137.085 114.384 132.45 107.313L131.557 105.96L129.859 127.099L129.933 127.241C130.109 127.593 134.528 135.788 150.233 137.885C155.281 138.657 160.389 138.965 165.492 138.806L165.303 137.696Z" fill="white" style="fill:white;fill-opacity:1;"/>
</g>
</svg>
