<svg width="125" height="38" viewBox="0 0 125 38" fill="none" xmlns="http://www.w3.org/2000/svg">
<g clip-path="url(#clip0_133_9576)">
<path d="M29.9227 37.9886H8.81388C3.94984 37.9886 0 34.1197 0 29.3553V8.67915C0 3.91479 3.94984 0.0458984 8.81388 0.0458984H29.3952C34.5523 0.0458984 38.7365 4.14439 38.7365 9.19577V29.3553C38.7365 34.1197 34.7867 37.9886 29.9227 37.9886Z" fill="#EC653C"/>
<path d="M19.3625 35.3253C28.5543 35.3253 36.0057 28.0265 36.0057 19.0231C36.0057 10.0197 28.5543 2.72095 19.3625 2.72095C10.1707 2.72095 2.71924 10.0197 2.71924 19.0231C2.71924 28.0265 10.1707 35.3253 19.3625 35.3253Z" fill="#FDCF76"/>
<path d="M28.0474 13.9373C26.1135 13.9373 24.5429 12.3989 24.5429 10.5047C24.5429 8.6104 22.9723 7.07202 21.0384 7.07202H17.6746C15.7407 7.07202 14.1702 8.6104 14.1702 10.5047C14.1702 12.3989 12.5996 13.9373 10.6657 13.9373C8.73182 13.9373 7.16125 15.4757 7.16125 17.3699V20.6648C7.16125 22.5591 8.73182 24.0974 10.6657 24.0974H14.1702V27.5301C14.1702 29.4243 15.7407 30.9627 17.6746 30.9627H21.0384C22.9723 30.9627 24.5429 29.4243 24.5429 27.5301C24.5429 25.6358 26.1135 24.0974 28.0474 24.0974C29.9813 24.0974 31.5518 22.5591 31.5518 20.6648V17.3699C31.5518 15.4757 29.9813 13.9373 28.0474 13.9373Z" fill="white"/>
<path d="M51.1602 14.8671C51.6993 15.7511 52.426 16.4055 53.3754 16.8417C54.313 17.278 55.4148 17.4961 56.6689 17.4961C57.923 17.4961 59.0247 17.278 59.9741 16.8417C60.9234 16.4055 61.6618 15.7511 62.1892 14.8671C62.7167 13.9831 62.9745 12.8695 62.9745 11.5378V0H61.3688V11.5378C61.3688 13.0762 60.9586 14.2127 60.1264 14.9589C59.306 15.7052 58.1457 16.0725 56.6571 16.0725C55.1686 16.0725 54.02 15.7052 53.1878 14.9589C52.3674 14.2127 51.9455 13.0762 51.9455 11.5378V0H50.3632L45.5577 2.72085V4.33959L50.3632 1.63021V11.5378C50.3632 12.881 50.6328 13.9831 51.1602 14.8671Z" fill="white"/>
<path d="M75.4688 9.98787V17.1402H76.969V9.88455C76.969 8.79391 76.7463 7.87548 76.3009 7.15221C75.8556 6.42895 75.2695 5.87789 74.5429 5.522C73.8045 5.16611 72.9957 4.98242 72.1167 4.98242C70.8157 4.98242 69.8195 5.23499 69.1397 5.72865C68.4599 6.22231 67.9676 6.79632 67.6629 7.42775H67.3581V5.22351H65.9048V17.1287H67.405V11.1704C67.405 9.54014 67.827 8.31174 68.6591 7.50811C69.4913 6.70448 70.5344 6.29119 71.7885 6.29119C72.902 6.29119 73.7927 6.5782 74.4608 7.15221C75.1289 7.72623 75.4571 8.66763 75.4571 9.96491L75.4688 9.98787Z" fill="white"/>
<path d="M89.9554 15.7052C90.4008 15.1885 90.7407 14.6604 90.9985 14.1209L89.6507 13.5354C89.3225 14.2701 88.842 14.89 88.209 15.3952C87.5878 15.9003 86.7088 16.1529 85.5719 16.1529C84.2358 16.1529 83.134 15.7511 82.255 14.936C81.3759 14.1209 80.9188 12.9843 80.8719 11.4919H91.2212V10.7112C91.2212 9.50575 90.9751 8.46103 90.4711 7.58852C89.9671 6.71601 89.2873 6.05015 88.4083 5.57945C87.5292 5.10876 86.533 4.87915 85.3961 4.87915C84.2592 4.87915 83.1926 5.13172 82.2784 5.64833C81.3642 6.16495 80.661 6.87674 80.1453 7.80665C79.6296 8.72508 79.3717 9.80424 79.3717 11.0326V11.3311C79.3717 12.5366 79.6296 13.6042 80.1453 14.5456C80.661 15.4755 81.3877 16.1988 82.3136 16.7154C83.2395 17.232 84.3295 17.4846 85.5719 17.4846C86.6502 17.4846 87.5527 17.3124 88.2442 16.9795C88.9474 16.6466 89.51 16.2218 89.9554 15.7052ZM82.3605 7.25559C83.1575 6.56677 84.1654 6.21088 85.3844 6.21088C86.6033 6.21088 87.623 6.55529 88.4083 7.25559C89.1936 7.94441 89.6155 8.94321 89.6858 10.229H80.8837C81.0712 8.94321 81.5635 7.94441 82.3605 7.25559Z" fill="white"/>
<path d="M60.1733 35.4519H59.7279L56.6922 20.5044H50.5741V37.6561H53.7738V22.8808H54.2192L57.2197 37.6561H62.6697L65.6702 22.8808H66.1273V37.6561H69.327V20.5044H63.1972L60.1733 35.4519Z" fill="white"/>
<path d="M81.5051 25.9572C80.6026 25.4291 79.5478 25.165 78.3288 25.165C77.1099 25.165 76.0082 25.4176 75.0822 25.9342C74.1446 26.4508 73.4179 27.1741 72.9022 28.1155C72.3865 29.0569 72.1287 30.159 72.1287 31.4333V31.7318C72.1287 33.0061 72.3865 34.1083 72.9139 35.0497C73.4414 35.991 74.168 36.7143 75.1174 37.2309C76.0551 37.7475 77.1451 38.0001 78.3757 38.0001C79.5126 38.0001 80.4386 37.8279 81.177 37.472C81.9154 37.1161 82.5014 36.6914 82.935 36.1977C83.3804 35.704 83.7086 35.2333 83.943 34.8086L81.3645 33.4883C81.1418 33.9475 80.8253 34.3608 80.4151 34.7397C79.9932 35.1185 79.3485 35.3022 78.4695 35.3022C77.5904 35.3022 76.8638 35.0382 76.266 34.5216C75.6683 33.9935 75.3518 33.3161 75.3167 32.4895H84.3415V31.4333C84.3415 30.1934 84.0954 29.1028 83.5914 28.1614C83.0874 27.22 82.3959 26.4853 81.4934 25.9572H81.5051ZM75.3518 30.182C75.469 29.4817 75.7738 28.9191 76.2777 28.4944C76.7817 28.0696 77.4498 27.8629 78.3054 27.8629C79.161 27.8629 79.7822 28.0811 80.2979 28.4944C80.8019 28.9191 81.0949 29.4817 81.1652 30.182H75.3635H75.3518Z" fill="white"/>
<path d="M95.0422 30.8369C94.2804 30.5728 93.4365 30.3547 92.4989 30.1825L91.7956 30.0562C91.233 29.9529 90.7759 29.8151 90.4478 29.6314C90.1196 29.4477 89.9438 29.1492 89.9438 28.7589C89.9438 28.403 90.1079 28.116 90.4243 27.9093C90.7408 27.7027 91.1979 27.5994 91.7956 27.5994C92.3934 27.5994 92.8974 27.7257 93.3076 27.9897C93.7178 28.2538 93.9874 28.69 94.1163 29.31L97.0465 28.426C96.7652 27.4501 96.1674 26.658 95.2415 26.0495C94.3273 25.4411 93.1787 25.1426 91.7956 25.1426C90.3306 25.1426 89.1468 25.464 88.2443 26.1069C87.3418 26.7498 86.8964 27.6797 86.8964 28.8852C86.8964 29.6888 87.1074 30.3432 87.5411 30.8483C87.9747 31.3535 88.549 31.7553 89.264 32.0308C89.9789 32.3178 90.7759 32.5359 91.6433 32.7082L92.3465 32.8344C93.0849 32.9607 93.6123 33.1329 93.9522 33.3396C94.2804 33.5462 94.4562 33.8332 94.4562 34.2121C94.4562 34.5909 94.2804 34.9009 93.9288 35.1535C93.5772 35.406 93.038 35.5323 92.2996 35.5323C91.8191 35.5323 91.3737 35.4634 90.9635 35.3257C90.5532 35.1879 90.2134 34.9583 89.9438 34.6254C89.6742 34.3039 89.475 33.8447 89.3578 33.2822L86.451 34.0169C86.662 35.2912 87.2949 36.2671 88.3263 36.9559C89.3577 37.6447 90.6822 37.9891 92.2996 37.9891C93.9171 37.9891 95.1477 37.6447 96.0854 36.9444C97.023 36.2556 97.5036 35.2683 97.5036 33.994C97.5036 33.1444 97.2809 32.4671 96.8355 31.9734C96.3901 31.4797 95.7924 31.0894 95.0305 30.8254L95.0422 30.8369Z" fill="white"/>
<path d="M108.146 30.8369C107.384 30.5728 106.54 30.3547 105.602 30.1825L104.899 30.0562C104.337 29.9529 103.879 29.8151 103.551 29.6314C103.223 29.4477 103.047 29.1492 103.047 28.7589C103.047 28.403 103.211 28.116 103.528 27.9093C103.844 27.7027 104.301 27.5994 104.899 27.5994C105.497 27.5994 106.001 27.7257 106.411 27.9897C106.821 28.2538 107.091 28.69 107.22 29.31L110.15 28.426C109.869 27.4501 109.271 26.658 108.345 26.0495C107.431 25.4411 106.282 25.1426 104.899 25.1426C103.434 25.1426 102.25 25.464 101.348 26.1069C100.445 26.7498 100 27.6797 100 28.8852C100 29.6888 100.211 30.3432 100.645 30.8483C101.078 31.3535 101.653 31.7553 102.368 32.0308C103.082 32.3178 103.879 32.5359 104.747 32.7082L105.45 32.8344C106.188 32.9607 106.716 33.1329 107.056 33.3396C107.384 33.5462 107.56 33.8332 107.56 34.2121C107.56 34.5909 107.384 34.9009 107.032 35.1535C106.681 35.406 106.142 35.5323 105.403 35.5323C104.923 35.5323 104.477 35.4634 104.067 35.3257C103.657 35.1879 103.317 34.9583 103.047 34.6254C102.778 34.3039 102.578 33.8447 102.461 33.2822L99.5546 34.0169C99.7655 35.2912 100.398 36.2671 101.43 36.9559C102.461 37.6447 103.786 37.9891 105.403 37.9891C107.021 37.9891 108.251 37.6447 109.189 36.9444C110.127 36.2556 110.607 35.2683 110.607 33.994C110.607 33.1444 110.384 32.4671 109.939 31.9734C109.494 31.4797 108.896 31.0894 108.134 30.8254L108.146 30.8369Z" fill="white"/>
<path d="M125 31.4333C125 30.1934 124.754 29.1028 124.25 28.1614C123.746 27.22 123.054 26.4853 122.152 25.9572C121.249 25.4291 120.195 25.165 118.976 25.165C117.757 25.165 116.655 25.4176 115.729 25.9342C114.791 26.4508 114.065 27.1741 113.549 28.1155C113.033 29.0569 112.775 30.159 112.775 31.4333V31.7318C112.775 33.0061 113.033 34.1083 113.561 35.0497C114.088 35.991 114.815 36.7143 115.764 37.2309C116.702 37.7475 117.792 38.0001 119.022 38.0001C120.159 38.0001 121.085 37.8279 121.824 37.472C122.562 37.1161 123.148 36.6914 123.582 36.1977C124.027 35.704 124.355 35.2333 124.59 34.8086L122.011 33.4883C121.789 33.9475 121.472 34.3608 121.062 34.7397C120.64 35.1185 119.995 35.3022 119.116 35.3022C118.237 35.3022 117.511 35.0382 116.913 34.5216C116.315 33.9935 115.999 33.3161 115.963 32.4895H124.988V31.4333H125ZM115.987 30.182C116.104 29.4817 116.409 28.9191 116.913 28.4944C117.417 28.0696 118.085 27.8629 118.94 27.8629C119.796 27.8629 120.417 28.0811 120.933 28.4944C121.437 28.9191 121.73 29.4817 121.8 30.182H115.999H115.987Z" fill="white"/>
</g>
<defs>
<clipPath id="clip0_133_9576">
<rect width="125" height="38" fill="white"/>
</clipPath>
</defs>
</svg>
