<svg width="25" height="25" viewBox="0 0 25 25" fill="none" xmlns="http://www.w3.org/2000/svg">
    <path
        d="M9.22297 1.43177C9.50658 1.27421 9.64838 1.19543 9.79855 1.16454C9.93146 1.13721 10.0685 1.13721 10.2015 1.16454C10.3516 1.19543 10.4934 1.27421 10.777 1.43177L18.177 5.54288C18.4766 5.70928 18.6263 5.79248 18.7354 5.91082C18.8318 6.01551 18.9049 6.13959 18.9495 6.27477C19 6.42756 19 6.59889 19 6.94153V15.0586C19 15.4013 19 15.5726 18.9495 15.7254C18.9049 15.8606 18.8318 15.9847 18.7354 16.0893C18.6263 16.2077 18.4766 16.2909 18.177 16.4573L10.777 20.5684C10.4934 20.726 10.3516 20.8047 10.2015 20.8356C10.0685 20.863 9.93146 20.863 9.79855 20.8356C9.64838 20.8047 9.50658 20.726 9.22297 20.5684L1.82297 16.4573C1.52345 16.2909 1.37369 16.2077 1.26463 16.0893C1.16816 15.9847 1.09515 15.8606 1.05048 15.7254C1 15.5726 1 15.4013 1 15.0586V6.94153C1 6.59889 1 6.42756 1.05048 6.27477C1.09515 6.13959 1.16816 6.01551 1.26463 5.91082C1.37369 5.79248 1.52345 5.70928 1.82297 5.54288L9.22297 1.43177Z"
        stroke="#E89300" stroke-width="2" stroke-linecap="round" stroke-linejoin="round" />
    <path fill-rule="evenodd" clip-rule="evenodd"
        d="M9.99658 8.06799C8.9969 6.89928 7.32987 6.58491 6.07735 7.65509C4.82482 8.72528 4.64848 10.5146 5.6321 11.7803C6.26211 12.591 7.87558 14.0943 8.95424 15.0704C9.31269 15.3948 9.49191 15.557 9.70659 15.6221C9.89113 15.678 10.102 15.678 10.2866 15.6221C10.5012 15.557 10.6805 15.3948 11.0389 15.0704C12.1176 14.0943 13.731 12.591 14.3611 11.7803C15.3447 10.5146 15.1899 8.71402 13.9158 7.65509C12.6417 6.59616 10.9963 6.89928 9.99658 8.06799Z"
        stroke="#E89300" stroke-width="2" stroke-linecap="round" stroke-linejoin="round" />
</svg>
