<svg width="25" height="25" viewBox="0 0 25 25" fill="none" xmlns="http://www.w3.org/2000/svg">
<path d="M9.125 21.5V14.1C9.125 13.5399 9.125 13.2599 9.234 13.046C9.32987 12.8578 9.48285 12.7049 9.67101 12.609C9.88493 12.5 10.165 12.5 10.725 12.5H13.525C14.0851 12.5 14.3651 12.5 14.579 12.609C14.7672 12.7049 14.9201 12.8578 15.016 13.046C15.125 13.2599 15.125 13.5399 15.125 14.1V21.5M2.125 10L11.165 3.22C11.5093 2.96181 11.6814 2.83271 11.8704 2.78294C12.0373 2.73902 12.2127 2.73902 12.3796 2.78295C12.5686 2.83271 12.7407 2.96181 13.085 3.22L22.125 10M4.125 8.5V18.3C4.125 19.4201 4.125 19.9802 4.34299 20.408C4.53474 20.7843 4.8407 21.0903 5.21702 21.282C5.64485 21.5 6.2049 21.5 7.325 21.5H16.925C18.0451 21.5 18.6052 21.5 19.033 21.282C19.4093 21.0903 19.7153 20.7843 19.907 20.408C20.125 19.9802 20.125 19.4201 20.125 18.3V8.5L14.045 3.94C13.3565 3.42361 13.0122 3.16542 12.6341 3.06589C12.3004 2.97804 11.9496 2.97804 11.6159 3.06589C11.2378 3.16542 10.8935 3.42361 10.205 3.94L4.125 8.5Z" stroke="#667085" style="stroke:#667085;stroke:color(display-p3 0.4000 0.4392 0.5216);stroke-opacity:1;" stroke-width="2" stroke-linecap="round" stroke-linejoin="round"/>
</svg>
