<svg width="361" height="360" viewBox="0 0 361 360" fill="none" xmlns="http://www.w3.org/2000/svg">
<rect width="361" height="360" rx="4" fill="#B7D1FF" style="fill:#B7D1FF;fill:color(display-p3 0.7176 0.8196 1.0000);fill-opacity:1;"/>
<path d="M316.071 87.9309H291.414C287.767 87.9309 284.81 90.8879 284.81 94.5354V119.192C284.81 122.839 287.767 125.796 291.414 125.796H316.071C319.718 125.796 322.675 122.839 322.675 119.192V94.5354C322.675 90.8879 319.718 87.9309 316.071 87.9309Z" fill="#E0E0E0" style="fill:#E0E0E0;fill:color(display-p3 0.8784 0.8784 0.8784);fill-opacity:1;"/>
<path d="M312.093 111.45C312.369 110.778 312.445 110.041 312.312 109.328C312.18 108.614 311.844 107.953 311.345 107.426C310.842 106.849 310.192 106.42 309.464 106.183C308.736 105.946 307.957 105.91 307.211 106.08C307.01 104.962 306.404 103.957 305.51 103.257C304.615 102.558 303.494 102.211 302.361 102.285C301.227 102.359 300.161 102.848 299.365 103.658C298.569 104.469 298.099 105.544 298.045 106.678C297.536 106.764 297.052 106.963 296.629 107.259C296.207 107.556 295.856 107.944 295.602 108.394C295.348 108.844 295.199 109.344 295.164 109.86C295.128 110.375 295.209 110.892 295.399 111.372L312.093 111.45Z" fill="white" style="fill:white;fill-opacity:1;"/>
<path d="M63.261 35H38.6045C34.9569 35 32 37.9569 32 41.6045V66.261C32 69.9085 34.9569 72.8655 38.6045 72.8655H63.261C66.9085 72.8655 69.8655 69.9085 69.8655 66.261V41.6045C69.8655 37.9569 66.9085 35 63.261 35Z" fill="#F0F1F3" style="fill:#F0F1F3;fill:color(display-p3 0.9412 0.9451 0.9529);fill-opacity:1;"/>
<path d="M52.6738 56.5186H49.1202C49.1202 55.8042 49.3348 55.0986 49.7639 54.4017C50.1931 53.7047 50.6996 53.121 51.2833 52.6506C52.7253 51.4658 53.4464 50.3856 53.4464 49.4099C53.4464 48.8001 53.2403 48.3297 52.8283 47.9986C52.4163 47.6676 51.8412 47.5021 51.103 47.5021C49.6609 47.5021 48.6395 48.2774 48.0386 49.8281L45 48.0509C45.515 46.779 46.3305 45.7859 47.4464 45.0715C48.5622 44.3572 49.824 44 51.2318 44C52.7768 44 54.1245 44.4617 55.2747 45.3851C56.4249 46.2912 57 47.5456 57 49.1486C57 49.8629 56.8455 50.5424 56.5365 51.1871C56.2446 51.8143 55.8841 52.3544 55.4549 52.8074C55.0429 53.243 54.6223 53.6612 54.1931 54.0619C53.7811 54.4452 53.4206 54.8459 53.1116 55.2641C52.8197 55.6823 52.6738 56.1004 52.6738 56.5186ZM53.0858 60.7785C53.0858 61.3884 52.8712 61.9111 52.4421 62.3466C52.0129 62.7822 51.4979 63 50.897 63C50.2961 63 49.7811 62.7822 49.3519 62.3466C48.9227 61.9111 48.7082 61.3884 48.7082 60.7785C48.7082 60.1687 48.9227 59.646 49.3519 59.2105C49.7811 58.7749 50.2961 58.5571 50.897 58.5571C51.4979 58.5571 52.0129 58.7749 52.4421 59.2105C52.8712 59.646 53.0858 60.1687 53.0858 60.7785Z" fill="white" style="fill:white;fill-opacity:1;"/>
<path d="M322.174 304.257C322.174 304.348 259.47 304.426 182.14 304.426C104.81 304.426 42.0926 304.348 42.0926 304.257C42.0926 304.166 104.784 304.088 182.14 304.088C259.496 304.088 322.174 304.16 322.174 304.257Z" fill="#263238" style="fill:#263238;fill:color(display-p3 0.1490 0.1961 0.2196);fill-opacity:1;"/>
<path d="M262.206 142.901V90.6892C262.207 89.0445 261.884 87.4158 261.255 85.896C260.627 84.3763 259.704 82.9953 258.542 81.832C257.379 80.6688 255.999 79.746 254.479 79.1164C252.96 78.4868 251.331 78.1627 249.687 78.1627H233.767C233.248 78.1737 232.736 78.2868 232.261 78.4957C231.785 78.7045 231.356 79.005 230.997 79.3798C230.637 79.7547 230.356 80.1967 230.167 80.6805C229.979 81.1643 229.888 81.6805 229.899 82.1995V85.0923C229.92 86.1401 229.524 87.1534 228.799 87.9101C228.074 88.6669 227.079 89.1052 226.031 89.1291H194.998C194.479 89.1173 193.967 89.0033 193.492 88.7937C193.017 88.5841 192.588 88.2829 192.229 87.9074C191.871 87.532 191.59 87.0895 191.402 86.6053C191.215 86.1212 191.124 85.6048 191.136 85.0858V82.1995C191.159 81.1506 190.764 80.1356 190.039 79.3775C189.314 78.6194 188.317 78.1801 187.269 78.1562H167.748C164.425 78.1562 161.238 79.4758 158.888 81.8248C156.537 84.1737 155.216 87.3599 155.215 90.6827L155.176 291.614C155.176 294.935 156.494 298.121 158.842 300.471C161.189 302.821 164.374 304.143 167.696 304.147L249.647 304.192C251.292 304.193 252.922 303.87 254.442 303.241C255.962 302.612 257.343 301.69 258.507 300.528C259.671 299.365 260.594 297.985 261.224 296.465C261.855 294.946 262.18 293.317 262.18 291.672V142.947" fill="white" style="fill:white;fill-opacity:1;"/>
<path d="M262.213 127.346V90.5917C262.189 87.2881 260.86 84.1279 258.516 81.7998C256.172 79.4717 253.003 78.1644 249.7 78.1627H233.78C233.261 78.1737 232.749 78.2868 232.274 78.4957C231.798 78.7045 231.369 79.005 231.01 79.3798C230.65 79.7547 230.369 80.1967 230.18 80.6805C229.992 81.1643 229.901 81.6805 229.912 82.1995V85.0923C229.933 86.1401 229.537 87.1534 228.812 87.9101C228.087 88.6669 227.092 89.1052 226.044 89.1291H195.011C194.492 89.1173 193.98 89.0033 193.505 88.7937C193.03 88.5841 192.601 88.2829 192.242 87.9074C191.884 87.532 191.603 87.0895 191.415 86.6053C191.228 86.1212 191.137 85.6048 191.149 85.0858V82.1995C191.172 81.1506 190.777 80.1356 190.052 79.3775C189.327 78.6194 188.33 78.1801 187.282 78.1562H167.748C164.425 78.1562 161.238 79.4758 158.888 81.8248C156.537 84.1737 155.216 87.3599 155.215 90.6827V127.391L262.213 127.346Z" fill="#1669FF" style="fill:#1669FF;fill:color(display-p3 0.0863 0.4118 1.0000);fill-opacity:1;"/>
<path d="M180.651 101.688H168.196C166.473 101.688 165.076 103.085 165.076 104.808V117.263C165.076 118.987 166.473 120.384 168.196 120.384H180.651C182.374 120.384 183.771 118.987 183.771 117.263V104.808C183.771 103.085 182.374 101.688 180.651 101.688Z" fill="white" style="fill:white;fill-opacity:1;"/>
<path d="M253.203 107.584C253.202 107.849 253.122 108.107 252.974 108.327C252.826 108.546 252.616 108.717 252.371 108.817C252.125 108.917 251.856 108.943 251.597 108.89C251.337 108.837 251.099 108.708 250.913 108.52C250.726 108.332 250.6 108.092 250.55 107.832C250.499 107.572 250.527 107.303 250.629 107.059C250.732 106.815 250.905 106.607 251.126 106.461C251.346 106.314 251.606 106.237 251.871 106.238C252.046 106.239 252.22 106.275 252.383 106.343C252.545 106.411 252.692 106.51 252.816 106.635C252.939 106.76 253.037 106.908 253.104 107.071C253.17 107.234 253.204 107.408 253.203 107.584Z" fill="white" style="fill:white;fill-opacity:1;"/>
<path d="M253.184 112.388C253.184 112.654 253.104 112.915 252.955 113.136C252.806 113.357 252.595 113.528 252.348 113.628C252.101 113.729 251.829 113.753 251.569 113.698C251.308 113.643 251.07 113.511 250.884 113.32C250.698 113.129 250.574 112.887 250.527 112.624C250.48 112.362 250.512 112.092 250.619 111.848C250.726 111.604 250.904 111.398 251.129 111.255C251.355 111.113 251.617 111.041 251.884 111.049C252.058 111.049 252.23 111.084 252.39 111.151C252.551 111.219 252.696 111.318 252.817 111.443C252.938 111.568 253.033 111.716 253.096 111.878C253.159 112.041 253.189 112.214 253.184 112.388Z" fill="white" style="fill:white;fill-opacity:1;"/>
<path d="M253.171 117.198C253.169 117.465 253.089 117.724 252.939 117.944C252.789 118.164 252.577 118.335 252.33 118.434C252.083 118.533 251.812 118.556 251.552 118.501C251.291 118.445 251.054 118.313 250.869 118.122C250.684 117.93 250.56 117.688 250.513 117.426C250.467 117.164 250.499 116.894 250.607 116.65C250.714 116.407 250.892 116.201 251.117 116.059C251.342 115.917 251.605 115.845 251.871 115.853C252.22 115.865 252.55 116.011 252.793 116.263C253.035 116.514 253.171 116.849 253.171 117.198Z" fill="white" style="fill:white;fill-opacity:1;"/>
<path d="M192.521 140.691H171.121C169.193 140.691 167.631 142.254 167.631 144.182V165.582C167.631 167.51 169.193 169.072 171.121 169.072H192.521C194.449 169.072 196.012 167.51 196.012 165.582V144.182C196.012 142.254 194.449 140.691 192.521 140.691Z" fill="#F0F1F3" style="fill:#F0F1F3;fill:color(display-p3 0.9412 0.9451 0.9529);fill-opacity:1;"/>
<path d="M249.791 144.149H203.104V149.441H249.791V144.149Z" fill="#F0F1F3" style="fill:#F0F1F3;fill:color(display-p3 0.9412 0.9451 0.9529);fill-opacity:1;"/>
<path d="M233.799 154.03H203.104V159.322H233.799V154.03Z" fill="#F0F1F3" style="fill:#F0F1F3;fill:color(display-p3 0.9412 0.9451 0.9529);fill-opacity:1;"/>
<path d="M192.521 180.377H171.121C169.193 180.377 167.631 181.94 167.631 183.868V205.267C167.631 207.195 169.193 208.758 171.121 208.758H192.521C194.449 208.758 196.012 207.195 196.012 205.267V183.868C196.012 181.94 194.449 180.377 192.521 180.377Z" fill="#F0F1F3" style="fill:#F0F1F3;fill:color(display-p3 0.9412 0.9451 0.9529);fill-opacity:1;"/>
<path d="M249.791 183.835H203.104V189.126H249.791V183.835Z" fill="#F0F1F3" style="fill:#F0F1F3;fill:color(display-p3 0.9412 0.9451 0.9529);fill-opacity:1;"/>
<path d="M233.799 193.716H203.104V199.007H233.799V193.716Z" fill="#F0F1F3" style="fill:#F0F1F3;fill:color(display-p3 0.9412 0.9451 0.9529);fill-opacity:1;"/>
<path d="M192.723 269.902H171.323C169.395 269.902 167.832 271.465 167.832 273.393V294.792C167.832 296.72 169.395 298.283 171.323 298.283H192.723C194.65 298.283 196.213 296.72 196.213 294.792V273.393C196.213 271.465 194.65 269.902 192.723 269.902Z" fill="#F0F1F3" style="fill:#F0F1F3;fill:color(display-p3 0.9412 0.9451 0.9529);fill-opacity:1;"/>
<path d="M249.992 273.36H203.305V278.652H249.992V273.36Z" fill="#F0F1F3" style="fill:#F0F1F3;fill:color(display-p3 0.9412 0.9451 0.9529);fill-opacity:1;"/>
<path d="M234.001 283.241H203.305V288.532H234.001V283.241Z" fill="#F0F1F3" style="fill:#F0F1F3;fill:color(display-p3 0.9412 0.9451 0.9529);fill-opacity:1;"/>
<path d="M262.187 218.652H155.247V263.928H262.187V218.652Z" fill="#F0F1F3" style="fill:#F0F1F3;fill:color(display-p3 0.9412 0.9451 0.9529);fill-opacity:1;"/>
<path d="M215.786 239.726C216.255 239.998 216.643 240.387 216.914 240.856C217.184 241.325 217.326 241.857 217.326 242.398C217.326 242.939 217.184 243.471 216.914 243.94C216.643 244.409 216.255 244.799 215.786 245.07L210.254 248.294L204.729 251.486C204.26 251.756 203.728 251.898 203.187 251.898C202.645 251.897 202.114 251.755 201.645 251.484C201.176 251.214 200.786 250.824 200.515 250.356C200.244 249.887 200.101 249.356 200.101 248.814V236.015C200.099 235.473 200.241 234.94 200.512 234.47C200.782 234 201.172 233.61 201.641 233.339C202.111 233.068 202.644 232.926 203.186 232.926C203.728 232.927 204.26 233.071 204.729 233.343L210.254 236.535L215.786 239.726Z" fill="white" style="fill:white;fill-opacity:1;"/>
<path d="M175.477 111.237C176.01 111.003 176.463 110.616 176.779 110.126C177.094 109.636 177.259 109.064 177.251 108.481C177.27 108.103 177.211 107.725 177.079 107.371C176.947 107.016 176.744 106.692 176.483 106.418C176.222 106.144 175.908 105.926 175.56 105.777C175.212 105.628 174.838 105.551 174.459 105.551C174.081 105.551 173.706 105.628 173.359 105.777C173.011 105.926 172.697 106.144 172.436 106.418C172.175 106.692 171.972 107.016 171.84 107.371C171.708 107.725 171.649 108.103 171.667 108.481C171.655 109.069 171.818 109.647 172.136 110.143C172.453 110.638 172.91 111.028 173.448 111.263C169.152 111.913 169.347 116.581 169.347 116.581L179.507 116.633C179.507 116.633 179.741 111.881 175.477 111.237Z" fill="#1669FF" style="fill:#1669FF;fill:color(display-p3 0.0863 0.4118 1.0000);fill-opacity:1;"/>
<path d="M231.199 109.983H191.949V114.793H231.199V109.983Z" fill="white" style="fill:white;fill-opacity:1;"/>
<path d="M262.206 142.901C262.206 142.901 262.206 143.48 262.206 144.604C262.206 145.729 262.206 147.406 262.206 149.603C262.206 153.998 262.206 160.479 262.206 168.819C262.206 185.512 262.206 209.662 262.245 239.499C262.245 254.45 262.245 270.766 262.245 288.311V291.614C262.239 292.738 262.088 293.856 261.797 294.942C261.648 295.487 261.468 296.023 261.257 296.547C261.026 297.067 260.766 297.572 260.477 298.062C259.903 299.05 259.191 299.951 258.365 300.74C256.702 302.37 254.613 303.497 252.339 303.991C252.059 304.075 251.767 304.088 251.481 304.147C251.192 304.197 250.902 304.232 250.61 304.251C250.024 304.283 249.439 304.316 248.867 304.303H245.37H216.547H186.248H167.702L166.694 304.251C165.354 304.143 164.039 303.829 162.794 303.321C160.914 302.52 159.253 301.281 157.948 299.708C156.644 298.136 155.733 296.274 155.293 294.279C155.055 292.936 154.959 291.572 155.006 290.209C155.006 287.505 155.006 284.788 155.006 282.058V265.514C155.006 254.428 155.006 243.191 155.006 231.802C155.006 186.253 155.006 142.869 155.045 103.411V92.4118C155.003 91.2005 155.056 89.9878 155.202 88.7846C155.367 87.5815 155.715 86.4108 156.235 85.3133C156.735 84.2182 157.392 83.2021 158.185 82.297C159.764 80.4954 161.819 79.1752 164.114 78.4877C165.247 78.1629 166.419 77.9881 167.598 77.9677H186.358C186.921 77.9422 187.484 77.9683 188.042 78.0457C188.602 78.1616 189.13 78.3956 189.592 78.7319C190.053 79.0681 190.438 79.4991 190.72 79.9959C191.001 80.489 191.182 81.0323 191.253 81.595C191.312 82.1605 191.253 82.6936 191.286 83.2396C191.325 84.3252 191.156 85.4368 191.533 86.4119C191.706 86.9018 191.978 87.3511 192.331 87.7322C192.684 88.1134 193.112 88.4184 193.587 88.6285C194.53 89.0706 195.622 88.8886 196.675 88.9341H209.136H221.104H225.459C225.929 88.9578 226.401 88.9251 226.863 88.8366C227.768 88.6245 228.56 88.079 229.08 87.3089C229.596 86.5438 229.845 85.6298 229.788 84.7087C229.788 83.7727 229.788 82.8561 229.788 81.92C229.822 80.9622 230.182 80.0447 230.809 79.3198C231.424 78.6132 232.273 78.1517 233.201 78.0197C233.653 77.9744 234.107 77.9614 234.56 77.9807H235.892H246.261H248.763C249.588 77.9655 250.413 78.0024 251.234 78.0912C253.588 78.3741 255.815 79.3178 257.655 80.8134C259.496 82.3089 260.876 84.295 261.634 86.5419C262.083 87.9383 262.303 89.3981 262.284 90.8647C262.284 92.2948 262.284 93.699 262.284 95.0706C262.284 97.8268 262.284 100.475 262.284 103.014C262.284 108.091 262.284 112.765 262.284 116.899C262.284 125.246 262.284 131.72 262.252 136.115C262.252 138.312 262.252 139.983 262.252 141.114C262.252 142.245 262.252 142.817 262.252 142.817C262.252 142.817 262.252 142.238 262.252 141.114C262.252 139.989 262.252 138.312 262.252 136.115C262.252 131.72 262.252 125.246 262.252 116.899C262.252 112.732 262.252 108.091 262.252 103.014C262.252 100.479 262.252 97.8311 262.252 95.0706V90.9817C262.27 89.5343 262.05 88.0937 261.602 86.7174C260.616 83.8038 258.578 81.3629 255.888 79.8724C254.483 79.0864 252.937 78.587 251.338 78.4032C250.526 78.3161 249.71 78.2814 248.893 78.2992H234.573C234.139 78.2859 233.705 78.3011 233.273 78.3447C232.396 78.4738 231.597 78.9174 231.023 79.5928C230.436 80.2727 230.099 81.1328 230.068 82.0305C230.068 82.9406 230.068 83.8767 230.068 84.8062C230.126 85.7747 229.861 86.735 229.314 87.5365C228.763 88.3604 227.919 88.9437 226.954 89.1681C226.475 89.2606 225.986 89.2956 225.498 89.2721H195.089C194.535 89.2802 193.986 89.1717 193.477 88.9536C192.969 88.7264 192.512 88.3992 192.133 87.9916C191.755 87.5839 191.462 87.1041 191.273 86.5809C191.088 86.0548 190.998 85.5002 191.006 84.9428V83.3111C191.006 82.7716 191.006 82.2125 191.006 81.699C190.942 81.1721 190.771 80.6636 190.506 80.2039C190.246 79.7284 189.886 79.3153 189.45 78.9931C189.015 78.6709 188.514 78.4475 187.984 78.3382C187.443 78.2618 186.897 78.2378 186.352 78.2667H167.624C166.473 78.2859 165.33 78.4564 164.224 78.7738C161.982 79.4423 159.975 80.734 158.439 82.4986C157.645 83.3771 156.988 84.3697 156.489 85.4433C155.983 86.5147 155.644 87.6566 155.481 88.8301C155.339 90.0183 155.291 91.216 155.338 92.4118V103.411C155.338 142.869 155.338 186.253 155.338 231.802C155.338 243.183 155.338 254.42 155.338 265.514C155.338 271.057 155.338 276.558 155.338 282.019V290.17C155.285 291.509 155.376 292.849 155.611 294.168C156.04 296.111 156.926 297.924 158.196 299.455C159.465 300.987 161.082 302.194 162.911 302.976C164.125 303.472 165.407 303.779 166.714 303.887L167.695 303.939H170.66H186.313H216.612H245.435H248.932C249.511 303.939 250.083 303.939 250.655 303.893C250.939 303.878 251.221 303.843 251.5 303.789C251.782 303.756 252.062 303.706 252.339 303.64C253.445 303.388 254.514 302.993 255.517 302.463C256.502 301.918 257.413 301.249 258.228 300.474C259.035 299.707 259.73 298.832 260.295 297.874C260.577 297.397 260.831 296.904 261.056 296.398C261.263 295.885 261.439 295.359 261.582 294.825C262.232 292.699 261.992 290.463 262.031 288.272C262.031 270.721 262.031 254.385 262.063 239.46C262.063 209.623 262.115 185.473 262.128 168.78C262.128 160.44 262.128 153.959 262.167 149.564C262.167 147.367 262.167 145.664 262.167 144.565C262.167 143.467 262.206 142.901 262.206 142.901Z" fill="#263238" style="fill:#263238;fill:color(display-p3 0.1490 0.1961 0.2196);fill-opacity:1;"/>
<path d="M96.9695 143.448C95.9454 142.898 95.0857 142.086 94.4783 141.095C93.8709 140.105 93.5375 138.97 93.5123 137.808C93.4871 136.646 93.7709 135.498 94.3348 134.482C94.8987 133.466 95.7224 132.618 96.7217 132.024L104.48 130.016C104.89 139.876 105.363 149.733 105.898 159.588C103.849 159.449 101.877 158.749 100.199 157.563C98.6014 156.281 97.6359 154.017 98.4135 152.12C97.602 151.782 96.8896 151.244 96.3433 150.555C95.797 149.867 95.4347 149.051 95.2903 148.184C95.146 147.317 95.2243 146.427 95.518 145.599C95.8118 144.77 96.3112 144.03 96.9695 143.448Z" fill="#263238" style="fill:#263238;fill:color(display-p3 0.1490 0.1961 0.2196);fill-opacity:1;"/>
<path d="M134.53 140.329V136.826L113.374 133.494C106.872 133.007 100.063 139.722 99.8575 146.242C99.6268 153.487 99.6353 162.339 100.661 167.705C102.72 178.496 111.076 179.615 111.076 179.615V190.347C111.204 196.61 116.519 197.823 122.782 197.704C125.721 197.642 128.523 196.441 130.595 194.355C132.667 192.269 133.848 189.459 133.889 186.519L134.53 140.329Z" fill="#FFBF9D" style="fill:#FFBF9D;fill:color(display-p3 1.0000 0.7490 0.6157);fill-opacity:1;"/>
<path d="M105.283 154.957C105.29 155.32 105.438 155.667 105.697 155.922C105.956 156.178 106.304 156.322 106.667 156.324C106.845 156.333 107.022 156.306 107.189 156.246C107.356 156.185 107.509 156.091 107.639 155.97C107.769 155.849 107.873 155.703 107.946 155.54C108.018 155.378 108.057 155.203 108.06 155.025C108.051 154.662 107.902 154.317 107.644 154.062C107.386 153.807 107.039 153.662 106.676 153.658C106.498 153.649 106.321 153.675 106.154 153.736C105.987 153.797 105.834 153.891 105.704 154.012C105.574 154.133 105.47 154.279 105.398 154.442C105.325 154.604 105.286 154.779 105.283 154.957Z" fill="#263238" style="fill:#263238;fill:color(display-p3 0.1490 0.1961 0.2196);fill-opacity:1;"/>
<path d="M102.549 150.121C102.72 150.3 103.754 149.48 105.249 149.437C106.744 149.394 107.872 150.112 108.026 149.924C108.18 149.736 107.915 149.514 107.428 149.181C106.763 148.757 105.985 148.546 105.198 148.574C104.419 148.596 103.668 148.866 103.053 149.343C102.6 149.728 102.455 150.061 102.549 150.121Z" fill="#263238" style="fill:#263238;fill:color(display-p3 0.1490 0.1961 0.2196);fill-opacity:1;"/>
<path d="M118.33 154.854C118.337 155.217 118.486 155.562 118.744 155.816C119.003 156.071 119.352 156.213 119.714 156.213C119.892 156.222 120.069 156.195 120.236 156.135C120.403 156.074 120.556 155.98 120.686 155.859C120.816 155.738 120.92 155.592 120.993 155.429C121.065 155.267 121.104 155.092 121.107 154.914C121.1 154.551 120.951 154.206 120.693 153.952C120.434 153.698 120.086 153.555 119.723 153.556C119.545 153.546 119.368 153.573 119.201 153.634C119.034 153.695 118.881 153.788 118.751 153.91C118.621 154.031 118.517 154.177 118.445 154.339C118.372 154.501 118.333 154.677 118.33 154.854Z" fill="#263238" style="fill:#263238;fill:color(display-p3 0.1490 0.1961 0.2196);fill-opacity:1;"/>
<path d="M117.185 150.018C117.365 150.198 118.398 149.386 119.894 149.343C121.389 149.3 122.508 150.01 122.662 149.822C122.816 149.634 122.559 149.42 122.064 149.087C121.406 148.655 120.629 148.44 119.842 148.472C119.061 148.494 118.308 148.763 117.689 149.241C117.245 149.608 117.1 149.941 117.185 150.018Z" fill="#263238" style="fill:#263238;fill:color(display-p3 0.1490 0.1961 0.2196);fill-opacity:1;"/>
<path d="M111.896 161.869C111.1 161.648 110.279 161.524 109.453 161.502C109.068 161.502 108.709 161.416 108.598 161.151C108.558 160.759 108.635 160.363 108.82 160.015C109.154 159.075 109.495 158.093 109.854 157.067C111.298 152.872 112.323 149.429 112.161 149.377C111.999 149.326 110.683 152.675 109.248 156.862C108.897 157.896 108.564 158.887 108.256 159.827C108.027 160.294 107.972 160.827 108.103 161.331C108.161 161.465 108.251 161.583 108.364 161.677C108.476 161.77 108.609 161.836 108.752 161.869C108.965 161.921 109.183 161.947 109.401 161.946C110.233 162.029 111.072 162.004 111.896 161.869Z" fill="#263238" style="fill:#263238;fill:color(display-p3 0.1490 0.1961 0.2196);fill-opacity:1;"/>
<path d="M111.05 179.65C116.286 179.568 121.4 178.059 125.84 175.284C125.84 175.284 122.32 183.161 111.059 182.52L111.05 179.65Z" fill="#FF9A6C" style="fill:#FF9A6C;fill:color(display-p3 1.0000 0.6039 0.4235);fill-opacity:1;"/>
<path d="M117.698 144.379C117.843 144.789 119.338 144.593 121.115 144.806C122.893 145.02 124.294 145.498 124.533 145.131C124.636 144.96 124.388 144.575 123.815 144.182C123.052 143.697 122.188 143.393 121.289 143.294C120.39 143.195 119.48 143.303 118.629 143.61C117.954 143.866 117.629 144.182 117.698 144.379Z" fill="#263238" style="fill:#263238;fill:color(display-p3 0.1490 0.1961 0.2196);fill-opacity:1;"/>
<path d="M102.925 145.345C103.241 145.661 104.352 145.225 105.727 145.097C107.103 144.969 108.291 145.097 108.513 144.755C108.624 144.576 108.41 144.242 107.88 143.969C107.157 143.625 106.352 143.492 105.556 143.584C104.761 143.656 104.002 143.952 103.369 144.439C102.916 144.832 102.771 145.191 102.925 145.345Z" fill="#263238" style="fill:#263238;fill:color(display-p3 0.1490 0.1961 0.2196);fill-opacity:1;"/>
<path d="M95.7135 136.655C94.6172 135.914 93.763 134.866 93.2571 133.644C92.7513 132.421 92.616 131.076 92.8683 129.777C93.1582 128.487 93.7761 127.293 94.6621 126.311C95.5482 125.329 96.6725 124.592 97.9265 124.172C98.4351 124.007 98.9589 123.892 99.4901 123.83C100.493 123.193 101.644 122.825 102.831 122.762C102.944 122.065 103.259 121.415 103.735 120.893C104.211 120.371 104.83 119.999 105.514 119.823C106.886 119.481 108.32 119.481 109.692 119.823C110.359 118.934 111.227 118.215 112.224 117.725C113.222 117.235 114.321 116.986 115.432 117.001C116.543 117.015 117.636 117.291 118.62 117.806C119.605 118.322 120.454 119.063 121.098 119.968C121.859 119.484 122.721 119.184 123.618 119.091C124.515 118.999 125.421 119.118 126.263 119.437C127.106 119.756 127.863 120.268 128.473 120.931C129.084 121.595 129.531 122.391 129.779 123.258C130.567 123.258 131.346 123.42 132.069 123.733C132.792 124.046 133.444 124.504 133.983 125.078C134.8 126.191 135.496 127.388 136.059 128.649C137.388 128.754 138.652 129.265 139.682 130.111C140.712 130.957 141.458 132.098 141.819 133.381C142.18 134.664 142.14 136.027 141.703 137.286C141.266 138.545 140.453 139.64 139.375 140.423C140.052 141.055 140.573 141.835 140.898 142.703C141.222 143.571 141.34 144.502 141.243 145.423C141.147 146.344 140.837 147.23 140.339 148.011C139.841 148.792 139.169 149.447 138.375 149.924C138.716 150.896 138.857 151.928 138.788 152.956C138.719 153.984 138.442 154.987 137.973 155.905C137.606 156.753 136.936 157.432 136.094 157.811C136.064 157.954 136.012 158.093 135.94 158.221C135.325 159.255 133.718 158.87 132.753 158.144C130.403 156.392 129.079 153.573 128.335 150.736C127.592 147.899 127.344 144.96 126.627 142.123C126.627 142.055 126.627 141.995 126.575 141.918C126.273 140.741 125.706 139.648 124.918 138.723C124.107 139.368 123.25 139.953 122.354 140.474C120.707 141.303 118.839 141.585 117.02 141.277C115.202 140.97 113.53 140.09 112.247 138.765C110.042 140.718 107.227 141.845 104.283 141.952C101.361 142.055 98.4562 141.602 96.1578 139.799C95.5578 139.34 95.0989 138.721 94.8335 138.014C94.791 137.719 94.8568 137.419 95.0186 137.169C95.1804 136.919 95.4273 136.737 95.7135 136.655Z" fill="#263238" style="fill:#263238;fill:color(display-p3 0.1490 0.1961 0.2196);fill-opacity:1;"/>
<path d="M133.24 154.726C133.377 154.649 138.99 152.317 139.451 158.255C139.913 164.193 133.855 163.433 133.838 163.262C133.821 163.091 133.24 154.726 133.24 154.726Z" fill="#FFBF9D" style="fill:#FFBF9D;fill:color(display-p3 1.0000 0.7490 0.6157);fill-opacity:1;"/>
<path d="M135.47 160.869C135.47 160.869 135.581 160.929 135.76 160.998C136.015 161.084 136.294 161.069 136.538 160.955C136.902 160.683 137.188 160.318 137.365 159.9C137.542 159.481 137.605 159.022 137.546 158.571C137.516 158.06 137.376 157.562 137.136 157.11C137.064 156.927 136.948 156.765 136.799 156.637C136.65 156.509 136.473 156.419 136.282 156.375C136.16 156.353 136.034 156.374 135.927 156.435C135.819 156.496 135.736 156.593 135.692 156.708C135.624 156.879 135.692 156.99 135.641 157.007C135.589 157.024 135.504 156.913 135.538 156.666C135.553 156.515 135.627 156.377 135.743 156.281C135.818 156.213 135.905 156.16 136.001 156.126C136.096 156.092 136.198 156.078 136.299 156.085C136.549 156.114 136.787 156.208 136.989 156.358C137.191 156.508 137.351 156.708 137.452 156.939C137.748 157.431 137.916 157.989 137.939 158.562C138.01 159.089 137.924 159.624 137.691 160.102C137.459 160.579 137.09 160.977 136.632 161.245C136.476 161.304 136.309 161.326 136.144 161.311C135.978 161.297 135.818 161.245 135.675 161.16C135.495 161.015 135.453 160.878 135.47 160.869Z" fill="#FF9A6C" style="fill:#FF9A6C;fill:color(display-p3 1.0000 0.6039 0.4235);fill-opacity:1;"/>
<path d="M93.1417 128.76C93.1417 128.76 93.1417 128.811 93.0904 128.905C93.0558 129.049 93.0301 129.194 93.0135 129.341C92.9348 129.912 92.9726 130.494 93.1246 131.05C93.3391 131.922 93.8128 132.708 94.4831 133.306C95.3751 134.087 96.5277 134.504 97.7129 134.476L97.6103 134.382C98.0042 136.293 98.9417 138.05 100.31 139.44C101.072 140.241 101.995 140.87 103.019 141.286C104.107 141.702 105.286 141.823 106.437 141.636C107.568 141.47 108.668 141.136 109.7 140.645C110.688 140.216 111.591 139.614 112.366 138.868H112.187C113.635 140.167 115.405 141.053 117.313 141.431C118.826 141.637 120.366 141.433 121.773 140.842C122.689 140.464 123.532 139.932 124.268 139.27C124.525 139.039 124.713 138.851 124.832 138.723C124.952 138.595 125.012 138.518 125.003 138.509C124.995 138.501 124.738 138.774 124.217 139.21C123.464 139.831 122.62 140.333 121.714 140.696C120.329 141.251 118.823 141.428 117.348 141.209C115.496 140.83 113.779 139.963 112.375 138.697L112.281 138.62L112.195 138.706C111.448 139.422 110.581 140 109.632 140.414C108.622 140.887 107.548 141.209 106.445 141.371C105.331 141.564 104.186 141.451 103.13 141.047C102.143 140.64 101.25 140.035 100.507 139.27C99.1773 137.911 98.2513 136.21 97.8325 134.357V134.263H97.7385C96.6051 134.303 95.498 133.916 94.6369 133.178C93.9758 132.615 93.5019 131.863 93.2784 131.024C93.1253 130.492 93.0675 129.936 93.1075 129.384C93.1075 128.991 93.1588 128.76 93.1417 128.76Z" fill="#455A64" style="fill:#455A64;fill:color(display-p3 0.2706 0.3529 0.3922);fill-opacity:1;"/>
<path d="M135.239 128.393C135.509 129.046 135.723 129.72 135.88 130.409C136.244 132.214 136.011 134.089 135.214 135.749V135.835L135.29 135.895C136.057 136.506 136.647 137.312 136.999 138.227C137.395 139.233 137.473 140.337 137.221 141.389C136.881 142.747 136.038 143.925 134.863 144.687L134.752 144.746L134.821 144.857C135.459 145.973 135.77 147.247 135.718 148.532C135.686 149.543 135.447 150.538 135.017 151.454C134.618 152.268 134.09 153.012 133.453 153.658L133.53 153.538C133.672 153.425 133.806 153.302 133.932 153.171C134.403 152.686 134.795 152.129 135.094 151.522C135.561 150.591 135.826 149.572 135.871 148.532C135.949 147.206 135.653 145.886 135.017 144.721L134.974 144.892C136.208 144.112 137.095 142.889 137.452 141.474C137.722 140.369 137.641 139.207 137.221 138.15C136.844 137.197 136.219 136.362 135.41 135.732V135.877C136.212 134.169 136.416 132.24 135.991 130.401C135.875 129.889 135.706 129.391 135.487 128.914C135.41 128.743 135.342 128.623 135.299 128.538C135.286 128.487 135.266 128.438 135.239 128.393Z" fill="#455A64" style="fill:#455A64;fill:color(display-p3 0.2706 0.3529 0.3922);fill-opacity:1;"/>
<path d="M117.407 163.518C117.703 163.903 117.901 164.354 117.985 164.833C118.069 165.311 118.035 165.803 117.887 166.266C117.74 166.728 117.482 167.148 117.136 167.49C116.791 167.831 116.368 168.084 115.904 168.226C115.538 168.35 115.141 168.35 114.776 168.226C114.478 168.061 114.217 167.836 114.009 167.566C113.802 167.295 113.653 166.985 113.571 166.654C113.357 166.133 113.152 165.603 112.939 165.082C112.892 164.999 112.862 164.909 112.852 164.814C112.842 164.72 112.851 164.625 112.879 164.535C112.936 164.45 113.012 164.379 113.101 164.327C113.19 164.275 113.289 164.244 113.392 164.236L117.296 163.287" fill="#FF9A6C" style="fill:#FF9A6C;fill:color(display-p3 1.0000 0.6039 0.4235);fill-opacity:1;"/>
<path d="M114.861 168.064C115.46 168.147 116.07 168.071 116.63 167.841C117.287 167.632 117.842 167.184 118.185 166.585C118.384 166.214 118.468 165.791 118.424 165.372C118.399 164.941 118.295 164.518 118.117 164.125C117.94 163.742 117.69 163.396 117.382 163.108L117.279 163.014L117.151 163.065C114.588 163.971 112.546 164.432 112.563 164.543C114.186 164.445 115.784 164.09 117.296 163.492L117.066 163.45C117.323 163.695 117.535 163.984 117.689 164.304C117.859 164.586 117.963 164.901 117.994 165.228C118.025 165.555 117.982 165.885 117.869 166.193C117.756 166.501 117.575 166.78 117.34 167.009C117.105 167.238 116.821 167.412 116.51 167.517C115.536 167.918 114.844 167.961 114.861 168.064Z" fill="#263238" style="fill:#263238;fill:color(display-p3 0.1490 0.1961 0.2196);fill-opacity:1;"/>
<path d="M132.069 310.24L143.023 305.352L134.889 287.897L123.243 294.048L132.069 310.24Z" fill="#FFBF9D" style="fill:#FFBF9D;fill:color(display-p3 1.0000 0.7490 0.6157);fill-opacity:1;"/>
<path d="M126.968 292.733L110.213 300.422L101.669 300.901L103.626 335.804C103.626 335.804 107.436 336.146 108.265 333.848C109.094 331.549 116.809 314.973 116.809 314.973L132.702 308.864L126.968 292.733Z" fill="#455A64" style="fill:#455A64;fill:color(display-p3 0.2706 0.3529 0.3922);fill-opacity:1;"/>
<path d="M127.968 290.033L123.277 292.553C122.963 292.723 122.722 293.002 122.601 293.338C122.48 293.673 122.486 294.042 122.619 294.373L128.959 309.898C129.092 310.223 129.339 310.489 129.653 310.646C129.967 310.803 130.328 310.841 130.668 310.752L135.188 309.428C135.381 309.371 135.56 309.275 135.713 309.144C135.866 309.014 135.991 308.854 136.079 308.673C136.166 308.492 136.215 308.294 136.222 308.093C136.229 307.893 136.194 307.692 136.119 307.506L129.327 290.528C129.271 290.405 129.192 290.294 129.093 290.203C128.995 290.111 128.879 290.04 128.752 289.993C128.625 289.947 128.491 289.927 128.356 289.934C128.221 289.94 128.089 289.974 127.968 290.033Z" fill="#E0E0E0" style="fill:#E0E0E0;fill:color(display-p3 0.8784 0.8784 0.8784);fill-opacity:1;"/>
<path d="M127.968 290.033C128.136 289.975 128.312 289.949 128.489 289.956C128.702 289.974 128.903 290.061 129.062 290.204C129.253 290.422 129.39 290.683 129.463 290.964C129.967 292.254 130.677 294.074 131.54 296.304C132.403 298.534 133.496 301.243 134.667 304.208C134.966 304.951 135.265 305.711 135.572 306.489L136.034 307.659C136.093 307.842 136.111 308.036 136.086 308.227C136.061 308.418 135.993 308.6 135.889 308.762C135.78 308.924 135.637 309.062 135.47 309.163C135.286 309.256 135.09 309.325 134.889 309.368L133.607 309.753L130.984 310.522C130.779 310.591 130.567 310.639 130.352 310.667C130.149 310.675 129.946 310.634 129.762 310.547C129.577 310.462 129.414 310.337 129.284 310.18C129.17 310.003 129.075 309.814 129.002 309.616L127.994 307.164C127.336 305.549 126.695 304.002 126.088 302.516L122.842 294.664C122.709 294.415 122.627 294.142 122.602 293.86C122.592 293.601 122.66 293.345 122.799 293.126C123.047 292.673 123.576 292.519 123.986 292.271L126.148 291.092L127.507 290.332C127.671 290.252 127.826 290.155 127.968 290.041L127.473 290.272L126.088 290.981L123.901 292.117L123.243 292.459C122.988 292.587 122.772 292.782 122.619 293.023C122.462 293.28 122.379 293.576 122.38 293.878C122.409 294.175 122.493 294.465 122.628 294.732L125.841 302.635L127.729 307.283C128.054 308.087 128.387 308.907 128.729 309.736C128.807 309.965 128.919 310.181 129.062 310.376C129.217 310.577 129.419 310.738 129.649 310.845C129.88 310.952 130.132 311.002 130.386 310.992C130.516 310.981 130.645 310.959 130.771 310.923L131.104 310.829L133.718 310.06L135.009 309.684C135.233 309.625 135.451 309.542 135.658 309.437C135.867 309.31 136.045 309.138 136.179 308.933C136.312 308.734 136.397 308.507 136.429 308.27C136.46 308.033 136.436 307.792 136.359 307.565C136.205 307.138 136.042 306.771 135.889 306.369C135.572 305.6 135.273 304.84 134.974 304.096C133.77 301.14 132.693 298.474 131.779 296.219C130.865 293.963 130.13 292.203 129.609 290.921C129.522 290.623 129.363 290.35 129.147 290.127C128.97 289.982 128.752 289.898 128.523 289.887C128.383 289.886 128.244 289.912 128.113 289.964L127.968 290.033Z" fill="#263238" style="fill:#263238;fill:color(display-p3 0.1490 0.1961 0.2196);fill-opacity:1;"/>
<path d="M123.73 296.304C124.572 295.321 125.662 294.58 126.886 294.158C128.11 293.736 129.424 293.648 130.694 293.903C129.446 293.976 128.211 294.188 127.011 294.535C125.855 295.002 124.755 295.595 123.73 296.304Z" fill="#263238" style="fill:#263238;fill:color(display-p3 0.1490 0.1961 0.2196);fill-opacity:1;"/>
<path d="M125.84 302.208C126.898 301.465 128.047 300.859 129.258 300.405C130.404 299.841 131.615 299.419 132.864 299.149C131.764 299.763 130.622 300.297 129.446 300.747C128.28 301.318 127.075 301.806 125.84 302.208Z" fill="#263238" style="fill:#263238;fill:color(display-p3 0.1490 0.1961 0.2196);fill-opacity:1;"/>
<path d="M128.523 308.275C129.778 307.982 130.984 307.51 132.103 306.873C133.15 306.129 134.08 305.234 134.863 304.216C134.781 304.6 134.604 304.958 134.351 305.258C133.807 306.035 133.116 306.697 132.317 307.207C131.518 307.717 130.627 308.069 129.694 308.24C129.312 308.342 128.911 308.354 128.523 308.275Z" fill="#263238" style="fill:#263238;fill:color(display-p3 0.1490 0.1961 0.2196);fill-opacity:1;"/>
<path d="M104.736 300.756L105.539 335.693L103.591 335.804L101.737 300.918L104.736 300.756Z" fill="#263238" style="fill:#263238;fill:color(display-p3 0.1490 0.1961 0.2196);fill-opacity:1;"/>
<path d="M109.333 321.792C109.645 321.656 109.984 321.592 110.324 321.606C110.665 321.619 110.998 321.709 111.298 321.869C112.358 322.287 112.87 323.107 112.768 323.167C112.665 323.227 112.076 322.646 111.136 322.313C110.196 321.98 109.35 321.928 109.333 321.792Z" fill="#263238" style="fill:#263238;fill:color(display-p3 0.1490 0.1961 0.2196);fill-opacity:1;"/>
<path d="M111.127 316.896C111.905 316.763 112.704 316.944 113.349 317.4C114.485 318.049 115.006 319.006 114.904 319.109C114.801 319.211 114.169 318.417 113.127 317.836C112.084 317.255 111.119 317.024 111.127 316.896Z" fill="#263238" style="fill:#263238;fill:color(display-p3 0.1490 0.1961 0.2196);fill-opacity:1;"/>
<path d="M115.092 311.838C115.177 311.761 115.844 312.342 116.297 313.316C116.642 313.874 116.772 314.539 116.664 315.187C116.355 314.642 116.098 314.07 115.895 313.478C115.476 312.598 114.998 311.923 115.092 311.838Z" fill="#263238" style="fill:#263238;fill:color(display-p3 0.1490 0.1961 0.2196);fill-opacity:1;"/>
<path d="M121.867 308.839C122.252 309.374 122.509 309.991 122.619 310.641C122.871 311.252 122.982 311.912 122.944 312.572C122.563 312.034 122.307 311.419 122.192 310.77C121.945 310.157 121.834 309.498 121.867 308.839Z" fill="#263238" style="fill:#263238;fill:color(display-p3 0.1490 0.1961 0.2196);fill-opacity:1;"/>
<path d="M122.713 311.914C122.056 312.582 121.521 313.36 121.133 314.213C120.959 314.647 120.836 315.1 120.765 315.563C120.718 315.803 120.718 316.049 120.765 316.289C120.825 316.528 120.953 316.656 121.124 316.631C121.353 316.539 121.544 316.369 121.662 316.152C121.83 315.906 121.981 315.649 122.115 315.383C122.396 314.815 122.586 314.207 122.679 313.581C122.735 313.236 122.758 312.887 122.747 312.538H123.183C123.297 313.079 123.574 313.571 123.978 313.948C124.369 314.306 124.796 314.624 125.251 314.896C125.473 315.033 125.704 315.178 125.772 315.127C125.84 315.076 125.875 314.913 125.772 314.725C125.615 314.355 125.392 314.017 125.114 313.726C124.528 313.154 123.799 312.75 123.004 312.555C123.23 312.521 123.461 312.539 123.679 312.607C124.208 312.736 124.701 312.982 125.121 313.328C125.541 313.675 125.878 314.111 126.105 314.606C126.159 314.736 126.185 314.875 126.182 315.016C126.182 315.112 126.155 315.207 126.103 315.289C126.052 315.37 125.979 315.436 125.892 315.477C125.807 315.505 125.718 315.514 125.63 315.506C125.542 315.497 125.456 315.47 125.379 315.426C125.256 315.368 125.136 315.302 125.02 315.23C124.528 314.956 124.069 314.626 123.653 314.247C123.177 313.816 122.851 313.244 122.722 312.615L123.166 312.572C123.195 313.627 122.96 314.673 122.483 315.614C122.341 315.914 122.173 316.2 121.978 316.469C121.802 316.778 121.51 317.005 121.167 317.101C121.063 317.117 120.958 317.108 120.858 317.075C120.759 317.043 120.668 316.987 120.594 316.913C120.476 316.78 120.396 316.618 120.364 316.443C120.31 316.161 120.31 315.871 120.364 315.588C120.452 315.099 120.601 314.623 120.808 314.17C121.106 313.525 121.526 312.945 122.047 312.461C122.423 312.026 122.696 311.889 122.713 311.914Z" fill="#263238" style="fill:#263238;fill:color(display-p3 0.1490 0.1961 0.2196);fill-opacity:1;"/>
<path d="M111.913 305.891C111.952 306.176 112.074 306.443 112.264 306.659C112.454 306.874 112.704 307.029 112.982 307.102C113.261 307.175 113.554 307.164 113.826 307.071C114.098 306.977 114.336 306.805 114.51 306.576C114.684 306.347 114.786 306.071 114.803 305.784C114.82 305.497 114.752 305.211 114.606 304.963C114.461 304.715 114.245 304.516 113.986 304.39C113.727 304.265 113.437 304.219 113.152 304.259C112.963 304.284 112.782 304.346 112.617 304.442C112.452 304.538 112.308 304.665 112.193 304.817C112.078 304.969 111.994 305.142 111.946 305.326C111.898 305.51 111.887 305.702 111.913 305.891Z" fill="#F5F5F5" style="fill:#F5F5F5;fill:color(display-p3 0.9608 0.9608 0.9608);fill-opacity:1;"/>
<path d="M85.8449 271.047C85.8449 271.047 69.4058 268.997 64.1682 270.065C58.9306 271.133 49.0534 277.327 50.0018 286.735C50.9502 296.142 57.1704 302.883 64.7834 304.071C72.3963 305.258 114.947 309.573 131.428 309.351C145.373 309.163 152.951 305.626 151.362 303.456C151.362 303.456 166.05 297.868 167.596 297.218C168.784 296.706 190.367 286.017 192.631 282.087C194.895 278.156 200.252 264.827 190.845 258.163C181.438 251.498 165.366 256.018 162.512 258.163C161.111 259.214 158.608 259.94 153.575 263.614L148.756 260.341C148.423 260.598 109.76 263.298 94.4575 263.998C91.8601 264.092 85.8449 271.047 85.8449 271.047Z" fill="#263238" style="fill:#263238;fill:color(display-p3 0.1490 0.1961 0.2196);fill-opacity:1;"/>
<path d="M131.992 294.031C131.565 292.211 131.377 291.545 131.847 290.366C132.381 289.21 133.122 288.161 134.034 287.273C134.278 286.923 134.59 286.625 134.951 286.397C135.312 286.17 135.715 286.017 136.136 285.949C137.213 285.949 137.965 286.974 138.537 287.888C140.628 291.237 142.858 294.501 145.227 297.68C146.483 299.586 148.11 301.219 150.012 302.482C150.73 302.9 151.636 303.404 151.593 304.242C151.593 304.9 150.935 305.344 150.354 305.669C149.274 306.278 148.148 306.804 146.987 307.241C145.955 307.807 144.763 308.014 143.599 307.829C142.436 307.643 141.367 307.075 140.562 306.215C136.48 302.99 133.455 298.62 131.873 293.664" fill="#263238" style="fill:#263238;fill:color(display-p3 0.1490 0.1961 0.2196);fill-opacity:1;"/>
<path d="M131.873 293.664C131.896 293.714 131.916 293.765 131.933 293.818L132.095 294.262C132.232 294.655 132.445 295.236 132.761 295.971C133.646 298.015 134.795 299.934 136.179 301.678C137.144 302.88 138.201 304.006 139.34 305.045C139.956 305.6 140.605 306.164 141.306 306.685C142.005 307.244 142.839 307.609 143.724 307.745C144.662 307.806 145.603 307.654 146.475 307.301C147.408 306.96 148.321 306.566 149.209 306.121C149.662 305.891 150.123 305.652 150.55 305.387C150.767 305.284 150.957 305.132 151.105 304.944C151.253 304.756 151.356 304.536 151.405 304.302C151.396 304.063 151.325 303.832 151.199 303.629C151.074 303.427 150.897 303.261 150.687 303.148C150.277 302.849 149.781 302.61 149.329 302.294C147.63 301.011 146.16 299.451 144.98 297.68C143.766 296.039 142.63 294.433 141.562 292.878C140.494 291.323 139.537 289.828 138.657 288.409C138.282 287.712 137.798 287.08 137.221 286.538C136.946 286.309 136.611 286.164 136.256 286.119C135.916 286.097 135.576 286.178 135.282 286.35C134.729 286.716 134.236 287.166 133.821 287.683C133.413 288.119 133.031 288.579 132.676 289.059C132.081 289.793 131.71 290.683 131.608 291.622C131.63 292.224 131.713 292.822 131.856 293.408L131.95 293.878C131.95 293.98 131.95 294.04 131.95 294.04C131.95 294.04 131.95 293.989 131.898 293.886L131.77 293.425C131.599 292.835 131.498 292.227 131.471 291.613C131.54 290.633 131.9 289.696 132.505 288.922C132.859 288.428 133.242 287.954 133.65 287.504C134.08 286.968 134.587 286.498 135.154 286.111C135.489 285.914 135.876 285.821 136.264 285.846C136.666 285.892 137.045 286.052 137.358 286.307C137.967 286.858 138.478 287.508 138.87 288.23C139.725 289.64 140.733 291.126 141.793 292.673C142.852 294.219 143.997 295.817 145.21 297.458C146.378 299.193 147.821 300.725 149.482 301.995C149.918 302.294 150.405 302.524 150.858 302.849C151.093 303.009 151.298 303.209 151.465 303.439C151.646 303.684 151.732 303.988 151.704 304.293C151.652 304.576 151.535 304.844 151.364 305.075C151.192 305.306 150.969 305.494 150.713 305.626C150.26 305.908 149.807 306.139 149.346 306.369C148.445 306.822 147.518 307.219 146.569 307.557C145.652 307.922 144.665 308.077 143.681 308.01C142.742 307.867 141.857 307.478 141.118 306.882C140.427 306.348 139.765 305.777 139.135 305.173C137.989 304.123 136.931 302.98 135.974 301.755C134.569 299.991 133.419 298.038 132.556 295.954C132.323 295.396 132.12 294.825 131.95 294.245L131.821 293.784C131.873 293.664 131.864 293.664 131.873 293.664Z" fill="#455A64" style="fill:#455A64;fill:color(display-p3 0.2706 0.3529 0.3922);fill-opacity:1;"/>
<path d="M171.321 259.778C171.321 259.778 171.168 259.778 170.877 259.82C170.456 259.891 170.039 259.988 169.63 260.111C168.562 260.418 167.066 260.965 165.153 261.606C164.221 261.939 163.153 262.315 162.068 262.657C160.996 263.271 160.03 264.053 159.206 264.972C157.3 266.801 155.224 268.826 153.062 270.953C148.731 275.226 144.928 279.25 142.263 282.223C140.93 283.701 139.87 284.923 139.135 285.769L138.281 286.743C138.189 286.861 138.086 286.97 137.973 287.068C137.973 287.068 138.05 286.931 138.23 286.7L139.024 285.692C139.725 284.838 140.733 283.573 142.075 282.069C144.698 279.053 148.483 275.02 152.815 270.723C154.976 268.578 157.087 266.562 158.984 264.742C159.835 263.804 160.834 263.01 161.94 262.392C163.093 262.033 164.102 261.7 165.059 261.375C166.947 260.734 168.476 260.247 169.587 259.974C170.002 259.862 170.425 259.782 170.852 259.735C170.965 259.717 171.08 259.717 171.193 259.735L171.321 259.778Z" fill="#455A64" style="fill:#455A64;fill:color(display-p3 0.2706 0.3529 0.3922);fill-opacity:1;"/>
<path d="M114.22 290.528L113.793 290.34L112.597 289.751L108.214 287.521L101.737 284.18C99.1416 282.739 96.4494 281.48 93.6799 280.412C92.2331 279.912 90.7385 279.562 89.2198 279.369C88.4746 279.265 87.7508 279.043 87.0752 278.712C86.4556 278.34 85.9132 277.853 85.4775 277.276C84.6356 276.301 83.5139 275.609 82.2648 275.294C81.1799 275.015 80.0608 274.891 78.9411 274.926C76.8734 274.995 75.1987 275.234 74.0367 275.234C73.4557 275.234 73.0029 275.234 72.6953 275.191C72.54 275.185 72.3856 275.165 72.2339 275.131H72.7038C73.0029 275.131 73.4557 275.131 74.0367 275.131C75.1902 275.131 76.8478 274.824 78.9326 274.721C80.0825 274.663 81.2347 274.778 82.3503 275.063C82.9719 275.226 83.5694 275.471 84.1275 275.789C84.7179 276.138 85.2463 276.583 85.6911 277.105C86.1088 277.649 86.6246 278.11 87.2119 278.464C87.8598 278.773 88.5515 278.981 89.2626 279.079C90.8004 279.278 92.3145 279.63 93.7825 280.13C96.5641 281.206 99.2653 282.479 101.865 283.941L108.316 287.358L112.648 289.682L113.819 290.323C113.959 290.379 114.093 290.447 114.22 290.528Z" fill="#455A64" style="fill:#455A64;fill:color(display-p3 0.2706 0.3529 0.3922);fill-opacity:1;"/>
<path d="M122.209 311.453L110.948 309.155L114.938 291.143L127.105 294.484L122.209 311.453Z" fill="#FFBF9D" style="fill:#FFBF9D;fill:color(display-p3 1.0000 0.7490 0.6157);fill-opacity:1;"/>
<path d="M126.319 295.544L143.963 300.901L152.507 300.217L155.318 335.027C155.318 335.027 151.584 335.881 150.456 333.728C149.329 331.575 139.409 316.187 139.409 316.187L122.833 312.299L126.319 295.544Z" fill="#455A64" style="fill:#455A64;fill:color(display-p3 0.2706 0.3529 0.3922);fill-opacity:1;"/>
<path d="M124.986 293.006L130.001 294.86C130.328 294.992 130.594 295.238 130.752 295.553C130.909 295.868 130.946 296.229 130.856 296.569L126.695 312.846C126.606 313.192 126.391 313.493 126.093 313.691C125.795 313.888 125.434 313.967 125.08 313.914L120.423 313.213C120.224 313.185 120.032 313.114 119.862 313.007C119.691 312.9 119.545 312.757 119.433 312.59C119.321 312.422 119.245 312.233 119.211 312.034C119.177 311.835 119.186 311.631 119.236 311.436L123.653 293.664C123.69 293.528 123.755 293.402 123.844 293.293C123.934 293.185 124.045 293.096 124.171 293.034C124.297 292.972 124.435 292.937 124.576 292.932C124.716 292.928 124.856 292.953 124.986 293.006Z" fill="#E0E0E0" style="fill:#E0E0E0;fill:color(display-p3 0.8784 0.8784 0.8784);fill-opacity:1;"/>
<path d="M124.986 293.006C124.811 292.975 124.632 292.975 124.456 293.006C124.248 293.05 124.06 293.165 123.927 293.331C123.765 293.573 123.665 293.852 123.636 294.142C123.311 295.484 122.859 297.381 122.295 299.713C121.731 302.046 121.039 304.84 120.278 307.967C120.079 308.736 119.882 309.531 119.689 310.351C119.586 310.752 119.492 311.154 119.39 311.573C119.355 311.762 119.364 311.956 119.416 312.141C119.468 312.326 119.561 312.497 119.689 312.641C119.818 312.788 119.979 312.904 120.159 312.982C120.352 313.051 120.553 313.094 120.757 313.111L122.081 313.307L124.781 313.717C124.995 313.758 125.213 313.775 125.43 313.769C125.634 313.754 125.831 313.69 126.003 313.581C126.171 313.466 126.314 313.318 126.422 313.145C126.517 312.96 126.584 312.761 126.618 312.555C126.849 311.701 127.071 310.846 127.284 309.992L128.54 305.13C129.395 302.046 130.078 299.26 130.694 296.911C130.791 296.637 130.835 296.347 130.822 296.056C130.797 295.796 130.696 295.55 130.531 295.347C130.215 294.937 129.677 294.86 129.233 294.664L126.934 293.809L125.482 293.245C125.31 293.185 125.145 293.111 124.986 293.023C125.163 293.063 125.337 293.114 125.507 293.177L126.977 293.69L129.301 294.544L130.002 294.8C130.27 294.889 130.507 295.052 130.685 295.27C130.879 295.502 131.003 295.783 131.044 296.082C131.058 296.392 131.015 296.702 130.916 296.996C130.326 299.346 129.617 302.123 128.831 305.233C128.438 306.779 128.028 308.411 127.592 310.095C127.378 310.949 127.156 311.803 126.934 312.658C126.892 312.894 126.811 313.122 126.695 313.333C126.567 313.554 126.389 313.742 126.174 313.88C125.959 314.013 125.716 314.095 125.465 314.119C125.337 314.136 125.208 314.136 125.08 314.119L124.738 314.068L122.038 313.666L120.714 313.461C120.48 313.441 120.25 313.389 120.03 313.307C119.695 313.167 119.417 312.915 119.245 312.595C119.072 312.275 119.015 311.905 119.082 311.547C119.176 311.111 119.287 310.693 119.381 310.308L119.988 307.924C120.765 304.831 121.474 302.046 122.072 299.688C122.671 297.329 123.166 295.484 123.508 294.142C123.552 293.834 123.669 293.541 123.85 293.288C124.005 293.118 124.212 293.004 124.439 292.963C124.577 292.929 124.721 292.929 124.858 292.963C124.943 292.986 124.986 293 124.986 293.006Z" fill="#263238" style="fill:#263238;fill:color(display-p3 0.1490 0.1961 0.2196);fill-opacity:1;"/>
<path d="M130.01 298.637C129.083 297.716 127.885 297.117 126.592 296.928C125.327 296.609 123.993 296.699 122.782 297.184C124.027 297.095 125.279 297.137 126.515 297.312C127.727 297.62 128.899 298.065 130.01 298.637Z" fill="#263238" style="fill:#263238;fill:color(display-p3 0.1490 0.1961 0.2196);fill-opacity:1;"/>
<path d="M128.763 304.771C127.622 304.187 126.414 303.745 125.166 303.456C123.954 303.049 122.697 302.794 121.423 302.695C122.611 303.156 123.83 303.53 125.072 303.815C126.278 304.218 127.512 304.538 128.763 304.771Z" fill="#263238" style="fill:#263238;fill:color(display-p3 0.1490 0.1961 0.2196);fill-opacity:1;"/>
<path d="M126.891 311.145C125.612 311.042 124.354 310.755 123.158 310.291C122.017 309.698 120.971 308.938 120.056 308.035C120.056 308.035 120.218 308.463 120.705 309.001C122.013 310.4 123.816 311.231 125.729 311.316C126.125 311.348 126.522 311.29 126.891 311.145Z" fill="#263238" style="fill:#263238;fill:color(display-p3 0.1490 0.1961 0.2196);fill-opacity:1;"/>
<path d="M149.431 300.465L153.396 335.189L155.335 335.027L152.43 300.217L149.431 300.465Z" fill="#263238" style="fill:#263238;fill:color(display-p3 0.1490 0.1961 0.2196);fill-opacity:1;"/>
<path d="M147.739 321.937C147.739 322.065 146.885 322.15 146.031 322.663C145.176 323.176 144.638 323.834 144.527 323.757C144.416 323.68 144.817 322.834 145.817 322.27C146.091 322.072 146.406 321.939 146.74 321.881C147.073 321.823 147.415 321.842 147.739 321.937Z" fill="#263238" style="fill:#263238;fill:color(display-p3 0.1490 0.1961 0.2196);fill-opacity:1;"/>
<path d="M145.296 317.323C145.296 317.451 144.373 317.742 143.433 318.476C142.493 319.211 141.963 320.049 141.844 319.989C142.024 319.218 142.5 318.549 143.168 318.126C143.452 317.858 143.786 317.649 144.151 317.511C144.517 317.373 144.906 317.309 145.296 317.323Z" fill="#263238" style="fill:#263238;fill:color(display-p3 0.1490 0.1961 0.2196);fill-opacity:1;"/>
<path d="M140.682 312.854C140.547 313.458 140.355 314.047 140.109 314.614C139.996 315.221 139.818 315.814 139.58 316.383C139.38 315.757 139.416 315.079 139.682 314.478C139.998 313.452 140.588 312.786 140.682 312.854Z" fill="#263238" style="fill:#263238;fill:color(display-p3 0.1490 0.1961 0.2196);fill-opacity:1;"/>
<path d="M133.53 310.804C133.655 311.452 133.637 312.12 133.479 312.76C133.459 313.42 133.287 314.067 132.975 314.649C132.867 313.341 133.056 312.027 133.53 310.804Z" fill="#263238" style="fill:#263238;fill:color(display-p3 0.1490 0.1961 0.2196);fill-opacity:1;"/>
<path d="M133.146 313.965C133.399 314.029 133.633 314.152 133.829 314.324C134.411 314.738 134.907 315.26 135.29 315.862C135.555 316.282 135.767 316.732 135.923 317.203C136.018 317.478 136.064 317.767 136.059 318.058C136.058 318.236 136.002 318.409 135.897 318.553C135.834 318.636 135.753 318.704 135.659 318.75C135.566 318.796 135.463 318.819 135.359 318.818C135.02 318.761 134.715 318.578 134.504 318.306C134.282 318.072 134.079 317.821 133.898 317.554C133.517 316.994 133.229 316.376 133.043 315.725C132.941 315.367 132.869 315.002 132.83 314.632H133.274C133.222 315.26 132.977 315.857 132.573 316.34C132.209 316.768 131.8 317.155 131.352 317.494C131.24 317.579 131.155 317.656 131.027 317.742C130.956 317.796 130.874 317.834 130.787 317.853C130.7 317.873 130.61 317.872 130.523 317.853C130.432 317.827 130.35 317.775 130.288 317.704C130.226 317.633 130.185 317.545 130.172 317.451C130.142 317.31 130.142 317.165 130.172 317.024C130.303 316.592 130.515 316.189 130.796 315.836C131.19 315.341 131.705 314.955 132.291 314.717C132.5 314.619 132.728 314.57 132.958 314.572C132.2 314.877 131.534 315.375 131.027 316.016C130.792 316.344 130.618 316.711 130.514 317.101C130.463 317.297 130.514 317.502 130.591 317.494C130.668 317.485 130.882 317.366 131.078 317.195C131.495 316.866 131.874 316.49 132.206 316.076C132.557 315.652 132.766 315.129 132.804 314.58H133.248C133.286 314.924 133.351 315.264 133.445 315.597C133.638 316.208 133.926 316.785 134.299 317.306C134.468 317.555 134.654 317.792 134.855 318.015C134.999 318.215 135.212 318.355 135.453 318.408C135.624 318.408 135.735 318.263 135.76 318.024C135.768 317.78 135.731 317.536 135.649 317.306C135.523 316.855 135.342 316.422 135.111 316.016C134.582 315.222 133.916 314.528 133.146 313.965Z" fill="#263238" style="fill:#263238;fill:color(display-p3 0.1490 0.1961 0.2196);fill-opacity:1;"/>
<path d="M143.023 306.523C143.025 306.811 142.941 307.093 142.782 307.333C142.623 307.573 142.396 307.761 142.13 307.872C141.865 307.983 141.572 308.012 141.289 307.957C141.007 307.901 140.747 307.762 140.543 307.559C140.34 307.355 140.201 307.095 140.145 306.813C140.09 306.53 140.119 306.238 140.23 305.972C140.341 305.706 140.529 305.479 140.769 305.32C141.009 305.161 141.291 305.077 141.579 305.079C141.961 305.081 142.327 305.234 142.598 305.504C142.868 305.775 143.021 306.141 143.023 306.523Z" fill="#F5F5F5" style="fill:#F5F5F5;fill:color(display-p3 0.9608 0.9608 0.9608);fill-opacity:1;"/>
<path d="M115.015 311.051C118.245 306.831 119.561 301.396 119.791 296.082C119.936 294.897 119.756 293.695 119.27 292.604C118.766 291.788 118.078 291.101 117.262 290.597C116.06 289.759 114.778 289.044 113.434 288.461C113.251 288.35 113.046 288.282 112.833 288.261C112.62 288.241 112.405 288.268 112.204 288.341C111.768 288.589 111.7 289.195 111.683 289.682C111.407 296.077 109.908 302.359 107.265 308.189C107.151 308.441 107.097 308.716 107.108 308.993C107.119 309.269 107.194 309.539 107.327 309.782C107.461 310.024 107.649 310.232 107.877 310.388C108.105 310.545 108.367 310.646 108.641 310.684L111.691 311.086C112.794 311.244 113.915 311.232 115.015 311.051Z" fill="#263238" style="fill:#263238;fill:color(display-p3 0.1490 0.1961 0.2196);fill-opacity:1;"/>
<path d="M115.015 311.051H114.861L114.425 311.12C113.858 311.182 113.287 311.199 112.717 311.171C111.973 311.171 111.085 311 110.042 310.881C109.512 310.804 108.974 310.77 108.333 310.65C108.01 310.562 107.716 310.387 107.484 310.145C107.253 309.902 107.091 309.601 107.018 309.274C106.931 308.923 106.952 308.554 107.077 308.215C107.205 307.873 107.351 307.565 107.496 307.232C107.769 306.574 108.051 305.882 108.35 305.156C108.93 303.613 109.432 302.042 109.854 300.448C110.832 296.791 111.405 293.037 111.563 289.255C111.585 288.978 111.67 288.709 111.811 288.469C111.894 288.344 112.005 288.24 112.136 288.166C112.266 288.091 112.413 288.049 112.563 288.042C113.083 288.089 113.587 288.246 114.041 288.503C114.924 288.915 115.78 289.383 116.604 289.904C117.421 290.389 118.17 290.978 118.834 291.656C119.461 292.346 119.845 293.222 119.928 294.151C120.004 295.004 120.004 295.862 119.928 296.714C119.877 297.569 119.791 298.346 119.689 299.115C119.506 300.558 119.22 301.985 118.834 303.387C118.287 305.411 117.462 307.349 116.382 309.146C116.087 309.634 115.765 310.105 115.417 310.556L115.143 310.906L115.049 311.017C115.049 311.017 115.049 310.966 115.126 310.881L115.374 310.513C115.587 310.206 115.904 309.719 116.228 309.078C117.26 307.273 118.047 305.339 118.569 303.327C118.949 301.941 119.234 300.531 119.424 299.107C119.518 298.338 119.595 297.543 119.637 296.723C119.718 295.885 119.718 295.04 119.637 294.202C119.561 293.333 119.201 292.514 118.612 291.87C117.965 291.209 117.236 290.635 116.442 290.161C115.618 289.647 114.762 289.187 113.879 288.785C113.473 288.547 113.022 288.399 112.554 288.349C112.118 288.349 111.896 288.802 111.862 289.272C111.714 293.07 111.141 296.838 110.153 300.508C109.692 302.217 109.171 303.78 108.615 305.233C108.333 305.959 108.043 306.651 107.761 307.318C107.616 307.642 107.453 307.976 107.334 308.283C107.225 308.578 107.204 308.899 107.274 309.206C107.337 309.496 107.477 309.764 107.68 309.981C107.884 310.197 108.142 310.355 108.427 310.436C108.983 310.547 109.564 310.607 110.076 310.684C111.11 310.821 112.007 310.983 112.734 311.026C113.303 311.065 113.874 311.065 114.442 311.026H114.887C114.964 311.051 115.006 311.043 115.015 311.051Z" fill="#455A64" style="fill:#455A64;fill:color(display-p3 0.2706 0.3529 0.3922);fill-opacity:1;"/>
<path d="M113.212 287.828C113.135 287.871 112.597 286.888 111.563 285.436C108.847 281.632 105.207 278.582 100.985 276.575C99.3704 275.815 98.3195 275.465 98.3451 275.379C98.6073 275.4 98.8657 275.455 99.1141 275.542C99.8 275.74 100.473 275.98 101.131 276.259C103.292 277.191 105.307 278.431 107.112 279.942C108.929 281.455 110.511 283.232 111.802 285.214C112.2 285.807 112.557 286.426 112.87 287.068C113.025 287.301 113.14 287.558 113.212 287.828Z" fill="#455A64" style="fill:#455A64;fill:color(display-p3 0.2706 0.3529 0.3922);fill-opacity:1;"/>
<path d="M143.356 273.653C142.86 274.331 142.315 274.971 141.724 275.567C140.707 276.729 139.34 278.37 137.965 280.284C136.589 282.198 135.478 284.018 134.709 285.359C134.338 286.11 133.906 286.83 133.419 287.512C133.657 286.702 133.986 285.923 134.402 285.188C135.327 283.381 136.383 281.645 137.563 279.993C138.748 278.341 140.056 276.782 141.476 275.328C142.035 274.698 142.666 274.136 143.356 273.653Z" fill="#455A64" style="fill:#455A64;fill:color(display-p3 0.2706 0.3529 0.3922);fill-opacity:1;"/>
<path d="M75.9421 224.345C75.8396 223.798 78.0953 209.657 82.2478 199.917C83.7601 196.354 84.8709 193.867 86.4174 192.329C87.9358 190.867 89.6853 189.666 91.5952 188.775L111.179 184.358C111.179 184.358 109.829 191.27 122.645 190.432C132.197 189.817 133.838 182.854 133.838 182.854C133.838 182.854 152.763 184.981 157.352 189.185C161.94 193.389 166.357 217.894 166.357 217.894L148.56 223.071L146.441 249.012L152.328 261.905C152.328 261.905 134.539 275.302 122.329 274.67C110.119 274.038 88.7927 266.98 88.7927 266.98L96.6106 250.533L91.6635 226.062L75.9421 224.345Z" fill="#1669FF" style="fill:#1669FF;fill:color(display-p3 0.0863 0.4118 1.0000);fill-opacity:1;"/>
<path d="M86.7079 204.804C86.8098 205.08 86.8814 205.367 86.9215 205.658C87.0497 206.291 87.212 207.085 87.4 208.051C87.8016 210.059 88.3826 212.844 89.1088 215.894C89.8351 218.945 90.5357 221.696 91.074 223.678C91.3218 224.626 91.5354 225.387 91.6977 226.036C91.7863 226.315 91.852 226.601 91.8942 226.891C91.7552 226.619 91.6463 226.332 91.5696 226.036C91.3816 225.498 91.1338 224.703 90.8348 223.712C90.2452 221.747 89.4933 218.996 88.7756 215.937C88.0579 212.878 87.5196 210.084 87.1778 208.059C87.0069 207.042 86.8873 206.222 86.8104 205.65C86.7534 205.371 86.7191 205.088 86.7079 204.804Z" fill="#263238" style="fill:#263238;fill:color(display-p3 0.1490 0.1961 0.2196);fill-opacity:1;"/>
<path d="M149.918 200.438C150.277 200.395 150.106 205.692 149.688 212.143C149.482 215.382 149.26 218.304 149.072 220.423C148.978 221.422 148.901 222.268 148.842 222.926C148.825 223.235 148.779 223.541 148.705 223.84C148.672 223.531 148.672 223.219 148.705 222.909C148.705 222.251 148.782 221.414 148.833 220.406C148.97 218.218 149.149 215.322 149.354 212.126C149.559 208.931 149.722 206.034 149.858 203.847C149.975 202.714 149.995 201.574 149.918 200.438Z" fill="#263238" style="fill:#263238;fill:color(display-p3 0.1490 0.1961 0.2196);fill-opacity:1;"/>
<path d="M135.436 248.08C135.105 248.274 134.76 248.44 134.402 248.576C134.069 248.73 133.658 248.909 133.171 249.097C132.684 249.285 132.129 249.507 131.463 249.712C130.004 250.209 128.521 250.632 127.02 250.977C125.177 251.39 123.311 251.692 121.432 251.883C119.552 252.062 117.663 252.13 115.775 252.088C114.235 252.04 112.698 251.914 111.17 251.712C110.521 251.635 109.94 251.515 109.461 251.43C108.983 251.344 108.513 251.25 108.154 251.165C107.778 251.094 107.407 250.999 107.043 250.883C107.425 250.904 107.806 250.955 108.18 251.037C108.538 251.105 108.974 251.182 109.495 251.242C110.017 251.302 110.598 251.413 111.204 251.473C112.503 251.626 114.058 251.729 115.784 251.772C117.658 251.795 119.531 251.721 121.397 251.549C123.263 251.363 125.116 251.078 126.951 250.695C128.66 250.319 130.138 249.909 131.386 249.507C132.009 249.319 132.565 249.106 133.095 248.943C133.624 248.781 134.009 248.619 134.342 248.482C134.696 248.32 135.061 248.186 135.436 248.08Z" fill="#263238" style="fill:#263238;fill:color(display-p3 0.1490 0.1961 0.2196);fill-opacity:1;"/>
<path d="M127.302 189.219L129.515 216.159C129.546 216.598 129.408 217.032 129.127 217.371C128.847 217.71 128.447 217.927 128.011 217.979L111.392 219.748C110.951 219.789 110.51 219.657 110.164 219.379C109.818 219.102 109.594 218.701 109.538 218.261L106.283 190.116C106.259 189.885 106.283 189.651 106.353 189.43C106.423 189.208 106.538 189.003 106.69 188.827C106.842 188.651 107.028 188.508 107.237 188.406C107.446 188.305 107.674 188.247 107.906 188.237L125.567 187.673C125.998 187.664 126.416 187.819 126.738 188.106C127.059 188.392 127.261 188.79 127.302 189.219Z" fill="#263238" style="fill:#263238;fill:color(display-p3 0.1490 0.1961 0.2196);fill-opacity:1;"/>
<path d="M119.714 203.565C120.167 203.565 129.967 205.351 129.967 205.351L142.835 212.724L149.764 223.148L143.006 235.768L139.588 225.575C137.577 225.659 135.562 225.616 133.556 225.447C130.557 225.156 121.056 224.43 121.056 224.43L116.151 221.713C116.151 221.713 114.579 219.15 114.579 218.423C114.57 218.22 114.617 218.018 114.715 217.839C114.812 217.66 114.956 217.511 115.132 217.408C115.308 217.306 115.509 217.253 115.712 217.255C115.916 217.258 116.115 217.316 116.288 217.424C117.288 217.996 124.149 218.141 125.858 217.424C125.858 217.424 115.861 216.706 114.571 215.066C113.28 213.425 113.716 212.135 115.288 212.135C116.861 212.135 122.577 212.989 124.285 212.853C125.994 212.716 128.147 212.707 128.558 211.853C128.968 210.998 127.703 210.281 127.703 210.281L125.841 208.854C125.841 208.854 118.552 207.564 118.151 205.992C118.057 205.729 118.024 205.448 118.056 205.171C118.088 204.894 118.183 204.627 118.335 204.393C118.486 204.158 118.689 203.962 118.928 203.818C119.167 203.675 119.436 203.588 119.714 203.565Z" fill="#FFBF9D" style="fill:#FFBF9D;fill:color(display-p3 1.0000 0.7490 0.6157);fill-opacity:1;"/>
<path d="M116.374 203.095C116.374 203.095 108.017 204.445 107.487 204.975C106.958 205.505 96.4398 218.398 96.4398 218.398L101.806 228.958L111.204 223.832C112.164 223.404 113.167 223.077 114.195 222.858C114.195 222.858 123.696 221.363 124.311 220.218C124.926 219.073 124.576 218.816 123.867 218.637C123.158 218.458 117.484 219.107 116.177 219.346C114.921 219.469 113.656 219.469 112.4 219.346C112.4 219.346 116.339 218.423 117.236 218.107C118.134 217.791 126.968 215.826 126.823 214.237C126.678 212.647 125.584 212.084 120.048 213.579C117.027 214.438 113.915 214.935 110.777 215.057L123.004 210.785C123.004 210.785 127.934 209.196 126.345 207.794C124.755 206.393 114.212 209.29 114.212 209.29L109.547 211.05L110.862 208.23C110.862 208.23 117.493 206.265 118.347 205.598C119.398 204.744 119.543 204.018 118.757 203.343C117.971 202.668 116.374 203.095 116.374 203.095Z" fill="#FFBF9D" style="fill:#FFBF9D;fill:color(display-p3 1.0000 0.7490 0.6157);fill-opacity:1;"/>
<path d="M76.8734 224.456L91.1252 225.917L93.1331 223.353L96.4397 218.398L101.806 228.958C101.806 228.958 99.8574 235.23 98.815 238.69C96.0125 247.978 91.4499 258.342 85.8449 257.838C79.1206 257.214 74.1991 249.242 74.3102 244.082C74.4127 239.348 76.8734 224.456 76.8734 224.456Z" fill="#FFBF9D" style="fill:#FFBF9D;fill:color(display-p3 1.0000 0.7490 0.6157);fill-opacity:1;"/>
<path d="M164.768 218.475L152.909 221.491L149.286 222.277L145.979 217.321L140.613 227.873C140.613 227.873 142.562 234.145 143.604 237.614C146.406 246.893 150.969 257.265 156.574 256.761C163.298 256.129 168.22 248.157 168.1 242.997C168.006 238.306 164.768 218.475 164.768 218.475Z" fill="#FFBF9D" style="fill:#FFBF9D;fill:color(display-p3 1.0000 0.7490 0.6157);fill-opacity:1;"/>
<path d="M96.4398 218.364C96.4398 218.364 96.5252 218.235 96.7218 217.988C96.9183 217.74 97.2088 217.381 97.5762 216.911L100.9 212.793L106.172 206.333L106.966 205.385L107.385 204.898C107.57 204.757 107.783 204.655 108.009 204.599C108.863 204.351 109.718 204.163 110.623 203.975C112.435 203.608 114.34 203.266 116.356 202.933C116.864 202.82 117.387 202.797 117.903 202.864C118.178 202.895 118.443 202.986 118.68 203.129C118.917 203.285 119.116 203.492 119.261 203.736C119.332 203.865 119.375 204.008 119.39 204.154C119.405 204.301 119.39 204.449 119.347 204.59C119.248 204.863 119.09 205.111 118.886 205.317C118.69 205.525 118.466 205.703 118.219 205.846C117.973 205.979 117.719 206.096 117.459 206.197C115.399 207.051 113.187 207.683 110.914 208.375L111.008 208.298C110.606 209.153 110.153 210.135 109.692 211.11L109.504 210.904L114.161 209.136C116.16 208.598 118.219 208.11 120.347 207.717C121.423 207.514 122.51 207.369 123.602 207.282C124.171 207.233 124.742 207.233 125.311 207.282C125.605 207.305 125.893 207.374 126.165 207.487C126.318 207.55 126.454 207.645 126.566 207.766C126.679 207.887 126.763 208.031 126.815 208.187C126.847 208.353 126.838 208.523 126.789 208.684C126.74 208.845 126.652 208.991 126.533 209.11C126.331 209.331 126.102 209.523 125.849 209.683C125.362 209.989 124.851 210.255 124.32 210.477C123.252 210.93 122.158 211.255 121.073 211.648L114.451 213.963L110.854 215.219L110.794 214.886C113.713 214.756 116.609 214.312 119.432 213.562C120.809 213.17 122.207 212.856 123.619 212.622C124.329 212.498 125.054 212.498 125.764 212.622C126.146 212.69 126.49 212.897 126.729 213.203C126.94 213.522 127.053 213.897 127.054 214.279C127.035 214.492 126.938 214.69 126.78 214.835C126.653 214.966 126.513 215.083 126.362 215.185C126.071 215.378 125.766 215.547 125.447 215.689C124.833 215.976 124.203 216.227 123.559 216.441C122.295 216.885 120.996 217.244 119.774 217.586L117.911 218.082C117.305 218.244 116.698 218.458 116.083 218.594C114.87 218.91 113.674 219.192 112.503 219.449V219.158C113.875 219.321 115.262 219.304 116.63 219.107C117.988 218.91 119.304 218.765 120.594 218.637C121.244 218.577 121.885 218.517 122.517 218.483C122.833 218.483 123.149 218.483 123.465 218.44C123.628 218.44 123.781 218.44 123.961 218.44C124.121 218.478 124.276 218.536 124.422 218.611C124.508 218.651 124.584 218.707 124.645 218.778C124.707 218.849 124.753 218.932 124.781 219.021C124.829 219.189 124.829 219.367 124.781 219.534C124.74 219.688 124.682 219.837 124.61 219.978L124.508 220.183C124.468 220.265 124.409 220.335 124.337 220.389C123.834 220.725 123.28 220.976 122.696 221.132C120.61 221.717 118.494 222.188 116.356 222.542L114.904 222.789C114.442 222.851 113.985 222.946 113.537 223.071C112.689 223.25 111.868 223.537 111.093 223.926L104.258 227.566L102.455 228.514L101.994 228.753L101.831 228.83L101.976 228.736L102.429 228.471L104.215 227.489L110.982 223.772C112.657 222.992 114.45 222.496 116.288 222.302C118.412 221.937 120.514 221.455 122.585 220.858C123.138 220.714 123.663 220.48 124.14 220.166C124.186 220.129 124.224 220.082 124.251 220.03L124.354 219.842C124.412 219.712 124.461 219.577 124.499 219.44C124.585 219.158 124.499 218.919 124.285 218.799C124.157 218.738 124.023 218.693 123.884 218.663C123.739 218.649 123.593 218.649 123.448 218.663C123.141 218.663 122.833 218.663 122.517 218.705C121.885 218.705 121.252 218.799 120.611 218.868C119.321 218.996 117.997 219.15 116.655 219.346C115.266 219.553 113.856 219.576 112.46 219.415C112.421 219.41 112.385 219.391 112.359 219.361C112.334 219.33 112.321 219.292 112.324 219.252C112.326 219.222 112.338 219.193 112.358 219.17C112.378 219.147 112.405 219.131 112.435 219.124C113.605 218.842 114.801 218.56 116.006 218.27C116.621 218.124 117.202 217.919 117.826 217.748L119.689 217.253C120.936 216.911 122.201 216.544 123.457 216.108C124.088 215.894 124.707 215.646 125.311 215.365C125.607 215.223 125.893 215.061 126.165 214.878C126.413 214.707 126.712 214.459 126.712 214.237C126.701 213.933 126.61 213.639 126.447 213.382C126.253 213.139 125.977 212.974 125.67 212.921C125 212.806 124.315 212.806 123.645 212.921C122.247 213.155 120.864 213.466 119.501 213.852C116.649 214.61 113.725 215.06 110.777 215.194C110.755 215.195 110.733 215.191 110.712 215.184C110.692 215.176 110.673 215.164 110.657 215.149C110.641 215.134 110.628 215.116 110.619 215.095C110.611 215.075 110.606 215.053 110.606 215.031C110.603 214.996 110.612 214.96 110.632 214.93C110.653 214.9 110.683 214.879 110.717 214.869L114.323 213.613L120.945 211.306C122.03 210.913 123.132 210.58 124.166 210.144C124.681 209.932 125.175 209.675 125.644 209.375C125.869 209.23 126.076 209.057 126.259 208.862C126.343 208.786 126.407 208.689 126.444 208.582C126.481 208.474 126.491 208.359 126.473 208.247C126.336 207.803 125.789 207.632 125.26 207.589C124.716 207.547 124.171 207.547 123.628 207.589C122.55 207.678 121.477 207.823 120.415 208.025C118.296 208.41 116.237 208.879 114.255 209.426L109.606 211.203C109.569 211.218 109.528 211.217 109.491 211.201C109.454 211.185 109.425 211.155 109.41 211.118C109.401 211.099 109.397 211.079 109.397 211.058C109.397 211.038 109.401 211.017 109.41 210.998C109.863 210.016 110.316 209.059 110.726 208.187C110.748 208.15 110.781 208.121 110.82 208.102C113.093 207.418 115.305 206.743 117.348 205.949C117.595 205.846 117.852 205.744 118.074 205.624C118.295 205.491 118.497 205.327 118.672 205.137C118.865 204.997 119.004 204.795 119.066 204.565C119.128 204.335 119.11 204.091 119.014 203.873C118.893 203.664 118.725 203.487 118.523 203.357C118.321 203.226 118.091 203.145 117.852 203.121C117.37 203.058 116.881 203.081 116.408 203.189C114.4 203.514 112.486 203.847 110.683 204.206C109.786 204.385 108.906 204.565 108.12 204.812C107.928 204.858 107.746 204.936 107.581 205.043L107.171 205.522C106.906 205.838 106.633 206.154 106.377 206.47L101.054 212.887C99.5926 214.647 98.4904 216.014 97.6787 216.962L96.8243 218.013C96.5509 218.252 96.4398 218.364 96.4398 218.364Z" fill="#FF9A6C" style="fill:#FF9A6C;fill:color(display-p3 1.0000 0.6039 0.4235);fill-opacity:1;"/>
<path d="M97.3027 218.022C97.3967 218.099 93.4663 223.353 88.5278 229.77C83.5892 236.187 79.5051 241.322 79.4111 241.254C79.3171 241.185 83.2474 235.922 88.186 229.505C93.1246 223.089 97.2087 217.953 97.3027 218.022Z" fill="#FF9A6C" style="fill:#FF9A6C;fill:color(display-p3 1.0000 0.6039 0.4235);fill-opacity:1;"/>
<path d="M161.923 241.254C161.854 241.254 161.359 240.057 160.334 238.203C158.961 235.799 157.428 233.49 155.745 231.291C153.806 228.728 151.96 226.412 150.687 224.703C150.038 223.849 149.542 223.157 149.209 222.661C149.016 222.418 148.856 222.151 148.731 221.867C148.962 222.072 149.169 222.305 149.346 222.559C149.773 223.097 150.303 223.746 150.926 224.515C152.259 226.164 154.148 228.42 156.053 231.035C157.74 233.243 159.238 235.59 160.53 238.049C160.919 238.798 161.265 239.568 161.564 240.356C161.729 240.635 161.85 240.938 161.923 241.254Z" fill="#FF9A6C" style="fill:#FF9A6C;fill:color(display-p3 1.0000 0.6039 0.4235);fill-opacity:1;"/>
</svg>
