<svg width="25" height="25" viewBox="0 0 25 25"  fill="none" xmlns="http://www.w3.org/2000/svg">
    <path
        d="M15.5 6.99994C15.5 6.48812 15.3047 5.9763 14.9142 5.58579C14.5237 5.19526 14.0118 5 13.5 5M13.5 13C16.8137 13 19.5 10.3137 19.5 7C19.5 3.68629 16.8137 1 13.5 1C10.1863 1 7.5 3.68629 7.5 7C7.5 7.27368 7.51832 7.54308 7.55381 7.80704C7.61218 8.24118 7.64136 8.45825 7.62172 8.59559C7.60125 8.73865 7.5752 8.81575 7.50469 8.9419C7.437 9.063 7.31771 9.18229 7.07913 9.42087L1.96863 14.5314C1.79568 14.7043 1.7092 14.7908 1.64736 14.8917C1.59253 14.9812 1.55213 15.0787 1.52763 15.1808C1.5 15.2959 1.5 15.4182 1.5 15.6627V17.4C1.5 17.9601 1.5 18.2401 1.60899 18.454C1.70487 18.6422 1.85785 18.7951 2.04601 18.891C2.25992 19 2.53995 19 3.1 19H5.5V17H7.5V15H9.5L11.0791 13.4209C11.3177 13.1823 11.437 13.063 11.5581 12.9953C11.6843 12.9248 11.7613 12.8987 11.9044 12.8783C12.0417 12.8586 12.2588 12.8878 12.693 12.9462C12.9569 12.9817 13.2263 13 13.5 13Z"
        stroke="#FF5B4A"
        stroke-width="2" stroke-linecap="round" stroke-linejoin="round" />
</svg>
