<svg width="110" height="28" viewBox="0 0 110 28" fill="none" xmlns="http://www.w3.org/2000/svg">
    <path
        d="M30.1974 26.8743V4.92277H36.1319V26.8743H30.1974ZM22.7794 5.64605V0.474609H43.5861V5.64605H22.7794Z"
        fill="#D0D3D9" />
    <path
        d="M57.628 26.8743V21.0157H56.651V14.6509C56.651 13.6383 56.4098 12.8788 55.9273 12.3725C55.4448 11.8663 54.6729 11.6131 53.6114 11.6131C53.0807 11.6131 52.3811 11.6252 51.5127 11.6493C50.6442 11.6734 49.7516 11.7095 48.8349 11.7578C47.9182 11.806 47.086 11.8542 46.3381 11.9024V7.02028C46.893 6.97207 47.5443 6.92385 48.2922 6.87563C49.04 6.82741 49.812 6.79125 50.608 6.76713C51.4041 6.74303 52.1519 6.73097 52.8515 6.73097C54.8779 6.73097 56.5786 7.02028 57.9537 7.59891C59.3529 8.17753 60.4143 9.05752 61.138 10.2389C61.8617 11.3961 62.2236 12.8909 62.2236 14.7232V26.8743H57.628ZM51.2956 27.3806C49.8723 27.3806 48.6178 27.1274 47.5323 26.6211C46.4708 26.1148 45.6386 25.3916 45.0355 24.4513C44.4324 23.4869 44.1308 22.3417 44.1308 21.0157C44.1308 19.5692 44.5048 18.3878 45.2526 17.4717C46.0004 16.5314 47.0498 15.8443 48.4007 15.4103C49.7516 14.9522 51.3076 14.7232 53.0686 14.7232H57.3024V17.9418H53.0325C52.0193 17.9418 51.2353 18.1949 50.6804 18.7012C50.1497 19.1834 49.8843 19.8464 49.8843 20.6903C49.8843 21.4859 50.1497 22.1368 50.6804 22.6431C51.2353 23.1253 52.0193 23.3664 53.0325 23.3664C53.6838 23.3664 54.2628 23.2579 54.7694 23.0409C55.3001 22.7998 55.7343 22.402 56.072 21.8475C56.4098 21.293 56.6028 20.5215 56.651 19.533L58.0261 20.9796C57.9054 22.3538 57.5677 23.511 57.0129 24.4513C56.4821 25.3916 55.7343 26.1148 54.7694 26.6211C53.8285 27.1274 52.6706 27.3806 51.2956 27.3806Z"
        fill="#D0D3D9" />
    <path
        d="M75.3137 27.5252C73.9145 27.5252 72.6359 27.2721 71.478 26.7658C70.3442 26.2595 69.3551 25.5603 68.5108 24.6683C67.6665 23.7521 67.0151 22.6793 66.5568 21.4497C66.1226 20.2201 65.9054 18.8941 65.9054 17.4717V16.6399C65.9054 15.2174 66.1105 13.8914 66.5206 12.6619C66.9548 11.4323 67.57 10.3594 68.3661 9.44327C69.1863 8.50301 70.1633 7.77973 71.2971 7.27343C72.4309 6.74303 73.6974 6.47782 75.0966 6.47782C76.6887 6.47782 78.0638 6.82741 79.2217 7.52658C80.3796 8.20164 81.2843 9.21423 81.9356 10.5644C82.587 11.8904 82.9488 13.5298 83.0212 15.4826L81.5014 14.0723V0.474609H87.3273V26.8743H82.7317V18.6651H83.5278C83.4554 20.5456 83.0574 22.1489 82.3337 23.4749C81.6341 24.8009 80.6812 25.8135 79.475 26.5127C78.2688 27.1877 76.8817 27.5252 75.3137 27.5252ZM76.7611 22.6793C77.6537 22.6793 78.4618 22.4864 79.1855 22.1007C79.9334 21.6908 80.5244 21.1001 80.9586 20.3286C81.417 19.5571 81.6461 18.6289 81.6461 17.544V16.2059C81.6461 15.1451 81.417 14.2531 80.9586 13.5298C80.5003 12.8065 79.8972 12.252 79.1493 11.8663C78.4015 11.4805 77.5934 11.2876 76.7249 11.2876C75.76 11.2876 74.8915 11.5408 74.1196 12.0471C73.3717 12.5293 72.7807 13.2043 72.3465 14.0723C71.9122 14.9161 71.6951 15.9046 71.6951 17.0377C71.6951 18.1949 71.9122 19.1955 72.3465 20.0393C72.7807 20.8831 73.3838 21.5341 74.1557 21.9922C74.9277 22.4502 75.7961 22.6793 76.7611 22.6793Z"
        fill="#D0D3D9" />
    <path
        d="M104.556 26.8743V21.0157H103.579V14.6509C103.579 13.6383 103.338 12.8788 102.855 12.3725C102.373 11.8663 101.601 11.6131 100.539 11.6131C100.009 11.6131 99.3092 11.6252 98.4407 11.6493C97.5723 11.6734 96.6797 11.7095 95.763 11.7578C94.8463 11.806 94.014 11.8542 93.2662 11.9024V7.02028C93.821 6.97207 94.4724 6.92385 95.2202 6.87563C95.968 6.82741 96.74 6.79125 97.5361 6.76713C98.3322 6.74303 99.08 6.73097 99.7796 6.73097C101.806 6.73097 103.507 7.02028 104.882 7.59891C106.281 8.17753 107.342 9.05752 108.066 10.2389C108.79 11.3961 109.152 12.8909 109.152 14.7232V26.8743H104.556ZM98.2236 27.3806C96.8003 27.3806 95.5459 27.1274 94.4603 26.6211C93.3989 26.1148 92.5666 25.3916 91.9635 24.4513C91.3604 23.4869 91.0589 22.3417 91.0589 21.0157C91.0589 19.5692 91.4328 18.3878 92.1806 17.4717C92.9285 16.5314 93.9778 15.8443 95.3288 15.4103C96.6797 14.9522 98.2357 14.7232 99.9967 14.7232H104.23V17.9418H99.9605C98.9473 17.9418 98.1633 18.1949 97.6085 18.7012C97.0777 19.1834 96.8124 19.8464 96.8124 20.6903C96.8124 21.4859 97.0777 22.1368 97.6085 22.6431C98.1633 23.1253 98.9473 23.3664 99.9605 23.3664C100.612 23.3664 101.191 23.2579 101.697 23.0409C102.228 22.7998 102.662 22.402 103 21.8475C103.338 21.293 103.531 20.5215 103.579 19.533L104.954 20.9796C104.833 22.3538 104.496 23.511 103.941 24.4513C103.41 25.3916 102.662 26.1148 101.697 26.6211C100.757 27.1274 99.5987 27.3806 98.2236 27.3806Z"
        fill="#D0D3D9" />
    <rect x="7.93054" width="8.38412" height="8.38411" fill="#D0D3D9" />
    <path
        d="M0 8.41632C-2.2483e-07 10.9881 0.506546 13.5347 1.49072 15.9107C2.47489 18.2867 3.91741 20.4455 5.73592 22.2641C7.55443 24.0826 9.71331 25.5251 12.0893 26.5093C14.4653 27.4934 17.0119 28 19.5836 28V20.1665C18.0406 20.1665 16.5126 19.8626 15.087 19.2721C13.6614 18.6816 12.3661 17.8161 11.275 16.725C10.1839 15.6339 9.31839 14.3385 8.72789 12.9129C8.13739 11.4873 7.83346 9.95938 7.83346 8.41632L0 8.41632Z"
        fill="#D0D3D9" />
</svg>
