<svg width="40" height="40" viewBox="0 0 40 40" fill="none" xmlns="http://www.w3.org/2000/svg">
<g clip-path="url(#clip0_2001_1057)">
<path d="M30.8991 40H9.10174C4.07237 40 0 35.9277 0 30.8984V9.10155C0 4.07229 4.07237 0 9.10174 0H30.3595C35.6841 0 40.0008 4.31662 40.0008 9.64113V30.8984C40.0008 35.9277 35.9284 40 30.8991 40Z" fill="#EC653C"/>
<path d="M20.0056 37.201C29.5025 37.201 37.2012 29.5024 37.2012 20.0058C37.2012 10.5091 29.5025 2.81055 20.0056 2.81055C10.5088 2.81055 2.81006 10.5091 2.81006 20.0058C2.81006 29.5024 10.5088 37.201 20.0056 37.201Z" fill="#FDCF76"/>
<path d="M28.9649 14.6502C26.9694 14.6502 25.3506 13.0314 25.3506 11.036C25.3506 9.04061 23.7319 7.42188 21.7364 7.42188H18.2545C16.2591 7.42188 14.6403 9.04061 14.6403 11.036C14.6403 13.0314 13.0216 14.6502 11.0261 14.6502C9.03063 14.6502 7.41187 16.2689 7.41187 18.2643V21.7461C7.41187 23.7415 9.03063 25.3603 11.0261 25.3603H14.6403V28.9744C14.6403 30.9698 16.2591 32.5886 18.2545 32.5886H21.7364C23.7319 32.5886 25.3506 30.9698 25.3506 28.9744C25.3506 26.979 26.9694 25.3603 28.9649 25.3603C30.9603 25.3603 32.5791 23.7415 32.5791 21.7461V18.2643C32.5791 16.2689 30.9603 14.6502 28.9649 14.6502Z" fill="white"/>
</g>
<defs>
<clipPath id="clip0_2001_1057">
<rect width="40.0008" height="40" fill="white"/>
</clipPath>
</defs>
</svg>
