<svg width="139" height="240" viewBox="0 0 139 240" fill="none" xmlns="http://www.w3.org/2000/svg">
<mask id="mask0_133_9588" style="mask-type:luminance" maskUnits="userSpaceOnUse" x="0" y="-63" width="178" height="303">
<path d="M177.932 239.932L177.932 -62.6763L0.676361 -62.6763L0.676348 239.932L177.932 239.932Z" fill="white"/>
</mask>
<g mask="url(#mask0_133_9588)">
<path d="M21.5444 67.1245L21.3422 69.0163L87.3257 75.905C87.3835 75.2696 87.4412 74.6341 87.5279 74.0131L21.5444 67.1245Z" fill="#FDCF76"/>
<path d="M88.481 68.5975L19.3348 53.9971L18.916 55.9322L88.0622 70.5327C88.1922 69.8828 88.3222 69.2473 88.481 68.5975Z" fill="#FDCF76"/>
<path d="M90.0264 63.2975L16.0134 39.4111L15.3635 41.4041L89.3621 65.2904C89.5642 64.6261 89.7809 63.9618 90.0119 63.2975L90.0264 63.2975Z" fill="#FDCF76"/>
<path d="M92.0482 58.3439L33.8776 32.6235L33.1122 34.3276L91.2683 60.048C91.5138 59.4704 91.7738 58.9072 92.0337 58.3439L92.0482 58.3439Z" fill="#FDCF76"/>
<path d="M94.6765 53.4338L27.5233 14.9182L26.469 16.7234L93.6367 55.239C93.9689 54.6325 94.3155 54.0259 94.6765 53.4338Z" fill="#FDCF76"/>
<path d="M97.7814 48.9136L34.0797 2.94604L32.8377 4.65014L96.5394 50.6176C96.9438 50.04 97.3481 49.4768 97.7814 48.9136Z" fill="#FDCF76"/>
<path d="M101.276 44.7979L49.2145 -1.76172L47.8859 -0.303154L99.9477 46.2565C100.381 45.7655 100.814 45.2744 101.276 44.7979Z" fill="#FDCF76"/>
<path d="M105.248 41.014L56.7385 -12.4919L55.2366 -11.1489L103.746 42.3571C104.237 41.895 104.742 41.4617 105.248 41.014Z" fill="#FDCF76"/>
<path d="M109.652 37.6059L60.8688 -29.0708L59.0925 -27.7999L107.876 38.8767C108.454 38.4435 109.046 38.0102 109.652 37.6059Z" fill="#FDCF76"/>
<path d="M114.274 34.7464L75.1515 -32.5513L73.3174 -31.497L112.44 35.8006C113.046 35.4396 113.653 35.093 114.274 34.7608L114.274 34.7464Z" fill="#FDCF76"/>
<path d="M90.8062 -26.1103L117.379 33.1723C117.956 32.9123 118.534 32.638 119.112 32.3925L92.5392 -26.8901L90.8062 -26.1247L90.8062 -26.1103Z" fill="#FDCF76"/>
<path d="M124.339 30.5151L102.359 -36.667L100.468 -36.0605L122.448 31.1217C123.069 30.9051 123.704 30.6885 124.339 30.5007L124.339 30.5151Z" fill="#FDCF76"/>
<path d="M113.725 -35.8871L127.748 29.6198C128.369 29.4753 129.004 29.3454 129.639 29.2154L115.617 -36.2915L113.725 -35.8871Z" fill="#FDCF76"/>
<path d="M126.766 -32.1323L133.207 28.6666C133.813 28.5944 134.42 28.5222 135.041 28.4789L128.6 -32.3201L126.766 -32.1323Z" fill="#FDCF76"/>
<path d="M139.604 28.2766C139.965 28.2766 140.341 28.2911 140.702 28.3055L140.702 -54.4302L138.507 -54.4302L138.507 28.3055C138.868 28.3055 139.229 28.2766 139.604 28.2766Z" fill="#FDCF76"/>
<path d="M140.702 132.501C140.341 132.501 139.98 132.53 139.604 132.53C139.229 132.53 138.868 132.516 138.507 132.501L138.507 215.237L140.702 215.237L140.702 132.501Z" fill="#FDCF76"/>
<path d="M127.589 203.438L135.113 132.328C134.448 132.27 133.77 132.198 133.12 132.126L125.596 203.236L127.589 203.438Z" fill="#FDCF76"/>
<path d="M127.776 131.187L114.331 194.022L116.18 194.412L129.625 131.577C129.004 131.462 128.383 131.317 127.776 131.187Z" fill="#FDCF76"/>
<path d="M122.361 129.627L97.1027 206.846L99.1678 207.511L124.426 130.306C123.733 130.104 123.054 129.873 122.361 129.642L122.361 129.627Z" fill="#FDCF76"/>
<path d="M88.5099 191.928L90.3295 192.737L119.155 128.429C118.548 128.169 117.942 127.895 117.335 127.62L88.4954 191.943L88.5099 191.928Z" fill="#FDCF76"/>
<path d="M112.411 124.992L70.9057 196.376L72.7975 197.459L114.303 126.06C113.667 125.714 113.032 125.353 112.411 124.977L112.411 124.992Z" fill="#FDCF76"/>
<path d="M107.948 121.973L65.2013 180.404L66.8332 181.588L109.58 123.158C109.031 122.768 108.483 122.392 107.948 121.988L107.948 121.973Z" fill="#FDCF76"/>
<path d="M103.702 118.406L50.3553 177.256L51.9439 178.671L105.305 119.822C104.771 119.36 104.237 118.883 103.717 118.406L103.702 118.406Z" fill="#FDCF76"/>
<path d="M99.9043 114.478L40.2029 167.869L41.6326 169.457L101.334 116.067C100.843 115.547 100.366 115.027 99.9043 114.478Z" fill="#FDCF76"/>
<path d="M96.6116 110.29L46.0373 146.784L47.1349 148.272L97.6948 111.792C97.3193 111.301 96.9582 110.796 96.6116 110.29Z" fill="#FDCF76"/>
<path d="M93.6223 105.524L23.2774 145.86L24.3605 147.723L94.7054 107.387C94.3299 106.781 93.9833 106.16 93.6223 105.524Z" fill="#FDCF76"/>
<path d="M91.2249 100.643L19.9847 132.14L20.8368 134.047L92.0914 102.535C91.7882 101.9 91.4993 101.279 91.2249 100.629L91.2249 100.643Z" fill="#FDCF76"/>
<path d="M89.3621 95.5164L15.0313 119.504L15.6812 121.497L90.0264 97.5093C89.7953 96.845 89.5787 96.1951 89.3765 95.5164L89.3621 95.5164Z" fill="#FDCF76"/>
<path d="M88.0622 90.2454L15.5656 105.553L15.9844 107.546L88.481 92.2383C88.3222 91.574 88.1777 90.9241 88.0478 90.2598L88.0622 90.2454Z" fill="#FDCF76"/>
<path d="M87.3257 84.9309L24.7649 91.4585L24.9526 93.2925L87.5134 86.765C87.4412 86.1584 87.369 85.5375 87.3257 84.9309Z" fill="#FDCF76"/>
<path d="M87.1236 80.3963C87.1236 80.0931 87.138 79.7898 87.1525 79.4865C87.1525 79.4288 87.1525 79.371 87.1525 79.3132L4.77782 79.3132L4.77782 81.4795L87.1525 81.4795C87.1525 81.4795 87.1525 81.3639 87.1525 81.3062C87.1525 81.0029 87.1236 80.6996 87.1236 80.3963Z" fill="#FDCF76"/>
</g>
</svg>
