<svg width="25" height="25" viewBox="0 0 25 25" fill="none" xmlns="http://www.w3.org/2000/svg">
    <path
        d="M15.125 12.5H15.135M1.625 3.5V17.5C1.625 18.6046 2.52043 19.5 3.625 19.5H17.625C18.7296 19.5 19.625 18.6046 19.625 17.5V7.5C19.625 6.39543 18.7296 5.5 17.625 5.5L3.625 5.5C2.52043 5.5 1.625 4.60457 1.625 3.5ZM1.625 3.5C1.625 2.39543 2.52043 1.5 3.625 1.5H15.625M15.625 12.5C15.625 12.7761 15.4011 13 15.125 13C14.8489 13 14.625 12.7761 14.625 12.5C14.625 12.2239 14.8489 12 15.125 12C15.4011 12 15.625 12.2239 15.625 12.5Z"
        stroke="#667085" stroke-width="2" stroke-linecap="round" stroke-linejoin="round" />
</svg>
