<svg width="20" height="18" viewBox="0 0 20 18" fill="none" xmlns="http://www.w3.org/2000/svg">
<path d="M15.8333 7.33301L4.16666 7.33301M15.8333 7.33301L17.3868 9.92211C17.7349 10.5024 17.909 10.7925 17.9994 11.1048C18.0795 11.3815 18.1112 11.6701 18.093 11.9576C18.0725 12.2821 17.9655 12.603 17.7515 13.245L17.5784 13.7646C17.2505 14.7481 17.0866 15.2399 16.7825 15.6034C16.5141 15.9245 16.1693 16.173 15.7798 16.3262C15.3387 16.4997 14.8203 16.4997 13.7836 16.4997L6.21636 16.4997C5.17964 16.4997 4.66127 16.4997 4.22021 16.3262C3.83072 16.173 3.48592 15.9245 3.21744 15.6034C2.91339 15.2399 2.74947 14.7481 2.42163 13.7646L2.24844 13.245C2.03445 12.603 1.92745 12.2821 1.90695 11.9576C1.88879 11.67 1.92046 11.3815 2.00056 11.1048C2.09097 10.7925 2.26504 10.5024 2.6132 9.92211L4.16666 7.33301M15.8333 7.33301L16.1811 6.11597C16.3459 5.53898 16.4283 5.25049 16.3636 5.02224C16.3069 4.8223 16.1775 4.65077 16.0008 4.54131C15.7991 4.41634 15.4991 4.41634 14.899 4.41634L5.10097 4.41634C4.50089 4.41634 4.20085 4.41634 3.99917 4.5413C3.82251 4.65077 3.69312 4.8223 3.6364 5.02224C3.57165 5.25048 3.65408 5.53898 3.81893 6.11597L4.16666 7.33301M9.99999 4.41634H7.05356C6.61943 4.41634 6.20308 4.24075 5.8961 3.92819C5.58912 3.61563 5.41666 3.1917 5.41666 2.74967C5.41666 2.30765 5.58912 1.88372 5.8961 1.57116C6.20308 1.2586 6.61943 1.08301 7.05356 1.08301C9.34523 1.08301 9.99999 4.41634 9.99999 4.41634ZM9.99999 4.41634H12.9464C13.3806 4.41634 13.7969 4.24075 14.1039 3.92819C14.4109 3.61563 14.5833 3.1917 14.5833 2.74967C14.5833 2.30765 14.4109 1.88372 14.1039 1.57116C13.7969 1.2586 13.3806 1.08301 12.9464 1.08301C10.6548 1.08301 9.99999 4.41634 9.99999 4.41634Z" stroke="#282828" stroke-width="2" stroke-linecap="round" stroke-linejoin="round"/>
</svg>
