<svg width="30" height="29" viewBox="0 0 30 29" fill="none" xmlns="http://www.w3.org/2000/svg">
<path d="M1.66663 9.26912C1.66663 7.27958 3.27946 5.66675 5.269 5.66675C6.30271 5.66675 7.22045 5.00528 7.54734 4.02461L7.66663 3.66675C7.72288 3.49799 7.75101 3.4136 7.7811 3.33875C8.16536 2.38291 9.06581 1.7339 10.0941 1.67163C10.1746 1.66675 10.2636 1.66675 10.4415 1.66675H19.5584C19.7363 1.66675 19.8253 1.66675 19.9058 1.67163C20.9341 1.7339 21.8346 2.38291 22.2188 3.33875C22.2489 3.4136 22.277 3.49799 22.3333 3.66675L22.4526 4.02461C22.7795 5.00528 23.6972 5.66675 24.7309 5.66675C26.7205 5.66675 28.3333 7.27958 28.3333 9.26912V20.6001C28.3333 22.8403 28.3333 23.9604 27.8973 24.816C27.5138 25.5687 26.9019 26.1806 26.1493 26.5641C25.2936 27.0001 24.1735 27.0001 21.9333 27.0001H8.06663C5.82642 27.0001 4.70631 27.0001 3.85066 26.5641C3.09802 26.1806 2.48609 25.5687 2.1026 24.816C1.66663 23.9604 1.66663 22.8403 1.66663 20.6001V9.26912Z" stroke="#FFA200" stroke-width="3" stroke-linecap="round" stroke-linejoin="round"/>
<path d="M15 21.0001C18.3137 21.0001 21 18.3138 21 15.0001C21 11.6864 18.3137 9.00008 15 9.00008C11.6863 9.00008 8.99996 11.6864 8.99996 15.0001C8.99996 18.3138 11.6863 21.0001 15 21.0001Z" stroke="#FFA200" stroke-width="3" stroke-linecap="round" stroke-linejoin="round"/>
</svg>
