<svg width="291" height="301" viewBox="0 0 291 301" fill="none" xmlns="http://www.w3.org/2000/svg">
<path d="M284.071 52.9309H259.415C255.767 52.9309 252.81 55.8879 252.81 59.5354V84.1919C252.81 87.8395 255.767 90.7964 259.415 90.7964H284.071C287.719 90.7964 290.676 87.8395 290.676 84.1919V59.5354C290.676 55.8879 287.719 52.9309 284.071 52.9309Z" fill="#E0E0E0"/>
<path d="M280.093 76.4498C280.369 75.7783 280.445 75.0414 280.313 74.3276C280.18 73.6138 279.844 72.9535 279.345 72.426C278.842 71.8492 278.192 71.4196 277.464 71.1826C276.736 70.9457 275.957 70.9104 275.211 71.0804C275.01 69.9624 274.405 68.9575 273.51 68.2575C272.616 67.5575 271.494 67.2115 270.361 67.2854C269.228 67.3594 268.161 67.8482 267.365 68.6585C266.569 69.4687 266.099 70.5438 266.045 71.6784C265.536 71.7642 265.052 71.9627 264.63 72.2595C264.207 72.5562 263.856 72.9438 263.602 73.3937C263.349 73.8436 263.199 74.3445 263.164 74.8598C263.129 75.375 263.209 75.8916 263.4 76.3718L280.093 76.4498Z" fill="white"/>
<path d="M31.261 0H6.60452C2.95695 0 0 2.95694 0 6.60452V31.261C0 34.9085 2.95695 37.8655 6.60452 37.8655H31.261C34.9085 37.8655 37.8655 34.9085 37.8655 31.261V6.60452C37.8655 2.95694 34.9085 0 31.261 0Z" fill="#F0F1F3"/>
<path d="M20.6738 21.5186H17.1202C17.1202 20.8042 17.3348 20.0986 17.7639 19.4017C18.1931 18.7047 18.6996 18.121 19.2833 17.6506C20.7253 16.4658 21.4464 15.3856 21.4464 14.4099C21.4464 13.8001 21.2403 13.3297 20.8283 12.9986C20.4163 12.6676 19.8412 12.5021 19.103 12.5021C17.6609 12.5021 16.6395 13.2774 16.0386 14.8281L13 13.0509C13.515 11.779 14.3305 10.7859 15.4464 10.0715C16.5622 9.35718 17.824 9 19.2318 9C20.7768 9 22.1245 9.46172 23.2747 10.3851C24.4249 11.2912 25 12.5456 25 14.1486C25 14.8629 24.8455 15.5424 24.5365 16.1871C24.2446 16.8143 23.8841 17.3544 23.4549 17.8074C23.0429 18.243 22.6223 18.6612 22.1931 19.0619C21.7811 19.4452 21.4206 19.8459 21.1116 20.2641C20.8197 20.6823 20.6738 21.1004 20.6738 21.5186ZM21.0858 25.7785C21.0858 26.3884 20.8712 26.9111 20.4421 27.3466C20.0129 27.7822 19.4979 28 18.897 28C18.2961 28 17.7811 27.7822 17.3519 27.3466C16.9227 26.9111 16.7082 26.3884 16.7082 25.7785C16.7082 25.1687 16.9227 24.646 17.3519 24.2105C17.7811 23.7749 18.2961 23.5571 18.897 23.5571C19.4979 23.5571 20.0129 23.7749 20.4421 24.2105C20.8712 24.646 21.0858 25.1687 21.0858 25.7785Z" fill="white"/>
<path d="M290.174 269.257C290.174 269.348 227.47 269.426 150.14 269.426C72.8096 269.426 10.0927 269.348 10.0927 269.257C10.0927 269.166 72.7836 269.088 150.14 269.088C227.496 269.088 290.174 269.16 290.174 269.257Z" fill="#263238"/>
<path d="M230.206 107.901V55.6892C230.207 54.0445 229.884 52.4158 229.255 50.896C228.627 49.3763 227.704 47.9953 226.542 46.832C225.379 45.6688 223.999 44.746 222.479 44.1164C220.96 43.4868 219.331 43.1627 217.687 43.1627H201.767C201.248 43.1737 200.736 43.2868 200.261 43.4957C199.785 43.7045 199.356 44.0049 198.997 44.3798C198.637 44.7547 198.356 45.1967 198.167 45.6805C197.979 46.1643 197.888 46.6805 197.899 47.1995V50.0923C197.92 51.1401 197.524 52.1534 196.799 52.9101C196.074 53.6669 195.079 54.1052 194.031 54.1291H162.998C162.479 54.1173 161.967 54.0033 161.492 53.7937C161.017 53.5841 160.588 53.2829 160.229 52.9074C159.871 52.5319 159.59 52.0895 159.402 51.6053C159.215 51.1212 159.124 50.6048 159.136 50.0858V47.1995C159.159 46.1506 158.764 45.1356 158.039 44.3775C157.314 43.6194 156.317 43.1801 155.269 43.1562H135.748C132.425 43.1562 129.238 44.4758 126.888 46.8248C124.537 49.1737 123.216 52.3599 123.215 55.6827L123.176 256.614C123.176 259.935 124.494 263.121 126.842 265.471C129.189 267.821 132.374 269.143 135.696 269.147L217.647 269.192C219.292 269.193 220.922 268.87 222.442 268.241C223.962 267.612 225.343 266.69 226.507 265.528C227.671 264.365 228.594 262.985 229.224 261.465C229.855 259.946 230.18 258.317 230.18 256.672V107.947" fill="white"/>
<path d="M230.213 92.3456V55.5917C230.189 52.2881 228.86 49.1279 226.516 46.7998C224.172 44.4717 221.003 43.1643 217.699 43.1627H201.78C201.261 43.1737 200.749 43.2868 200.273 43.4957C199.798 43.7045 199.369 44.0049 199.009 44.3798C198.65 44.7547 198.368 45.1967 198.18 45.6805C197.992 46.1643 197.901 46.6805 197.912 47.1995V50.0923C197.933 51.1401 197.537 52.1534 196.812 52.9101C196.087 53.6669 195.092 54.1052 194.044 54.1291H163.01C162.491 54.1173 161.98 54.0033 161.505 53.7937C161.03 53.5841 160.601 53.2829 160.242 52.9074C159.884 52.5319 159.602 52.0895 159.415 51.6053C159.227 51.1212 159.137 50.6048 159.149 50.0858V47.1995C159.172 46.1506 158.777 45.1356 158.052 44.3775C157.327 43.6194 156.33 43.1801 155.281 43.1562H135.747C132.425 43.1562 129.238 44.4758 126.887 46.8248C124.537 49.1737 123.216 52.3599 123.214 55.6827V92.3911L230.213 92.3456Z" fill="#1669FF"/>
<path d="M148.651 66.6881H136.196C134.473 66.6881 133.076 68.0851 133.076 69.8083V82.2633C133.076 83.9866 134.473 85.3836 136.196 85.3836H148.651C150.374 85.3836 151.771 83.9866 151.771 82.2633V69.8083C151.771 68.0851 150.374 66.6881 148.651 66.6881Z" fill="white"/>
<path d="M221.203 72.5841C221.202 72.8489 221.122 73.1074 220.974 73.3269C220.826 73.5464 220.616 73.717 220.37 73.8172C220.125 73.9174 219.856 73.9426 219.596 73.8896C219.337 73.8367 219.099 73.708 218.913 73.5198C218.726 73.3316 218.6 73.0924 218.549 72.8324C218.499 72.5724 218.527 72.3033 218.629 72.0591C218.732 71.8149 218.905 71.6066 219.125 71.4605C219.346 71.3145 219.606 71.2372 219.87 71.2384C220.046 71.2393 220.22 71.2748 220.382 71.3429C220.545 71.411 220.692 71.5103 220.815 71.6353C220.939 71.7602 221.037 71.9083 221.104 72.0711C221.17 72.2339 221.204 72.4082 221.203 72.5841Z" fill="white"/>
<path d="M221.184 77.3879C221.184 77.6544 221.104 77.9148 220.955 78.1358C220.806 78.3568 220.595 78.5283 220.348 78.6284C220.101 78.7285 219.83 78.7526 219.569 78.6977C219.308 78.6428 219.07 78.5114 218.884 78.3202C218.698 78.129 218.574 77.8867 218.527 77.6244C218.48 77.3622 218.512 77.0918 218.619 76.8479C218.726 76.604 218.904 76.3976 219.129 76.2553C219.355 76.1129 219.617 76.0411 219.884 76.0488C220.058 76.0487 220.23 76.0836 220.39 76.1514C220.551 76.2191 220.696 76.3184 220.817 76.4433C220.938 76.5682 221.033 76.7161 221.096 76.8784C221.159 77.0407 221.189 77.2139 221.184 77.3879Z" fill="white"/>
<path d="M221.171 82.1983C221.169 82.4645 221.088 82.7243 220.939 82.9444C220.789 83.1645 220.577 83.335 220.33 83.4341C220.083 83.5332 219.812 83.5564 219.552 83.5008C219.291 83.4451 219.053 83.3132 218.868 83.1217C218.684 82.9303 218.56 82.688 218.513 82.4259C218.467 82.1639 218.499 81.8938 218.607 81.6503C218.714 81.4068 218.892 81.2008 219.117 81.0588C219.342 80.9167 219.604 80.845 219.871 80.8527C220.219 80.8645 220.55 81.0115 220.793 81.2626C221.035 81.5136 221.171 81.8492 221.171 82.1983Z" fill="white"/>
<path d="M160.521 105.691H139.121C137.193 105.691 135.63 107.254 135.63 109.182V130.582C135.63 132.51 137.193 134.072 139.121 134.072H160.521C162.449 134.072 164.012 132.51 164.012 130.582V109.182C164.012 107.254 162.449 105.691 160.521 105.691Z" fill="#F0F1F3"/>
<path d="M217.79 109.149H171.104V114.441H217.79V109.149Z" fill="#F0F1F3"/>
<path d="M201.799 119.03H171.104V124.322H201.799V119.03Z" fill="#F0F1F3"/>
<path d="M160.521 145.377H139.121C137.193 145.377 135.63 146.94 135.63 148.868V170.267C135.63 172.195 137.193 173.758 139.121 173.758H160.521C162.449 173.758 164.012 172.195 164.012 170.267V148.868C164.012 146.94 162.449 145.377 160.521 145.377Z" fill="#F0F1F3"/>
<path d="M217.79 148.835H171.104V154.126H217.79V148.835Z" fill="#F0F1F3"/>
<path d="M201.799 158.716H171.104V164.007H201.799V158.716Z" fill="#F0F1F3"/>
<path d="M160.723 234.902H139.323C137.395 234.902 135.832 236.465 135.832 238.393V259.792C135.832 261.72 137.395 263.283 139.323 263.283H160.723C162.65 263.283 164.213 261.72 164.213 259.792V238.393C164.213 236.465 162.65 234.902 160.723 234.902Z" fill="#F0F1F3"/>
<path d="M217.992 238.36H171.305V243.652H217.992V238.36Z" fill="#F0F1F3"/>
<path d="M202.001 248.241H171.305V253.532H202.001V248.241Z" fill="#F0F1F3"/>
<path d="M230.187 183.652H123.247V228.928H230.187V183.652Z" fill="#F0F1F3"/>
<path d="M183.786 204.726C184.255 204.998 184.643 205.387 184.914 205.856C185.184 206.325 185.326 206.857 185.326 207.398C185.326 207.939 185.184 208.471 184.914 208.94C184.643 209.409 184.255 209.799 183.786 210.07L178.254 213.294L172.729 216.486C172.26 216.756 171.728 216.898 171.187 216.898C170.645 216.897 170.113 216.755 169.645 216.484C169.176 216.214 168.786 215.824 168.515 215.356C168.244 214.887 168.101 214.356 168.101 213.814V201.015C168.099 200.473 168.241 199.94 168.512 199.47C168.782 199 169.172 198.61 169.641 198.339C170.111 198.068 170.644 197.926 171.186 197.926C171.728 197.927 172.26 198.071 172.729 198.343L178.254 201.535L183.786 204.726Z" fill="white"/>
<path d="M143.477 76.2374C144.01 76.0027 144.463 75.6163 144.778 75.1262C145.094 74.6361 145.258 74.064 145.251 73.4811C145.269 73.1031 145.211 72.7254 145.079 72.3708C144.947 72.0162 144.744 71.692 144.483 71.4181C144.222 71.1441 143.908 70.926 143.56 70.777C143.212 70.628 142.838 70.5511 142.459 70.5511C142.081 70.5511 141.706 70.628 141.358 70.777C141.011 70.926 140.697 71.1441 140.436 71.4181C140.175 71.692 139.972 72.0162 139.84 72.3708C139.708 72.7254 139.649 73.1031 139.667 73.4811C139.655 74.0691 139.818 74.6474 140.135 75.1427C140.453 75.6379 140.909 76.028 141.448 76.2633C137.152 76.9134 137.347 81.5808 137.347 81.5808L147.507 81.6328C147.507 81.6328 147.741 76.8809 143.477 76.2374Z" fill="#1669FF"/>
<path d="M199.199 74.9827H159.949V79.7931H199.199V74.9827Z" fill="white"/>
<path d="M230.206 107.901C230.206 107.901 230.206 108.48 230.206 109.604C230.206 110.729 230.206 112.406 230.206 114.603C230.206 118.998 230.206 125.479 230.206 133.819C230.206 150.512 230.206 174.662 230.245 204.499C230.245 219.45 230.245 235.766 230.245 253.311V256.614C230.239 257.738 230.088 258.856 229.797 259.942C229.648 260.487 229.468 261.023 229.257 261.547C229.026 262.067 228.765 262.572 228.477 263.062C227.902 264.05 227.191 264.951 226.365 265.74C224.702 267.37 222.613 268.497 220.339 268.991C220.059 269.075 219.767 269.088 219.481 269.147C219.192 269.197 218.902 269.232 218.609 269.251C218.024 269.283 217.439 269.316 216.867 269.303H213.37H184.547H154.248H135.702L134.694 269.251C133.354 269.143 132.039 268.829 130.794 268.321C128.914 267.52 127.253 266.281 125.948 264.708C124.643 263.136 123.733 261.274 123.292 259.279C123.055 257.936 122.959 256.572 123.006 255.209C123.006 252.505 123.006 249.788 123.006 247.058V230.514C123.006 219.428 123.006 208.191 123.006 196.802C123.006 151.253 123.006 107.869 123.045 68.4107V57.4118C123.003 56.2005 123.056 54.9878 123.201 53.7846C123.367 52.5815 123.715 51.4108 124.235 50.3133C124.735 49.2182 125.392 48.2021 126.185 47.297C127.764 45.4954 129.819 44.1752 132.114 43.4877C133.247 43.1629 134.419 42.9881 135.598 42.9677H154.358C154.921 42.9422 155.484 42.9683 156.042 43.0457C156.601 43.1616 157.13 43.3956 157.592 43.7319C158.053 44.0681 158.438 44.4991 158.72 44.9959C159.001 45.489 159.182 46.0323 159.253 46.595C159.312 47.1605 159.253 47.6936 159.286 48.2396C159.325 49.3252 159.156 50.4368 159.533 51.4119C159.706 51.9018 159.978 52.3511 160.331 52.7322C160.684 53.1134 161.112 53.4184 161.587 53.6285C162.53 54.0706 163.622 53.8886 164.675 53.9341H177.136H189.104H193.459C193.929 53.9578 194.401 53.9251 194.863 53.8366C195.768 53.6245 196.559 53.079 197.08 52.3089C197.596 51.5438 197.845 50.6298 197.788 49.7087C197.788 48.7727 197.788 47.8561 197.788 46.92C197.822 45.9622 198.182 45.0447 198.809 44.3198C199.424 43.6132 200.273 43.1517 201.201 43.0197C201.652 42.9744 202.106 42.9614 202.56 42.9807H203.892H214.261H216.763C217.588 42.9655 218.413 43.0024 219.234 43.0912C221.588 43.3741 223.815 44.3178 225.655 45.8134C227.496 47.3089 228.875 49.295 229.634 51.5419C230.083 52.9383 230.302 54.3981 230.284 55.8647C230.284 57.2948 230.284 58.699 230.284 60.0706C230.284 62.8268 230.284 65.4746 230.284 68.0142C230.284 73.0911 230.284 77.765 230.284 81.8993C230.284 90.2459 230.284 96.7204 230.252 101.115C230.252 103.312 230.252 104.983 230.252 106.114C230.252 107.245 230.252 107.817 230.252 107.817C230.252 107.817 230.252 107.238 230.252 106.114C230.252 104.989 230.252 103.312 230.252 101.115C230.252 96.7204 230.252 90.2459 230.252 81.8993C230.252 77.7325 230.252 73.0911 230.252 68.0142C230.252 65.479 230.252 62.8311 230.252 60.0706V55.9817C230.27 54.5343 230.05 53.0937 229.602 51.7174C228.616 48.8038 226.578 46.3629 223.888 44.8724C222.483 44.0864 220.937 43.587 219.338 43.4032C218.526 43.3161 217.709 43.2814 216.893 43.2992H202.573C202.139 43.2859 201.705 43.3011 201.273 43.3447C200.396 43.4738 199.597 43.9174 199.023 44.5928C198.436 45.2727 198.099 46.1328 198.068 47.0305C198.068 47.9406 198.068 48.8767 198.068 49.8062C198.126 50.7747 197.86 51.735 197.314 52.5365C196.763 53.3604 195.919 53.9437 194.954 54.1681C194.475 54.2606 193.986 54.2956 193.498 54.2721H163.089C162.535 54.2802 161.986 54.1717 161.476 53.9536C160.969 53.7264 160.512 53.3992 160.133 52.9916C159.754 52.5839 159.462 52.1041 159.273 51.5809C159.088 51.0548 158.998 50.5002 159.006 49.9428V48.3111C159.006 47.7716 159.006 47.2125 159.006 46.699C158.942 46.1721 158.771 45.6636 158.506 45.2039C158.246 44.7284 157.886 44.3153 157.45 43.9931C157.015 43.6709 156.514 43.4475 155.984 43.3382C155.443 43.2618 154.897 43.2378 154.352 43.2667H135.624C134.473 43.2859 133.33 43.4564 132.224 43.7738C129.982 44.4423 127.975 45.734 126.439 47.4986C125.645 48.3771 124.988 49.3697 124.489 50.4433C123.983 51.5147 123.643 52.6566 123.481 53.8301C123.338 55.0183 123.291 56.216 123.338 57.4118V68.4107C123.338 107.869 123.338 151.253 123.338 196.802C123.338 208.183 123.338 219.42 123.338 230.514C123.338 236.057 123.338 241.558 123.338 247.019V255.17C123.285 256.509 123.376 257.849 123.611 259.168C124.04 261.111 124.926 262.924 126.196 264.455C127.465 265.987 129.082 267.194 130.911 267.976C132.125 268.472 133.407 268.779 134.714 268.887L135.695 268.939H138.66H154.313H184.612H213.435H216.932C217.511 268.939 218.083 268.939 218.655 268.893C218.939 268.878 219.221 268.843 219.5 268.789C219.782 268.756 220.062 268.706 220.339 268.64C221.445 268.388 222.514 267.993 223.517 267.463C224.502 266.918 225.413 266.249 226.228 265.474C227.035 264.707 227.73 263.832 228.295 262.874C228.577 262.397 228.831 261.904 229.056 261.398C229.263 260.885 229.439 260.359 229.582 259.825C230.232 257.699 229.992 255.463 230.031 253.272C230.031 235.721 230.031 219.385 230.063 204.46C230.063 174.623 230.115 150.473 230.128 133.78C230.128 125.44 230.128 118.959 230.167 114.564C230.167 112.367 230.167 110.664 230.167 109.565C230.167 108.467 230.206 107.901 230.206 107.901Z" fill="#263238"/>
<path d="M64.9695 108.448C63.9454 107.898 63.0857 107.086 62.4783 106.095C61.8709 105.105 61.5375 103.97 61.5123 102.808C61.4871 101.646 61.7709 100.498 62.3348 99.4821C62.8987 98.4658 63.7224 97.6175 64.7217 97.024L72.4799 95.0161C72.89 104.876 73.3628 114.733 73.8982 124.588C71.8485 124.449 69.8767 123.749 68.1992 122.563C66.6014 121.281 65.6359 119.017 66.4135 117.12C65.602 116.782 64.8896 116.244 64.3433 115.555C63.797 114.867 63.4347 114.051 63.2903 113.184C63.146 112.317 63.2243 111.427 63.518 110.599C63.8118 109.77 64.3112 109.03 64.9695 108.448Z" fill="#263238"/>
<path d="M102.53 105.329V101.826L81.3744 98.4936C74.8722 98.0066 68.0624 104.722 67.8574 111.242C67.6267 118.487 67.6352 127.339 68.6605 132.705C70.7197 143.496 79.076 144.615 79.076 144.615V155.347C79.2041 161.61 84.5186 162.823 90.7816 162.704C93.7214 162.642 96.5224 161.441 98.5944 159.355C100.666 157.269 101.848 154.459 101.889 151.519L102.53 105.329Z" fill="#FFBF9D"/>
<path d="M73.2831 119.957C73.2898 120.32 73.4383 120.667 73.6969 120.922C73.9555 121.177 74.3038 121.322 74.6672 121.324C74.8447 121.333 75.0222 121.306 75.1891 121.246C75.3561 121.185 75.5091 121.091 75.639 120.97C75.769 120.849 75.8732 120.703 75.9455 120.54C76.0178 120.378 76.0568 120.203 76.06 120.025C76.0511 119.662 75.9019 119.317 75.6438 119.062C75.3856 118.807 75.0386 118.662 74.6758 118.658C74.4984 118.649 74.3209 118.675 74.1539 118.736C73.987 118.797 73.834 118.891 73.704 119.012C73.5741 119.133 73.4698 119.279 73.3975 119.442C73.3252 119.604 73.2863 119.779 73.2831 119.957Z" fill="#263238"/>
<path d="M70.5489 115.121C70.7198 115.3 71.7537 114.48 73.2489 114.437C74.7441 114.394 75.872 115.112 76.0258 114.924C76.1796 114.736 75.9147 114.514 75.4277 114.181C74.763 113.757 73.9853 113.546 73.1976 113.574C72.4192 113.596 71.6681 113.866 71.053 114.343C70.6002 114.728 70.4549 115.061 70.5489 115.121Z" fill="#263238"/>
<path d="M86.3301 119.854C86.3368 120.217 86.4856 120.562 86.7444 120.816C87.0033 121.071 87.3515 121.213 87.7142 121.213C87.8917 121.222 88.0692 121.195 88.2361 121.135C88.4031 121.074 88.5561 120.98 88.686 120.859C88.816 120.738 88.9202 120.591 88.9925 120.429C89.0648 120.267 89.1038 120.092 89.107 119.914C89.1002 119.551 88.9514 119.206 88.6926 118.952C88.4337 118.698 88.0855 118.555 87.7228 118.555C87.5453 118.546 87.3679 118.573 87.2009 118.634C87.034 118.695 86.881 118.788 86.751 118.91C86.6211 119.031 86.5168 119.177 86.4445 119.339C86.3722 119.501 86.3333 119.677 86.3301 119.854Z" fill="#263238"/>
<path d="M85.1852 115.018C85.3646 115.198 86.3985 114.386 87.8937 114.343C89.3889 114.3 90.5082 115.01 90.662 114.822C90.8158 114.634 90.5595 114.42 90.0639 114.087C89.4057 113.655 88.629 113.44 87.8424 113.472C87.0614 113.494 86.3075 113.763 85.6893 114.241C85.245 114.608 85.0997 114.941 85.1852 115.018Z" fill="#263238"/>
<path d="M79.8962 126.869C79.0996 126.648 78.2791 126.524 77.4526 126.502C77.0681 126.502 76.7093 126.416 76.5982 126.151C76.5575 125.759 76.6348 125.363 76.8203 125.015C77.1535 124.075 77.4953 123.093 77.8542 122.067C79.2981 117.872 80.3235 114.429 80.1611 114.377C79.9988 114.326 78.683 117.675 77.2475 121.862C76.8972 122.896 76.564 123.887 76.2564 124.827C76.0266 125.294 75.972 125.827 76.1026 126.331C76.1614 126.465 76.2508 126.583 76.3635 126.677C76.4763 126.77 76.6093 126.836 76.752 126.869C76.9645 126.921 77.1826 126.947 77.4013 126.946C78.2327 127.029 79.0715 127.004 79.8962 126.869Z" fill="#263238"/>
<path d="M79.0503 144.65C84.2859 144.568 89.3999 143.059 93.8404 140.284C93.8404 140.284 90.3201 148.161 79.0588 147.52L79.0503 144.65Z" fill="#FF9A6C"/>
<path d="M85.6977 109.379C85.8429 109.789 87.3382 109.593 89.1154 109.806C90.8926 110.02 92.2938 110.498 92.5331 110.131C92.6356 109.96 92.3878 109.575 91.8153 109.182C91.052 108.697 90.1876 108.393 89.2886 108.294C88.3896 108.195 87.4798 108.303 86.629 108.61C85.954 108.866 85.6293 109.182 85.6977 109.379Z" fill="#263238"/>
<path d="M70.9248 110.345C71.2409 110.661 72.3517 110.225 73.7273 110.097C75.1029 109.969 76.2906 110.097 76.5127 109.755C76.6238 109.576 76.4102 109.242 75.8804 108.969C75.1571 108.625 74.3518 108.492 73.5564 108.584C72.761 108.656 72.0025 108.952 71.3691 109.439C70.9162 109.832 70.771 110.191 70.9248 110.345Z" fill="#263238"/>
<path d="M63.7135 101.655C62.6172 100.914 61.763 99.8665 61.2571 98.6436C60.7512 97.4207 60.616 96.076 60.8682 94.7769C61.1582 93.4865 61.7761 92.2927 62.6621 91.3109C63.5482 90.329 64.6725 89.5923 65.9264 89.1719C66.4351 89.0066 66.9588 88.8921 67.49 88.8301C68.4935 88.1931 69.644 87.8253 70.8308 87.7621C70.9444 87.0646 71.2586 86.4153 71.735 85.8933C72.2114 85.3714 72.8295 84.9994 73.5137 84.8228C74.8855 84.4813 76.3201 84.4813 77.6919 84.8228C78.3593 83.9341 79.2269 83.2154 80.2243 82.725C81.2217 82.2346 82.3207 81.9864 83.432 82.0006C84.5433 82.0147 85.6356 82.2908 86.6202 82.8064C87.6048 83.3221 88.4538 84.0627 89.0984 84.9681C89.8587 84.4838 90.7214 84.1837 91.6181 84.0914C92.5147 83.9992 93.4205 84.1175 94.2634 84.4369C95.1063 84.7563 95.863 85.268 96.4734 85.9313C97.0838 86.5946 97.531 87.3911 97.7794 88.2576C98.5671 88.2583 99.3465 88.4201 100.069 88.733C100.792 89.046 101.444 89.5036 101.983 90.0775C102.8 91.1907 103.496 92.388 104.059 93.649C105.388 93.7544 106.652 94.2645 107.682 95.1106C108.712 95.9567 109.458 97.098 109.819 98.381C110.18 99.6639 110.14 101.027 109.703 102.286C109.266 103.545 108.453 104.64 107.375 105.423C108.052 106.055 108.573 106.835 108.898 107.703C109.222 108.571 109.34 109.502 109.243 110.423C109.147 111.344 108.837 112.23 108.339 113.011C107.841 113.792 107.169 114.447 106.375 114.924C106.716 115.896 106.857 116.928 106.788 117.956C106.719 118.984 106.441 119.987 105.973 120.905C105.606 121.753 104.936 122.432 104.094 122.811C104.064 122.954 104.012 123.093 103.94 123.221C103.325 124.255 101.718 123.87 100.753 123.144C98.4031 121.392 97.0787 118.573 96.3354 115.736C95.592 112.899 95.3443 109.96 94.6265 107.123C94.6265 107.055 94.6265 106.995 94.5753 106.918C94.2725 105.741 93.7056 104.648 92.9177 103.723C92.1069 104.368 91.2502 104.953 90.3544 105.474C88.7073 106.303 86.8385 106.585 85.0203 106.277C83.2021 105.97 81.5296 105.09 80.2466 103.765C78.0415 105.718 75.2268 106.845 72.2834 106.952C69.3612 107.055 66.4562 106.602 64.1578 104.799C63.5577 104.34 63.0988 103.721 62.8334 103.014C62.791 102.719 62.8568 102.419 63.0186 102.169C63.1804 101.919 63.4273 101.737 63.7135 101.655Z" fill="#263238"/>
<path d="M101.24 119.726C101.376 119.649 106.99 117.317 107.451 123.255C107.913 129.193 101.855 128.433 101.838 128.262C101.821 128.091 101.24 119.726 101.24 119.726Z" fill="#FFBF9D"/>
<path d="M103.47 125.869C103.47 125.869 103.581 125.929 103.76 125.998C104.015 126.084 104.294 126.069 104.538 125.955C104.902 125.683 105.188 125.318 105.365 124.9C105.542 124.481 105.605 124.022 105.546 123.571C105.516 123.06 105.376 122.562 105.136 122.11C105.064 121.927 104.948 121.765 104.799 121.637C104.65 121.509 104.473 121.419 104.281 121.375C104.16 121.353 104.034 121.374 103.927 121.435C103.819 121.496 103.736 121.593 103.692 121.708C103.624 121.879 103.692 121.99 103.641 122.007C103.589 122.024 103.504 121.913 103.538 121.666C103.553 121.515 103.627 121.377 103.743 121.281C103.818 121.213 103.905 121.16 104.001 121.126C104.096 121.092 104.198 121.078 104.299 121.085C104.549 121.114 104.787 121.208 104.989 121.358C105.191 121.508 105.351 121.708 105.452 121.939C105.748 122.431 105.916 122.989 105.939 123.562C106.01 124.089 105.924 124.624 105.691 125.102C105.459 125.579 105.09 125.977 104.632 126.245C104.476 126.304 104.309 126.326 104.144 126.311C103.978 126.297 103.818 126.245 103.675 126.16C103.495 126.015 103.453 125.878 103.47 125.869Z" fill="#FF9A6C"/>
<path d="M61.1416 93.7601C61.1416 93.7601 61.1416 93.8114 61.0904 93.9054C61.0557 94.0489 61.03 94.1944 61.0135 94.3411C60.9348 94.9124 60.9726 95.4937 61.1245 96.05C61.3391 96.9218 61.8127 97.7083 62.4831 98.3056C63.3751 99.0865 64.5276 99.5042 65.7128 99.4762L65.6103 99.3822C66.0041 101.293 66.9417 103.05 68.3102 104.44C69.0719 105.241 69.9952 105.87 71.0188 106.286C72.1071 106.702 73.2863 106.823 74.4365 106.636C75.5676 106.47 76.6677 106.136 77.7004 105.645C78.6877 105.216 79.5905 104.614 80.3662 103.868H80.1867C81.6345 105.167 83.4053 106.052 85.3133 106.431C86.826 106.637 88.366 106.433 89.7734 105.842C90.6885 105.464 91.5323 104.932 92.2683 104.27C92.5246 104.039 92.7126 103.851 92.8322 103.723C92.9518 103.595 93.0116 103.518 93.0031 103.509C92.9946 103.501 92.7382 103.774 92.217 104.21C91.464 104.831 90.6196 105.333 89.7136 105.696C88.3293 106.251 86.8225 106.428 85.3475 106.209C83.4955 105.83 81.7785 104.963 80.3747 103.697L80.2807 103.62L80.1953 103.706C79.4483 104.422 78.5805 105 77.632 105.414C76.6218 105.887 75.5482 106.209 74.445 106.371C73.3309 106.564 72.1855 106.451 71.1298 106.047C70.143 105.64 69.2502 105.035 68.5068 104.27C67.1772 102.911 66.2513 101.21 65.8324 99.3566V99.2626H65.7384C64.6051 99.3028 63.498 98.9155 62.6369 98.1775C61.9757 97.6145 61.5018 96.8634 61.2783 96.0243C61.1253 95.4918 61.0674 94.9365 61.1075 94.3838C61.1075 93.9908 61.1587 93.7601 61.1416 93.7601Z" fill="#455A64"/>
<path d="M103.239 93.3927C103.509 94.0457 103.723 94.7202 103.88 95.4092C104.244 97.2143 104.01 99.0891 103.213 100.749V100.835L103.29 100.895C104.057 101.506 104.647 102.312 104.999 103.227C105.395 104.233 105.473 105.337 105.221 106.389C104.881 107.746 104.038 108.925 102.863 109.687L102.752 109.746L102.82 109.857C103.459 110.973 103.77 112.247 103.718 113.532C103.686 114.543 103.447 115.538 103.017 116.454C102.618 117.268 102.09 118.012 101.453 118.658L101.53 118.538C101.672 118.425 101.806 118.302 101.932 118.171C102.403 117.686 102.795 117.129 103.094 116.522C103.561 115.591 103.826 114.572 103.871 113.532C103.949 112.206 103.653 110.886 103.017 109.721L102.974 109.892C104.208 109.112 105.095 107.889 105.452 106.474C105.722 105.369 105.641 104.207 105.221 103.15C104.844 102.197 104.219 101.362 103.41 100.732V100.877C104.212 99.1685 104.416 97.2398 103.991 95.4006C103.875 94.8888 103.706 94.3906 103.487 93.9139C103.41 93.743 103.342 93.6234 103.299 93.538C103.286 93.4871 103.266 93.4382 103.239 93.3927Z" fill="#455A64"/>
<path d="M85.4072 128.518C85.7031 128.903 85.9013 129.354 85.9849 129.833C86.0685 130.311 86.035 130.803 85.8872 131.266C85.7394 131.728 85.4818 132.148 85.1363 132.49C84.7908 132.831 84.3678 133.084 83.9034 133.226C83.5377 133.35 83.1414 133.35 82.7756 133.226C82.4775 133.061 82.2166 132.836 82.0093 132.566C81.802 132.295 81.6527 131.985 81.5708 131.654C81.3572 131.133 81.1522 130.603 80.9386 130.082C80.8918 129.999 80.8623 129.909 80.852 129.814C80.8417 129.72 80.8508 129.625 80.8788 129.535C80.9362 129.45 81.0122 129.379 81.1009 129.327C81.1897 129.275 81.289 129.244 81.3914 129.236L85.2961 128.287" fill="#FF9A6C"/>
<path d="M82.8612 133.064C83.4601 133.147 84.0704 133.071 84.6299 132.841C85.287 132.632 85.8418 132.184 86.1849 131.585C86.3846 131.214 86.4679 130.791 86.4242 130.372C86.3991 129.941 86.2948 129.518 86.1166 129.125C85.9397 128.741 85.6902 128.396 85.3818 128.108L85.2793 128.014L85.1511 128.065C82.5878 128.971 80.5458 129.432 80.5629 129.543C82.1862 129.445 83.7838 129.09 85.2964 128.492L85.0657 128.45C85.3234 128.695 85.5347 128.984 85.6894 129.304C85.8587 129.585 85.9627 129.901 85.9938 130.228C86.025 130.555 85.9824 130.885 85.8693 131.193C85.7562 131.501 85.5753 131.78 85.3401 132.009C85.105 132.238 84.8214 132.412 84.5103 132.517C83.5362 132.918 82.8442 132.961 82.8612 133.064Z" fill="#263238"/>
<path d="M100.069 275.24L111.023 270.352L102.889 252.897L91.2432 259.048L100.069 275.24Z" fill="#FFBF9D"/>
<path d="M94.9683 257.733L78.2131 265.422L69.6688 265.901L71.6254 300.804C71.6254 300.804 75.4362 301.146 76.265 298.847C77.0938 296.549 84.8092 279.973 84.8092 279.973L100.701 273.864L94.9683 257.733Z" fill="#455A64"/>
<path d="M95.9679 255.033L91.2771 257.553C90.963 257.723 90.7223 258.002 90.6009 258.338C90.4796 258.673 90.4861 259.042 90.6192 259.373L96.959 274.898C97.0924 275.223 97.339 275.489 97.6532 275.646C97.9674 275.803 98.3278 275.841 98.6679 275.752L103.188 274.428C103.381 274.371 103.559 274.275 103.713 274.144C103.866 274.014 103.991 273.854 104.078 273.673C104.166 273.492 104.215 273.294 104.222 273.093C104.229 272.892 104.194 272.692 104.119 272.506L97.3264 255.528C97.2713 255.405 97.192 255.294 97.0933 255.203C96.9946 255.111 96.8785 255.04 96.7519 254.993C96.6252 254.947 96.4905 254.927 96.3559 254.934C96.2212 254.94 96.0893 254.974 95.9679 255.033Z" fill="#E0E0E0"/>
<path d="M95.9681 255.033C96.1356 254.975 96.3123 254.949 96.4893 254.956C96.7019 254.974 96.9029 255.061 97.0617 255.204C97.2528 255.422 97.3903 255.683 97.4633 255.964C97.9674 257.254 98.6766 259.074 99.5396 261.304C100.403 263.534 101.496 266.243 102.667 269.208C102.966 269.951 103.265 270.711 103.572 271.489L104.034 272.659C104.093 272.842 104.111 273.036 104.086 273.227C104.061 273.418 103.993 273.6 103.889 273.762C103.78 273.924 103.637 274.061 103.47 274.163C103.286 274.256 103.09 274.325 102.889 274.368L101.607 274.753L98.9842 275.522C98.7787 275.591 98.5669 275.639 98.3519 275.667C98.1486 275.675 97.9463 275.634 97.7624 275.547C97.5773 275.462 97.4138 275.337 97.2839 275.18C97.1697 275.003 97.0751 274.814 97.0019 274.616L95.9937 272.164C95.3358 270.549 94.695 269.002 94.0883 267.516L90.8415 259.664C90.7087 259.415 90.6273 259.142 90.6023 258.86C90.5919 258.601 90.6605 258.345 90.7988 258.126C91.0466 257.673 91.5763 257.519 91.9865 257.271L94.1481 256.092L95.5067 255.332C95.6708 255.252 95.8256 255.155 95.9681 255.041L95.4725 255.272L94.0883 255.981L91.901 257.117L91.2431 257.459C90.9879 257.587 90.7722 257.782 90.6194 258.023C90.4622 258.28 90.3794 258.576 90.3801 258.878C90.4092 259.175 90.4932 259.465 90.6279 259.732L93.8406 267.635L95.7288 272.283C96.0535 273.087 96.3867 273.907 96.7285 274.736C96.8069 274.965 96.9192 275.181 97.0617 275.376C97.2172 275.577 97.4186 275.738 97.6491 275.845C97.8795 275.952 98.1322 276.002 98.3861 275.992C98.5162 275.981 98.6449 275.958 98.7706 275.923L99.1038 275.829L101.718 275.06L103.009 274.684C103.233 274.625 103.451 274.542 103.658 274.437C103.867 274.31 104.045 274.137 104.179 273.932C104.312 273.734 104.397 273.507 104.429 273.27C104.46 273.033 104.436 272.792 104.359 272.565C104.205 272.138 104.042 271.771 103.889 271.369C103.572 270.6 103.273 269.84 102.974 269.096C101.77 266.14 100.693 263.474 99.7788 261.219C98.8646 258.963 98.1298 257.203 97.6086 255.921C97.5216 255.623 97.3632 255.35 97.1472 255.127C96.9705 254.982 96.7517 254.898 96.5234 254.887C96.383 254.886 96.2438 254.912 96.1133 254.964L95.9681 255.033Z" fill="#263238"/>
<path d="M91.73 261.304C92.5723 260.321 93.6616 259.58 94.8857 259.158C96.1097 258.736 97.4242 258.648 98.6935 258.903C97.4462 258.976 96.211 259.188 95.011 259.535C93.8554 260.002 92.7551 260.595 91.73 261.304Z" fill="#263238"/>
<path d="M93.8403 267.208C94.8984 266.465 96.0469 265.859 97.258 265.405C98.4042 264.841 99.6151 264.419 100.864 264.149C99.7641 264.763 98.6219 265.297 97.446 265.747C96.2799 266.318 95.075 266.806 93.8403 267.208Z" fill="#263238"/>
<path d="M96.5234 273.275C97.778 272.982 98.9839 272.51 100.103 271.873C101.15 271.129 102.08 270.234 102.863 269.216C102.781 269.6 102.605 269.958 102.351 270.258C101.807 271.035 101.116 271.697 100.317 272.207C99.5178 272.717 98.627 273.069 97.694 273.24C97.3117 273.342 96.911 273.354 96.5234 273.275Z" fill="#263238"/>
<path d="M72.7362 265.756L73.5394 300.693L71.5913 300.804L69.7372 265.918L72.7362 265.756Z" fill="#263238"/>
<path d="M77.333 286.792C77.6453 286.656 77.9841 286.592 78.3244 286.606C78.6646 286.619 78.9975 286.709 79.2982 286.868C80.3577 287.287 80.8703 288.107 80.7678 288.167C80.6653 288.227 80.0757 287.646 79.1358 287.313C78.196 286.98 77.3501 286.928 77.333 286.792Z" fill="#263238"/>
<path d="M79.1273 281.896C79.9053 281.763 80.7042 281.944 81.3488 282.4C82.4851 283.049 83.0063 284.006 82.9038 284.109C82.8013 284.211 82.169 283.417 81.1266 282.836C80.0842 282.255 79.1187 282.024 79.1273 281.896Z" fill="#263238"/>
<path d="M83.0918 276.838C83.1772 276.761 83.8437 277.342 84.2965 278.316C84.6418 278.874 84.7723 279.539 84.6639 280.187C84.3551 279.642 84.0977 279.07 83.8949 278.478C83.4763 277.598 82.9978 276.923 83.0918 276.838Z" fill="#263238"/>
<path d="M89.8674 273.839C90.252 274.374 90.5091 274.991 90.6193 275.641C90.8714 276.252 90.9824 276.912 90.9439 277.572C90.5634 277.034 90.3067 276.419 90.192 275.77C89.9448 275.157 89.834 274.498 89.8674 273.839Z" fill="#263238"/>
<path d="M90.7132 276.914C90.0561 277.582 89.5211 278.36 89.1325 279.213C88.9587 279.647 88.8354 280.1 88.7651 280.563C88.7181 280.803 88.7181 281.049 88.7651 281.289C88.8249 281.528 88.9531 281.656 89.1239 281.631C89.3534 281.538 89.5436 281.369 89.6622 281.152C89.83 280.906 89.9813 280.649 90.1151 280.383C90.3958 279.815 90.586 279.207 90.679 278.581C90.7352 278.236 90.7581 277.887 90.7474 277.538H91.1831C91.2966 278.079 91.5741 278.571 91.9777 278.948C92.3694 279.306 92.7959 279.624 93.2508 279.896C93.473 280.033 93.7037 280.178 93.772 280.127C93.8404 280.076 93.8745 279.913 93.772 279.725C93.6148 279.355 93.3919 279.017 93.1141 278.726C92.5277 278.154 91.799 277.75 91.0037 277.555C91.2297 277.521 91.4604 277.539 91.6787 277.607C92.2076 277.735 92.7006 277.982 93.1208 278.328C93.5409 278.675 93.8775 279.111 94.1052 279.606C94.1585 279.736 94.1846 279.875 94.1821 280.016C94.182 280.112 94.1547 280.207 94.1033 280.289C94.0519 280.37 93.9786 280.436 93.8916 280.477C93.8073 280.505 93.7182 280.514 93.6299 280.506C93.5417 280.497 93.4562 280.47 93.379 280.426C93.2557 280.368 93.1359 280.302 93.0201 280.23C92.528 279.956 92.0693 279.626 91.653 279.247C91.1772 278.816 90.851 278.244 90.7217 277.615L91.166 277.572C91.1953 278.627 90.9603 279.673 90.4825 280.614C90.3412 280.914 90.1725 281.2 89.9784 281.469C89.8019 281.778 89.5101 282.005 89.1667 282.101C89.0632 282.117 88.9574 282.108 88.858 282.075C88.7585 282.043 88.6682 281.987 88.5942 281.913C88.4755 281.78 88.3957 281.618 88.3635 281.443C88.3095 281.161 88.3095 280.871 88.3635 280.588C88.4521 280.099 88.6013 279.623 88.8078 279.17C89.1055 278.525 89.5264 277.945 90.0467 277.461C90.4227 277.025 90.6961 276.889 90.7132 276.914Z" fill="#263238"/>
<path d="M79.9134 270.891C79.9517 271.176 80.0738 271.443 80.2641 271.659C80.4544 271.874 80.7045 272.029 80.9825 272.102C81.2606 272.175 81.5542 272.164 81.8261 272.071C82.0981 271.977 82.336 271.805 82.5099 271.576C82.6838 271.347 82.7858 271.071 82.803 270.784C82.8201 270.497 82.7516 270.211 82.6062 269.963C82.4609 269.715 82.2451 269.516 81.9862 269.39C81.7274 269.265 81.4372 269.219 81.1523 269.259C80.9636 269.284 80.7817 269.346 80.6171 269.442C80.4525 269.538 80.3084 269.665 80.1933 269.817C80.0781 269.969 79.9941 270.142 79.9461 270.326C79.8981 270.51 79.887 270.702 79.9134 270.891Z" fill="#F5F5F5"/>
<path d="M53.8449 236.047C53.8449 236.047 37.4058 233.997 32.1681 235.065C26.9305 236.133 17.0534 242.327 18.0018 251.735C18.9502 261.142 25.1704 267.883 32.7833 269.071C40.3962 270.258 82.9466 274.573 99.4284 274.351C113.373 274.163 120.951 270.626 119.362 268.456C119.362 268.456 134.05 262.868 135.596 262.218C136.784 261.706 158.367 251.017 160.631 247.087C162.895 243.156 168.252 229.827 158.845 223.163C149.438 216.498 133.366 221.018 130.512 223.163C129.111 224.214 126.608 224.94 121.575 228.614L116.756 225.341C116.423 225.598 77.7602 228.298 62.4575 228.998C59.86 229.092 53.8449 236.047 53.8449 236.047Z" fill="#263238"/>
<path d="M99.9924 259.031C99.5652 257.211 99.3772 256.545 99.8471 255.366C100.381 254.21 101.122 253.161 102.034 252.273C102.278 251.923 102.59 251.625 102.951 251.397C103.312 251.17 103.715 251.017 104.136 250.948C105.213 250.948 105.965 251.974 106.537 252.888C108.628 256.237 110.858 259.501 113.227 262.68C114.483 264.586 116.11 266.219 118.012 267.482C118.73 267.9 119.636 268.404 119.593 269.242C119.593 269.9 118.935 270.344 118.354 270.669C117.274 271.278 116.148 271.804 114.988 272.241C113.955 272.807 112.763 273.014 111.599 272.829C110.436 272.643 109.367 272.075 108.562 271.215C104.48 267.99 101.455 263.62 99.8727 258.664" fill="#263238"/>
<path d="M99.8728 258.664C99.8959 258.714 99.9159 258.765 99.9326 258.818L100.095 259.262C100.232 259.655 100.445 260.236 100.761 260.971C101.646 263.015 102.795 264.934 104.179 266.678C105.145 267.88 106.201 269.006 107.34 270.045C107.956 270.6 108.605 271.164 109.306 271.685C110.005 272.244 110.839 272.609 111.724 272.745C112.662 272.806 113.603 272.654 114.475 272.301C115.408 271.96 116.321 271.566 117.209 271.121C117.662 270.891 118.123 270.652 118.55 270.387C118.767 270.284 118.957 270.132 119.105 269.944C119.253 269.756 119.356 269.536 119.405 269.302C119.396 269.063 119.325 268.832 119.199 268.629C119.074 268.427 118.897 268.261 118.687 268.148C118.277 267.849 117.782 267.61 117.329 267.294C115.63 266.011 114.16 264.451 112.98 262.68C111.766 261.039 110.63 259.433 109.562 257.878C108.494 256.323 107.537 254.828 106.657 253.409C106.282 252.712 105.798 252.08 105.221 251.538C104.946 251.309 104.611 251.164 104.256 251.119C103.916 251.097 103.576 251.178 103.282 251.35C102.729 251.716 102.236 252.166 101.821 252.683C101.413 253.119 101.031 253.579 100.676 254.059C100.081 254.793 99.71 255.683 99.6079 256.622C99.6298 257.224 99.7128 257.822 99.8557 258.408L99.9497 258.878C99.9497 258.98 99.9497 259.04 99.9497 259.04C99.9497 259.04 99.9497 258.989 99.8984 258.886L99.7702 258.425C99.5986 257.835 99.4982 257.227 99.4712 256.613C99.5404 255.633 99.9004 254.696 100.505 253.922C100.859 253.428 101.242 252.954 101.65 252.504C102.08 251.968 102.587 251.498 103.154 251.111C103.489 250.914 103.876 250.821 104.265 250.846C104.666 250.892 105.045 251.052 105.358 251.307C105.967 251.858 106.478 252.508 106.871 253.23C107.725 254.64 108.733 256.126 109.793 257.673C110.852 259.219 111.997 260.817 113.21 262.458C114.378 264.193 115.821 265.725 117.482 266.995C117.918 267.294 118.405 267.524 118.858 267.849C119.093 268.009 119.298 268.209 119.465 268.439C119.646 268.684 119.732 268.988 119.704 269.293C119.652 269.576 119.535 269.844 119.364 270.075C119.192 270.306 118.969 270.494 118.713 270.626C118.26 270.908 117.807 271.139 117.346 271.369C116.445 271.822 115.518 272.219 114.569 272.557C113.652 272.922 112.665 273.077 111.681 273.01C110.742 272.867 109.857 272.478 109.118 271.882C108.427 271.348 107.765 270.777 107.135 270.173C105.989 269.123 104.931 267.98 103.974 266.755C102.569 264.991 101.419 263.038 100.556 260.954C100.323 260.396 100.12 259.825 99.9497 259.245L99.8215 258.784C99.8728 258.664 99.8642 258.664 99.8728 258.664Z" fill="#455A64"/>
<path d="M139.322 224.777C139.322 224.777 139.168 224.778 138.877 224.82C138.456 224.891 138.039 224.988 137.63 225.111C136.562 225.418 135.067 225.965 133.153 226.606C132.221 226.939 131.153 227.315 130.068 227.657C128.996 228.271 128.03 229.053 127.206 229.972C125.3 231.801 123.224 233.826 121.063 235.953C116.731 240.225 112.928 244.25 110.263 247.223C108.93 248.701 107.87 249.923 107.135 250.769L106.281 251.743C106.189 251.861 106.086 251.97 105.973 252.068C105.973 252.068 106.05 251.931 106.23 251.7L107.024 250.692C107.725 249.838 108.733 248.573 110.075 247.069C112.698 244.053 116.483 240.02 120.815 235.723C122.976 233.578 125.087 231.562 126.984 229.742C127.835 228.804 128.834 228.01 129.94 227.392C131.093 227.033 132.102 226.7 133.059 226.375C134.947 225.734 136.476 225.247 137.587 224.974C138.002 224.862 138.425 224.782 138.852 224.735C138.965 224.717 139.08 224.717 139.193 224.735L139.322 224.777Z" fill="#455A64"/>
<path d="M82.2203 255.528L81.7931 255.34L80.5969 254.751L76.2137 252.521L69.7371 249.18C67.1416 247.739 64.4494 246.48 61.6799 245.412C60.2331 244.912 58.7385 244.562 57.2198 244.369C56.4747 244.265 55.7508 244.043 55.0752 243.712C54.4556 243.34 53.9132 242.853 53.4775 242.276C52.6356 241.301 51.5139 240.609 50.2648 240.294C49.1799 240.015 48.0608 239.891 46.9411 239.926C44.8734 239.995 43.1987 240.234 42.0367 240.234C41.4557 240.234 41.0029 240.234 40.6953 240.191C40.54 240.185 40.3856 240.165 40.2339 240.131H40.7038C41.0029 240.131 41.4557 240.131 42.0367 240.131C43.1902 240.131 44.8478 239.824 46.9326 239.721C48.0825 239.663 49.2347 239.778 50.3503 240.063C50.9719 240.226 51.5694 240.471 52.1275 240.789C52.7179 241.138 53.2463 241.583 53.6911 242.105C54.1088 242.649 54.6246 243.11 55.2119 243.464C55.8598 243.773 56.5515 243.981 57.2626 244.079C58.8004 244.278 60.3145 244.63 61.7825 245.13C64.5641 246.206 67.2653 247.479 69.8653 248.941L76.3162 252.358L80.6481 254.682L81.8187 255.323C81.9588 255.379 82.0932 255.447 82.2203 255.528Z" fill="#455A64"/>
<path d="M90.2091 276.453L78.9478 274.155L82.9379 256.143L95.1049 259.484L90.2091 276.453Z" fill="#FFBF9D"/>
<path d="M94.3188 260.544L111.963 265.901L120.507 265.217L123.318 300.027C123.318 300.027 119.584 300.881 118.456 298.728C117.328 296.575 107.409 281.187 107.409 281.187L90.8328 277.299L94.3188 260.544Z" fill="#455A64"/>
<path d="M92.9861 258.006L98.0015 259.86C98.3277 259.992 98.5945 260.238 98.7518 260.553C98.9091 260.868 98.9462 261.229 98.856 261.569L94.6949 277.846C94.6058 278.192 94.3914 278.493 94.093 278.69C93.7947 278.888 93.4337 278.967 93.0801 278.914L88.4235 278.213C88.2238 278.185 88.0324 278.114 87.8617 278.007C87.6911 277.9 87.5449 277.757 87.4329 277.59C87.3208 277.422 87.2454 277.233 87.2114 277.034C87.1775 276.835 87.1858 276.631 87.2358 276.436L91.6532 258.664C91.6899 258.528 91.7551 258.402 91.8444 258.293C91.9337 258.185 92.0451 258.096 92.1712 258.034C92.2972 257.972 92.4351 257.937 92.5756 257.932C92.7161 257.928 92.856 257.953 92.9861 258.006Z" fill="#E0E0E0"/>
<path d="M92.986 258.006C92.8107 257.975 92.6315 257.975 92.4562 258.006C92.2474 258.05 92.0602 258.164 91.9265 258.331C91.7645 258.573 91.6647 258.852 91.636 259.142C91.3113 260.484 90.8584 262.381 90.2945 264.713C89.7306 267.046 89.0385 269.84 88.2781 272.967C88.0787 273.736 87.8822 274.531 87.6885 275.351C87.586 275.752 87.492 276.154 87.3895 276.573C87.3549 276.762 87.3638 276.956 87.4157 277.141C87.4675 277.326 87.5608 277.497 87.6885 277.641C87.8181 277.788 87.9786 277.904 88.1585 277.982C88.3515 278.051 88.5525 278.094 88.7566 278.111L90.0809 278.307L92.7809 278.717C92.9948 278.758 93.2126 278.775 93.4303 278.769C93.6337 278.754 93.8304 278.69 94.0027 278.581C94.1713 278.466 94.3139 278.318 94.4214 278.145C94.5173 277.96 94.5837 277.761 94.6179 277.555C94.8486 276.701 95.0708 275.846 95.2844 274.992L96.5404 270.13C97.3948 267.046 98.0783 264.26 98.6935 261.911C98.7909 261.637 98.8344 261.347 98.8217 261.056C98.7973 260.796 98.6962 260.549 98.5312 260.347C98.215 259.937 97.6767 259.86 97.2324 259.664L94.934 258.809L93.4815 258.245C93.3104 258.185 93.1446 258.111 92.986 258.023C93.1629 258.063 93.337 258.114 93.5072 258.177L94.9768 258.69L97.3008 259.544L98.0014 259.8C98.2694 259.889 98.5066 260.052 98.685 260.27C98.8788 260.502 99.0032 260.783 99.0438 261.082C99.0583 261.392 99.0149 261.702 98.9157 261.996C98.3261 264.346 97.6169 267.123 96.8309 270.233C96.4378 271.779 96.0277 273.411 95.5919 275.095C95.3783 275.949 95.1562 276.803 94.934 277.658C94.8915 277.894 94.8107 278.122 94.6948 278.333C94.5673 278.554 94.3885 278.742 94.1736 278.88C93.9589 279.013 93.7162 279.095 93.4644 279.119C93.3368 279.136 93.2075 279.136 93.0799 279.119L92.7382 279.068L90.0382 278.666L88.7138 278.461C88.4801 278.441 88.2502 278.389 88.0303 278.307C87.6946 278.167 87.4172 277.915 87.2446 277.595C87.072 277.275 87.0146 276.905 87.0819 276.547C87.1759 276.111 87.2869 275.693 87.3809 275.308L87.9876 272.924C88.7651 269.831 89.4743 267.046 90.0724 264.688C90.6705 262.329 91.166 260.484 91.5078 259.142C91.5515 258.834 91.6688 258.541 91.8496 258.288C92.0052 258.118 92.2123 258.004 92.4391 257.963C92.5765 257.929 92.7204 257.929 92.8578 257.963C92.9432 257.986 92.986 258 92.986 258.006Z" fill="#263238"/>
<path d="M98.0099 263.637C97.0827 262.716 95.8849 262.117 94.5922 261.928C93.3267 261.609 91.9929 261.699 90.7815 262.184C92.0271 262.094 93.2788 262.137 94.5153 262.312C95.7265 262.62 96.8989 263.065 98.0099 263.637Z" fill="#263238"/>
<path d="M96.7626 269.771C95.6221 269.187 94.414 268.745 93.1655 268.456C91.954 268.049 90.697 267.794 89.4231 267.695C90.6107 268.156 91.83 268.53 93.0715 268.814C94.2784 269.218 95.5117 269.538 96.7626 269.771Z" fill="#263238"/>
<path d="M94.8913 276.145C93.612 276.042 92.3543 275.755 91.1575 275.291C90.0168 274.698 88.9714 273.938 88.0559 273.035C88.0559 273.035 88.2183 273.463 88.7053 274.001C90.0128 275.4 91.8163 276.231 93.7293 276.316C94.1246 276.348 94.5219 276.29 94.8913 276.145Z" fill="#263238"/>
<path d="M117.431 265.465L121.396 300.189L123.335 300.027L120.43 265.217L117.431 265.465Z" fill="#263238"/>
<path d="M115.739 286.937C115.739 287.065 114.885 287.15 114.031 287.663C113.176 288.176 112.638 288.834 112.527 288.757C112.416 288.68 112.817 287.834 113.817 287.27C114.091 287.072 114.406 286.939 114.74 286.881C115.073 286.823 115.415 286.842 115.739 286.937Z" fill="#263238"/>
<path d="M113.296 282.323C113.296 282.451 112.373 282.742 111.433 283.476C110.493 284.211 109.963 285.049 109.844 284.989C110.024 284.218 110.499 283.549 111.168 283.126C111.452 282.858 111.786 282.649 112.151 282.511C112.517 282.373 112.905 282.309 113.296 282.323Z" fill="#263238"/>
<path d="M108.682 277.854C108.547 278.458 108.355 279.047 108.109 279.614C107.996 280.221 107.818 280.814 107.58 281.383C107.38 280.757 107.416 280.079 107.682 279.478C107.998 278.452 108.588 277.786 108.682 277.854Z" fill="#263238"/>
<path d="M101.53 275.804C101.655 276.452 101.637 277.119 101.479 277.76C101.459 278.42 101.287 279.067 100.975 279.649C100.867 278.341 101.056 277.027 101.53 275.804Z" fill="#263238"/>
<path d="M101.146 278.965C101.399 279.029 101.633 279.152 101.829 279.324C102.411 279.738 102.907 280.26 103.29 280.862C103.555 281.282 103.767 281.732 103.923 282.203C104.018 282.478 104.065 282.767 104.059 283.058C104.058 283.236 104.002 283.409 103.897 283.553C103.834 283.636 103.753 283.704 103.659 283.75C103.566 283.796 103.463 283.819 103.359 283.818C103.02 283.761 102.715 283.578 102.504 283.306C102.282 283.072 102.079 282.821 101.898 282.554C101.517 281.994 101.229 281.376 101.043 280.725C100.941 280.367 100.869 280.002 100.83 279.632H101.274C101.222 280.26 100.977 280.857 100.573 281.34C100.21 281.768 99.7998 282.155 99.3516 282.494C99.2405 282.579 99.1551 282.656 99.0269 282.742C98.9562 282.796 98.8744 282.834 98.7873 282.853C98.7001 282.873 98.6098 282.872 98.5228 282.853C98.4317 282.827 98.3501 282.775 98.2879 282.704C98.2256 282.633 98.1856 282.545 98.1725 282.451C98.1417 282.31 98.1417 282.165 98.1725 282.024C98.3031 281.592 98.5148 281.189 98.7962 280.836C99.1899 280.341 99.705 279.955 100.291 279.717C100.5 279.619 100.728 279.57 100.958 279.572C100.2 279.877 99.5341 280.375 99.0269 281.016C98.7921 281.344 98.6184 281.711 98.5143 282.101C98.463 282.297 98.5143 282.502 98.5912 282.494C98.6681 282.485 98.8817 282.366 99.0782 282.195C99.4955 281.866 99.8739 281.49 100.206 281.075C100.557 280.652 100.766 280.129 100.804 279.58H101.248C101.286 279.924 101.352 280.264 101.445 280.597C101.638 281.208 101.926 281.785 102.299 282.306C102.468 282.555 102.654 282.792 102.855 283.015C102.999 283.215 103.212 283.355 103.453 283.408C103.624 283.408 103.735 283.263 103.76 283.024C103.768 282.78 103.731 282.536 103.649 282.306C103.523 281.855 103.342 281.422 103.111 281.016C102.582 280.222 101.916 279.528 101.146 278.965Z" fill="#263238"/>
<path d="M111.023 271.523C111.025 271.811 110.941 272.093 110.782 272.333C110.623 272.573 110.396 272.761 110.13 272.872C109.864 272.983 109.572 273.012 109.289 272.957C109.007 272.901 108.747 272.762 108.543 272.559C108.34 272.355 108.201 272.095 108.145 271.813C108.09 271.53 108.119 271.238 108.23 270.972C108.341 270.706 108.529 270.479 108.769 270.32C109.009 270.161 109.291 270.077 109.579 270.079C109.961 270.081 110.327 270.234 110.598 270.504C110.868 270.775 111.021 271.141 111.023 271.523Z" fill="#F5F5F5"/>
<path d="M83.0149 276.051C86.2446 271.831 87.5604 266.396 87.7911 261.082C87.9361 259.897 87.7559 258.695 87.2699 257.604C86.7656 256.788 86.0782 256.101 85.262 255.597C84.06 254.759 82.7778 254.044 81.4342 253.461C81.251 253.35 81.0454 253.282 80.8326 253.261C80.6197 253.241 80.4049 253.268 80.2038 253.341C79.7681 253.589 79.6997 254.195 79.6826 254.682C79.407 261.077 77.9075 267.359 75.2653 273.189C75.1509 273.441 75.097 273.716 75.1078 273.993C75.1186 274.269 75.1937 274.539 75.3273 274.782C75.4609 275.024 75.6492 275.232 75.8773 275.388C76.1053 275.545 76.3668 275.646 76.6409 275.684L79.6912 276.086C80.7944 276.244 81.9152 276.232 83.0149 276.051Z" fill="#263238"/>
<path d="M83.0149 276.051H82.8611L82.4254 276.12C81.858 276.182 81.2866 276.199 80.7165 276.171C79.9732 276.171 79.0846 276 78.0422 275.881C77.5124 275.804 76.9741 275.77 76.3333 275.65C76.0097 275.562 75.7162 275.387 75.4844 275.145C75.2525 274.902 75.0911 274.601 75.0175 274.274C74.9312 273.923 74.9521 273.554 75.0773 273.215C75.2055 272.873 75.3507 272.565 75.496 272.232C75.7694 271.574 76.0514 270.882 76.3504 270.156C76.9301 268.613 77.432 267.042 77.8542 265.448C78.8318 261.791 79.4049 258.037 79.563 254.255C79.585 253.978 79.6698 253.709 79.8108 253.469C79.8938 253.344 80.0051 253.24 80.1358 253.166C80.2664 253.091 80.4127 253.049 80.5627 253.042C81.0827 253.089 81.5866 253.246 82.0409 253.503C82.9242 253.915 83.7804 254.383 84.6042 254.904C85.4205 255.389 86.1702 255.978 86.8342 256.656C87.4612 257.346 87.8453 258.222 87.9279 259.151C88.0038 260.004 88.0038 260.861 87.9279 261.714C87.8766 262.569 87.7912 263.346 87.6886 264.115C87.506 265.558 87.2205 266.985 86.8342 268.387C86.2869 270.411 85.4617 272.349 84.382 274.146C84.0873 274.634 83.7649 275.105 83.4165 275.556L83.1431 275.906L83.0491 276.017C83.0491 276.017 83.0491 275.966 83.126 275.881L83.3738 275.513C83.5874 275.206 83.9035 274.719 84.2282 274.078C85.2596 272.273 86.0468 270.339 86.5693 268.327C86.9489 266.941 87.2344 265.531 87.4238 264.107C87.5177 263.338 87.5946 262.543 87.6374 261.723C87.7185 260.885 87.7185 260.04 87.6374 259.202C87.5609 258.333 87.2006 257.514 86.612 256.87C85.9653 256.209 85.2358 255.635 84.4418 255.161C83.6182 254.647 82.762 254.187 81.8785 253.785C81.4731 253.547 81.0216 253.399 80.5542 253.349C80.1184 253.349 79.8963 253.802 79.8621 254.272C79.7142 258.07 79.141 261.838 78.1532 265.508C77.6919 267.217 77.1707 268.78 76.6153 270.233C76.3333 270.959 76.0428 271.651 75.7609 272.318C75.6156 272.642 75.4533 272.976 75.3336 273.283C75.2247 273.578 75.2039 273.899 75.2738 274.206C75.3367 274.496 75.4772 274.764 75.6804 274.981C75.8835 275.197 76.1417 275.355 76.4273 275.436C76.9827 275.547 77.5637 275.607 78.0764 275.684C79.1102 275.821 80.0074 275.983 80.7336 276.026C81.3025 276.065 81.8735 276.065 82.4425 276.026H82.8868C82.9636 276.051 83.0064 276.043 83.0149 276.051Z" fill="#455A64"/>
<path d="M81.212 252.828C81.1351 252.871 80.5968 251.888 79.563 250.436C76.847 246.632 73.2066 243.582 68.9852 241.575C67.3704 240.815 66.3194 240.465 66.3451 240.379C66.6073 240.4 66.8657 240.455 67.114 240.542C67.7999 240.74 68.4733 240.98 69.1305 241.259C71.2921 242.191 73.3068 243.431 75.1114 244.942C76.9293 246.455 78.5105 248.232 79.8022 250.214C80.1999 250.807 80.5567 251.426 80.8703 252.068C81.0249 252.301 81.1404 252.558 81.212 252.828Z" fill="#455A64"/>
<path d="M111.356 238.653C110.86 239.331 110.315 239.971 109.724 240.567C108.707 241.729 107.34 243.37 105.965 245.284C104.589 247.198 103.478 249.017 102.709 250.359C102.338 251.11 101.906 251.83 101.419 252.512C101.657 251.702 101.986 250.923 102.402 250.188C103.327 248.381 104.383 246.645 105.563 244.993C106.748 243.341 108.056 241.782 109.476 240.328C110.035 239.698 110.666 239.136 111.356 238.653Z" fill="#455A64"/>
<path d="M43.9421 189.345C43.8395 188.798 46.0952 174.657 50.2477 164.917C51.7601 161.354 52.8708 158.867 54.4173 157.329C55.9358 155.867 57.6852 154.666 59.5951 153.775L79.1785 149.357C79.1785 149.357 77.8285 156.27 90.6449 155.432C100.197 154.817 101.838 147.854 101.838 147.854C101.838 147.854 120.763 149.981 125.352 154.185C129.94 158.389 134.357 182.894 134.357 182.894L116.56 188.071L114.441 214.012L120.328 226.905C120.328 226.905 102.538 240.302 90.3287 239.67C78.119 239.038 56.7926 231.98 56.7926 231.98L64.6106 215.533L59.6635 191.062L43.9421 189.345Z" fill="#1669FF"/>
<path d="M54.7079 169.804C54.8098 170.08 54.8814 170.367 54.9215 170.658C55.0497 171.291 55.212 172.085 55.4 173.051C55.8016 175.059 56.3826 177.844 57.1088 180.894C57.8351 183.945 58.5357 186.696 59.074 188.678C59.3218 189.626 59.5354 190.387 59.6977 191.036C59.7863 191.315 59.852 191.601 59.8942 191.891C59.7552 191.619 59.6463 191.332 59.5696 191.036C59.3816 190.498 59.1338 189.703 58.8348 188.712C58.2452 186.747 57.4933 183.996 56.7756 180.937C56.0579 177.878 55.5196 175.084 55.1778 173.059C55.0069 172.042 54.8873 171.222 54.8104 170.65C54.7534 170.371 54.7191 170.088 54.7079 169.804Z" fill="#263238"/>
<path d="M117.918 165.438C118.277 165.395 118.106 170.692 117.688 177.143C117.483 180.382 117.26 183.304 117.072 185.423C116.978 186.422 116.902 187.268 116.842 187.926C116.825 188.235 116.779 188.541 116.705 188.84C116.672 188.531 116.672 188.219 116.705 187.909C116.705 187.251 116.782 186.414 116.833 185.406C116.97 183.218 117.149 180.322 117.354 177.126C117.559 173.931 117.722 171.034 117.858 168.847C117.975 167.714 117.995 166.574 117.918 165.438Z" fill="#263238"/>
<path d="M103.436 213.08C103.105 213.274 102.76 213.44 102.402 213.576C102.069 213.73 101.658 213.909 101.171 214.097C100.684 214.285 100.129 214.507 99.4625 214.712C98.0041 215.209 96.5211 215.631 95.0195 215.977C93.1766 216.39 91.3106 216.692 89.4316 216.883C87.5518 217.062 85.6631 217.13 83.7753 217.088C82.2349 217.04 80.6978 216.914 79.17 216.712C78.5206 216.635 77.9396 216.515 77.4611 216.43C76.9826 216.344 76.5127 216.25 76.1538 216.165C75.7782 216.094 75.4073 215.999 75.0431 215.883C75.4254 215.904 75.8054 215.955 76.1795 216.037C76.5383 216.105 76.9741 216.182 77.4953 216.242C78.0165 216.302 78.5975 216.413 79.2041 216.472C80.5029 216.626 82.0579 216.729 83.7838 216.772C85.6576 216.795 87.5314 216.721 89.3974 216.549C91.2625 216.363 93.1163 216.078 94.9512 215.695C96.66 215.319 98.1382 214.909 99.3856 214.507C100.009 214.319 100.565 214.106 101.094 213.943C101.624 213.781 102.009 213.619 102.342 213.482C102.695 213.32 103.061 213.186 103.436 213.08Z" fill="#263238"/>
<path d="M95.3016 154.219L97.5146 181.159C97.5462 181.598 97.4076 182.032 97.1275 182.371C96.8474 182.709 96.4474 182.927 96.0108 182.979L79.3922 184.748C78.9507 184.789 78.5104 184.657 78.1644 184.379C77.8185 184.102 77.5939 183.701 77.5381 183.261L74.2828 155.116C74.2593 154.885 74.2833 154.651 74.3532 154.43C74.4232 154.208 74.5376 154.003 74.6896 153.827C74.8416 153.651 75.0279 153.508 75.237 153.406C75.4462 153.305 75.6739 153.247 75.9062 153.237L93.5671 152.673C93.998 152.664 94.4161 152.819 94.7377 153.106C95.0593 153.392 95.2608 153.79 95.3016 154.219Z" fill="#263238"/>
<path d="M87.7144 168.565C88.1672 168.565 97.9675 170.351 97.9675 170.351L110.835 177.724L117.764 188.148L111.006 200.768L107.588 190.575C105.577 190.659 103.562 190.616 101.556 190.447C98.557 190.156 89.0558 189.43 89.0558 189.43L84.1514 186.713C84.1514 186.713 82.5793 184.15 82.5793 183.423C82.5704 183.22 82.6172 183.018 82.7146 182.839C82.8121 182.66 82.9565 182.511 83.1323 182.408C83.3081 182.306 83.5087 182.253 83.7124 182.255C83.916 182.258 84.1151 182.316 84.2881 182.424C85.2878 182.996 92.1488 183.141 93.8577 182.424C93.8577 182.424 83.8609 181.706 82.5707 180.065C81.2806 178.425 81.7163 177.135 83.2885 177.135C84.8606 177.135 90.5767 177.989 92.2855 177.853C93.9944 177.716 96.1475 177.707 96.5577 176.853C96.9678 175.998 95.7032 175.281 95.7032 175.281L93.8406 173.854C93.8406 173.854 86.5524 172.564 86.1508 170.992C86.0568 170.729 86.0245 170.448 86.0564 170.171C86.0883 169.894 86.1834 169.627 86.3346 169.393C86.4857 169.158 86.6888 168.962 86.928 168.818C87.1673 168.675 87.4363 168.588 87.7144 168.565Z" fill="#FFBF9D"/>
<path d="M84.3734 168.095C84.3734 168.095 76.0171 169.445 75.4874 169.975C74.9577 170.504 64.4397 183.398 64.4397 183.398L69.8055 193.958L79.2041 188.832C80.1643 188.404 81.1666 188.077 82.1946 187.858C82.1946 187.858 91.6958 186.363 92.311 185.218C92.9262 184.073 92.5759 183.816 91.8667 183.637C91.1575 183.458 85.4842 184.107 84.1769 184.346C82.9211 184.469 81.6562 184.469 80.4003 184.346C80.4003 184.346 84.3392 183.423 85.2364 183.107C86.1335 182.791 94.9683 180.826 94.823 179.237C94.6778 177.647 93.5841 177.084 88.0474 178.579C85.027 179.438 81.9149 179.934 78.7769 180.057L91.0037 175.785C91.0037 175.785 95.9338 174.196 94.3445 172.794C92.7553 171.393 82.2117 174.29 82.2117 174.29L77.5466 176.05L78.8624 173.23C78.8624 173.23 85.4927 171.265 86.3471 170.598C87.3981 169.744 87.5433 169.018 86.7573 168.343C85.9712 167.668 84.3734 168.095 84.3734 168.095Z" fill="#FFBF9D"/>
<path d="M44.8733 189.456L59.1251 190.917L61.133 188.353L64.4396 183.398L69.8054 193.958C69.8054 193.958 67.8573 200.23 66.8149 203.69C64.0124 212.978 59.4498 223.342 53.8448 222.838C47.1205 222.214 42.199 214.242 42.3101 209.082C42.4126 204.348 44.8733 189.456 44.8733 189.456Z" fill="#FFBF9D"/>
<path d="M132.768 183.475L120.909 186.491L117.286 187.277L113.979 182.321L108.614 192.873C108.614 192.873 110.562 199.145 111.604 202.614C114.407 211.893 118.969 222.265 124.574 221.761C131.298 221.129 136.22 213.157 136.1 207.997C136.006 203.306 132.768 183.475 132.768 183.475Z" fill="#FFBF9D"/>
<path d="M64.4397 183.364C64.4397 183.364 64.5251 183.235 64.7217 182.988C64.9182 182.74 65.2087 182.381 65.5761 181.911L68.8998 177.793L74.1716 171.333L74.9662 170.385L75.3849 169.898C75.5702 169.757 75.7825 169.655 76.0086 169.599C76.863 169.351 77.7175 169.163 78.6231 168.975C80.4345 168.608 82.3399 168.266 84.3563 167.933C84.8639 167.82 85.3873 167.797 85.9028 167.864C86.1781 167.895 86.4434 167.986 86.6804 168.129C86.9173 168.285 87.1159 168.492 87.2614 168.736C87.3316 168.865 87.3753 169.008 87.39 169.154C87.4047 169.301 87.39 169.449 87.3468 169.59C87.2478 169.863 87.0903 170.111 86.8854 170.317C86.6902 170.525 86.4656 170.703 86.219 170.846C85.973 170.979 85.719 171.096 85.4585 171.197C83.3994 172.051 81.1864 172.683 78.9136 173.375L79.0076 173.298C78.606 174.153 78.1532 175.135 77.6918 176.11L77.5038 175.904L82.1605 174.136C84.1598 173.598 86.219 173.11 88.3465 172.717C89.4231 172.514 90.5097 172.369 91.6018 172.282C92.1704 172.233 92.7421 172.233 93.3107 172.282C93.6044 172.305 93.8927 172.374 94.1651 172.487C94.3174 172.55 94.4543 172.645 94.5664 172.766C94.6784 172.887 94.7631 173.031 94.8145 173.187C94.8468 173.353 94.838 173.523 94.7888 173.684C94.7397 173.845 94.6516 173.991 94.5325 174.11C94.3313 174.331 94.1014 174.523 93.849 174.683C93.3621 174.989 92.8505 175.255 92.3196 175.477C91.2515 175.93 90.1579 176.255 89.0727 176.648L82.451 178.963L78.8538 180.219L78.794 179.886C81.7126 179.756 84.6087 179.312 87.4322 178.562C88.8089 178.17 90.2067 177.856 91.6189 177.622C92.3284 177.498 93.054 177.498 93.7635 177.622C94.1461 177.69 94.49 177.897 94.729 178.203C94.9398 178.522 95.0527 178.897 95.0537 179.279C95.0352 179.492 94.9377 179.69 94.7803 179.835C94.6531 179.966 94.5128 180.083 94.3616 180.185C94.0712 180.378 93.7654 180.547 93.4474 180.689C92.8329 180.976 92.2024 181.227 91.5591 181.441C90.2946 181.885 88.9958 182.244 87.774 182.586L85.9114 183.082C85.3047 183.244 84.6981 183.458 84.0829 183.594C82.8696 183.91 81.6734 184.192 80.5029 184.449V184.158C81.8748 184.321 83.2622 184.304 84.6297 184.107C85.9883 183.91 87.3041 183.765 88.5943 183.637C89.2436 183.577 89.8844 183.517 90.5167 183.483C90.8329 183.483 91.149 183.483 91.4651 183.44C91.6275 183.44 91.7813 183.44 91.9607 183.44C92.1209 183.478 92.2758 183.536 92.4221 183.611C92.5074 183.651 92.5835 183.707 92.6453 183.778C92.7072 183.849 92.7534 183.932 92.7809 184.021C92.8284 184.189 92.8284 184.367 92.7809 184.534C92.7396 184.688 92.6824 184.837 92.6101 184.978L92.5075 185.183C92.4678 185.265 92.4092 185.335 92.3366 185.389C91.8343 185.725 91.28 185.976 90.6962 186.132C88.6101 186.717 86.4937 187.188 84.3563 187.542L82.9038 187.789C82.4421 187.851 81.9852 187.946 81.5367 188.071C80.6889 188.25 79.8676 188.537 79.0931 188.926L72.2577 192.566L70.4548 193.514L69.9935 193.753L69.8311 193.83L69.9764 193.736L70.4292 193.471L72.215 192.489L78.982 188.772C80.6572 187.992 82.4502 187.496 84.288 187.302C86.4118 186.937 88.514 186.455 90.5851 185.858C91.1377 185.714 91.663 185.48 92.1401 185.166C92.1861 185.129 92.2239 185.082 92.2512 185.03L92.3537 184.842C92.412 184.712 92.4606 184.577 92.499 184.44C92.5844 184.158 92.499 183.919 92.2854 183.799C92.1572 183.738 92.0225 183.693 91.8838 183.663C91.7389 183.649 91.593 183.649 91.448 183.663C91.1404 183.663 90.8329 183.663 90.5167 183.705C89.8844 183.705 89.2522 183.799 88.6114 183.868C87.3212 183.996 85.9968 184.15 84.6554 184.346C83.266 184.553 81.8555 184.576 80.4601 184.415C80.4209 184.41 80.3848 184.391 80.3593 184.361C80.3338 184.33 80.321 184.292 80.3234 184.252C80.3262 184.222 80.3384 184.193 80.3583 184.17C80.3783 184.147 80.4049 184.131 80.4345 184.124C81.6051 183.842 82.8013 183.56 84.006 183.27C84.6212 183.124 85.2022 182.919 85.8259 182.748L87.6886 182.253C88.936 181.911 90.2006 181.544 91.4566 181.108C92.0877 180.894 92.7067 180.646 93.3107 180.365C93.6071 180.223 93.8927 180.061 94.1651 179.878C94.4129 179.707 94.7119 179.459 94.7119 179.237C94.7011 178.933 94.6097 178.639 94.4471 178.382C94.2531 178.139 93.9764 177.974 93.6695 177.921C92.9995 177.806 92.3146 177.806 91.6446 177.921C90.2471 178.155 88.8637 178.466 87.5006 178.852C84.6491 179.61 81.7245 180.06 78.7769 180.194C78.7549 180.195 78.7329 180.191 78.7122 180.184C78.6915 180.176 78.6726 180.164 78.6566 180.149C78.6406 180.134 78.6279 180.116 78.6192 180.095C78.6105 180.075 78.606 180.053 78.606 180.031C78.6027 179.996 78.612 179.96 78.6322 179.93C78.6525 179.9 78.6826 179.879 78.7171 179.869L82.3228 178.613L88.9446 176.306C90.0297 175.913 91.1319 175.58 92.1658 175.144C92.6805 174.932 93.1752 174.675 93.6439 174.375C93.8689 174.23 94.0754 174.057 94.2591 173.862C94.3431 173.786 94.4066 173.689 94.4439 173.582C94.4812 173.474 94.4911 173.359 94.4727 173.247C94.336 172.803 93.7892 172.632 93.2594 172.589C92.7163 172.547 92.1706 172.547 91.6275 172.589C90.5496 172.678 89.4773 172.823 88.4148 173.025C86.2959 173.41 84.2367 173.879 82.2544 174.426L77.6064 176.203C77.5689 176.218 77.5275 176.217 77.4908 176.201C77.4541 176.185 77.4251 176.155 77.4099 176.118C77.4014 176.099 77.397 176.079 77.397 176.058C77.397 176.038 77.4014 176.017 77.4099 175.998C77.8627 175.016 78.3155 174.059 78.7257 173.187C78.748 173.15 78.7807 173.121 78.8197 173.102C81.0924 172.418 83.3054 171.743 85.3475 170.949C85.5952 170.846 85.8516 170.744 86.0737 170.624C86.2952 170.491 86.4966 170.327 86.6718 170.137C86.8648 169.997 87.004 169.795 87.0661 169.565C87.1283 169.335 87.1098 169.091 87.0136 168.873C86.8932 168.664 86.7251 168.487 86.5231 168.357C86.321 168.226 86.0909 168.145 85.8516 168.121C85.37 168.058 84.8811 168.081 84.4076 168.189C82.3997 168.514 80.4858 168.847 78.6829 169.206C77.7858 169.385 76.9057 169.565 76.1197 169.812C75.9283 169.858 75.7462 169.936 75.5814 170.043L75.1713 170.522C74.9064 170.838 74.633 171.154 74.3767 171.47L69.0536 177.887C67.5925 179.647 66.4903 181.014 65.6786 181.962L64.8242 183.013C64.5508 183.252 64.4397 183.364 64.4397 183.364Z" fill="#FF9A6C"/>
<path d="M65.3027 183.022C65.3967 183.099 61.4663 188.353 56.5278 194.77C51.5892 201.187 47.5051 206.322 47.4111 206.254C47.3171 206.185 51.2474 200.922 56.186 194.505C61.1246 188.089 65.2087 182.953 65.3027 183.022Z" fill="#FF9A6C"/>
<path d="M129.923 206.254C129.854 206.254 129.359 205.057 128.334 203.203C126.961 200.799 125.428 198.49 123.745 196.291C121.806 193.728 119.96 191.412 118.687 189.703C118.038 188.849 117.542 188.157 117.209 187.661C117.016 187.418 116.856 187.151 116.73 186.867C116.962 187.072 117.168 187.305 117.346 187.559C117.773 188.097 118.303 188.746 118.926 189.515C120.259 191.164 122.148 193.42 124.053 196.035C125.74 198.243 127.238 200.59 128.53 203.049C128.919 203.798 129.265 204.568 129.564 205.356C129.729 205.635 129.85 205.938 129.923 206.254Z" fill="#FF9A6C"/>
</svg>
