<svg width="22" height="30" viewBox="0 0 22 30" fill="none" xmlns="http://www.w3.org/2000/svg">
<path d="M15 1.66699V3.53366C15 4.2804 15 4.65376 14.8546 4.93898C14.7268 5.18986 14.5228 5.39384 14.2719 5.52167C13.9867 5.66699 13.6134 5.66699 12.8666 5.66699H9.13329C8.38656 5.66699 8.01319 5.66699 7.72797 5.52167C7.47709 5.39384 7.27312 5.18986 7.14528 4.93898C6.99996 4.65376 6.99996 4.2804 6.99996 3.53366V1.66699M5.93329 28.3337H16.0666C17.5601 28.3337 18.3068 28.3337 18.8773 28.043C19.379 27.7873 19.787 27.3794 20.0426 26.8776C20.3333 26.3072 20.3333 25.5605 20.3333 24.067V5.93366C20.3333 4.44019 20.3333 3.69345 20.0426 3.12302C19.787 2.62125 19.379 2.2133 18.8773 1.95764C18.3068 1.66699 17.5601 1.66699 16.0666 1.66699H5.93329C4.43982 1.66699 3.69308 1.66699 3.12265 1.95764C2.62089 2.2133 2.21294 2.62125 1.95728 3.12302C1.66663 3.69345 1.66663 4.44019 1.66663 5.93366V24.067C1.66663 25.5605 1.66663 26.3072 1.95728 26.8776C2.21294 27.3794 2.62089 27.7873 3.12265 28.043C3.69308 28.3337 4.43982 28.3337 5.93329 28.3337Z" stroke="#FF5B4A" stroke-width="2" stroke-linecap="round" stroke-linejoin="round"/>
</svg>
